#Inner Maze.obj
#Wednesday, October 21, 2015
#3:40:03 PM
#-------

#Inner Maze
#-------
g Inner Maze
#Quad (7)
#-------
g Quad (7)
v 1.940976 10.65074 1.106002E-16
v -1.174091 6.161011 -1.106002E-16
v -1.91769 6.932744 1.106002E-16
v 2.684576 9.879006 -1.106002E-16

vn 0 0 -1
vn 0 0 -1
vn 0 0 -1
vn 0 0 -1

vt 0 0
vt 1 1
vt 1 0
vt 0 1

usemtl asymmetrybackground
usemap asymmetrybackground
f 1/1/1 2/2/2 3/3/3
f 2/2/2 1/1/1 4/4/4
#Quad (8)
#-------
g Quad (8)
v -4.892088 10.01968 1.106002E-16
v -0.4023566 6.904611 -1.106002E-16
v -1.17409 6.161011 1.106002E-16
v -4.120355 10.76328 -1.106002E-16

vn 0 0 -1
vn 0 0 -1
vn 0 0 -1
vn 0 0 -1

vt 0 0
vt 1 1
vt 1 0
vt 0 1

usemtl asymmetrybackground
usemap asymmetrybackground
f 5/5/5 6/6/6 7/7/7
f 6/6/6 5/5/5 8/8/8
#Quad (9)
#-------
g Quad (9)
v -7.228972 0.2581377 1.106002E-16
v -4.197526 4.804746 -1.106002E-16
v -3.439772 4.046906 1.106002E-16
v -7.986727 1.015978 -1.106002E-16

vn 0 0 -1
vn 0 0 -1
vn 0 0 -1
vn 0 0 -1

vt 0 0
vt 1 1
vt 1 0
vt 0 1

usemtl asymmetrybackground
usemap asymmetrybackground
f 9/9/9 10/10/10 11/11/11
f 10/10/10 9/9/9 12/12/12
#Quad (10)
#-------
g Quad (10)
v -8.00746 7.003469 1.106002E-16
v -3.46085 3.972024 -1.106002E-16
v -4.218689 3.21427 1.106002E-16
v -7.24962 7.761224 -1.106002E-16

vn 0 0 -1
vn 0 0 -1
vn 0 0 -1
vn 0 0 -1

vt 0 0
vt 1 1
vt 1 0
vt 0 1

usemtl asymmetrybackground
usemap asymmetrybackground
f 13/13/13 14/14/14 15/15/15
f 14/14/14 13/13/13 16/16/16
#Quad (11)
#-------
g Quad (11)
v 4.69792 8.098392 1.106002E-16
v 1.582854 3.608664 -1.106002E-16
v 0.8392544 4.380397 1.106002E-16
v 5.441519 7.326659 -1.106002E-16

vn 0 0 -1
vn 0 0 -1
vn 0 0 -1
vn 0 0 -1

vt 0 0
vt 1 1
vt 1 0
vt 0 1

usemtl asymmetrybackground
usemap asymmetrybackground
f 17/17/17 18/18/18 19/19/19
f 18/18/18 17/17/17 20/20/20
#Quad (12)
#-------
g Quad (12)
v 5.335584 1.274884 1.106002E-16
v 0.8326551 4.370843 -1.106002E-16
v 1.601221 5.117715 1.106002E-16
v 4.567017 0.5280118 -1.106002E-16

vn 0 0 -1
vn 0 0 -1
vn 0 0 -1
vn 0 0 -1

vt 0 0
vt 1 1
vt 1 0
vt 0 1

usemtl asymmetrybackground
usemap asymmetrybackground
f 21/21/21 22/22/22 23/23/23
f 22/22/22 21/21/21 24/24/24
#Quad (13)
#-------
g Quad (13)
v -4.404593 -2.673583 1.106002E-16
v -1.370551 1.871293 -1.106002E-16
v -0.6132297 1.11302 1.106002E-16
v -5.161914 -1.91531 -1.106002E-16

vn 0 0 -1
vn 0 0 -1
vn 0 0 -1
vn 0 0 -1

vt 0 0
vt 1 1
vt 1 0
vt 0 1

usemtl asymmetrybackground
usemap asymmetrybackground
f 25/25/25 26/26/26 27/27/27
f 26/26/26 25/25/25 28/28/28
#Quad (14)
#-------
g Quad (14)
v 2.410228 -1.876779 1.106002E-16
v -2.131689 1.161693 -1.106002E-16
v -1.372679 1.918274 1.106002E-16
v 1.651217 -2.63336 -1.106002E-16

vn 0 0 -1
vn 0 0 -1
vn 0 0 -1
vn 0 0 -1

vt 0 0
vt 1 1
vt 1 0
vt 0 1

usemtl asymmetrybackground
usemap asymmetrybackground
f 29/29/29 30/30/30 31/31/31
f 30/30/30 29/29/29 32/32/32
#Quad (15)
#-------
g Quad (15)
v 14.31593 -14.17064 1.106002E-16
v 9.771059 -11.13659 -1.106002E-16
v 10.52933 -10.37927 1.106002E-16
v 13.55766 -14.92796 -1.106002E-16

vn 0 0 -1
vn 0 0 -1
vn 0 0 -1
vn 0 0 -1

vt 0 0
vt 1 1
vt 1 0
vt 0 1

usemtl asymmetrybackground
usemap asymmetrybackground
f 33/33/33 34/34/34 35/35/35
f 34/34/34 33/33/33 36/36/36
#Quad (16)
#-------
g Quad (16)
v 7.279884 -14.66113 1.106002E-16
v 10.31393 -10.11626 -1.106002E-16
v 11.07125 -10.87453 1.106002E-16
v 6.522564 -13.90286 -1.106002E-16

vn 0 0 -1
vn 0 0 -1
vn 0 0 -1
vn 0 0 -1

vt 0 0
vt 1 1
vt 1 0
vt 0 1

usemtl asymmetrybackground
usemap asymmetrybackground
f 37/37/37 38/38/38 39/39/39
f 38/38/38 37/37/37 40/40/40
#Quad (17)
#-------
g Quad (17)
v 17.31035 -10.99849 1.106002E-16
v 12.80742 -7.902532 -1.106002E-16
v 13.57598 -7.155659 1.106002E-16
v 16.54178 -11.74536 -1.106002E-16

vn 0 0 -1
vn 0 0 -1
vn 0 0 -1
vn 0 0 -1

vt 0 0
vt 1 1
vt 1 0
vt 0 1

usemtl asymmetrybackground
usemap asymmetrybackground
f 41/41/41 42/42/42 43/43/43
f 42/42/42 41/41/41 44/44/44
#Quad (18)
#-------
g Quad (18)
v 16.58596 -4.242742 1.106002E-16
v 13.49 -8.745668 -1.106002E-16
v 12.74312 -7.977103 1.106002E-16
v 17.33283 -5.011309 -1.106002E-16

vn 0 0 -1
vn 0 0 -1
vn 0 0 -1
vn 0 0 -1

vt 0 0
vt 1 1
vt 1 0
vt 0 1

usemtl asymmetrybackground
usemap asymmetrybackground
f 45/45/45 46/46/46 47/47/47
f 46/46/46 45/45/45 48/48/48
#Quad (19)
#-------
g Quad (19)
v 1.257797 -2.2235 1.106002E-16
v 5.799715 -5.26197 -1.106002E-16
v 5.040705 -6.018551 1.106002E-16
v 2.016807 -1.466918 -1.106002E-16

vn 0 0 -1
vn 0 0 -1
vn 0 0 -1
vn 0 0 -1

vt 0 0
vt 1 1
vt 1 0
vt 0 1

usemtl asymmetrybackground
usemap asymmetrybackground
f 49/49/49 50/50/50 51/51/51
f 50/50/50 49/49/49 52/52/52
#Quad (20)
#-------
g Quad (20)
v 2.004722 -9.016006 1.106002E-16
v 5.036169 -4.469398 -1.106002E-16
v 5.793922 -5.227239 1.106002E-16
v 1.246968 -8.258166 -1.106002E-16

vn 0 0 -1
vn 0 0 -1
vn 0 0 -1
vn 0 0 -1

vt 0 0
vt 1 1
vt 1 0
vt 0 1

usemtl asymmetrybackground
usemap asymmetrybackground
f 53/53/53 54/54/54 55/55/55
f 54/54/54 53/53/53 56/56/56
#Quad (21)
#-------
g Quad (21)
v 4.334171 0.7532495 1.106002E-16
v 8.823902 -2.361817 -1.106002E-16
v 8.05217 -3.105416 1.106002E-16
v 5.105904 1.496849 -1.106002E-16

vn 0 0 -1
vn 0 0 -1
vn 0 0 -1
vn 0 0 -1

vt 0 0
vt 1 1
vt 1 0
vt 0 1

usemtl asymmetrybackground
usemap asymmetrybackground
f 57/57/57 58/58/58 59/59/59
f 58/58/58 57/57/57 60/60/60
#Quad (22)
#-------
g Quad (22)
v 11.16723 1.384312 1.106002E-16
v 8.052168 -3.105417 -1.106002E-16
v 7.308569 -2.333683 1.106002E-16
v 11.91083 0.6125789 -1.106002E-16

vn 0 0 -1
vn 0 0 -1
vn 0 0 -1
vn 0 0 -1

vt 0 0
vt 1 1
vt 1 0
vt 0 1

usemtl asymmetrybackground
usemap asymmetrybackground
f 61/61/61 62/62/62 63/63/63
f 62/62/62 61/61/61 64/64/64
#Quad (23)
#-------
g Quad (23)
v 14.87155 4.953588 1.106002E-16
v 11.75649 0.4638596 -1.106002E-16
v 11.01289 1.235593 1.106002E-16
v 15.61515 4.181855 -1.106002E-16

vn 0 0 -1
vn 0 0 -1
vn 0 0 -1
vn 0 0 -1

vt 0 0
vt 1 1
vt 1 0
vt 0 1

usemtl asymmetrybackground
usemap asymmetrybackground
f 65/65/65 66/66/66 67/67/67
f 66/66/66 65/65/65 68/68/68
#Quad (24)
#-------
g Quad (24)
v 20.29309 -0.5219326 1.106002E-16
v 17.19713 -5.024859 -1.106002E-16
v 16.45026 -4.256292 1.106002E-16
v 21.03996 -1.290499 -1.106002E-16

vn 0 0 -1
vn 0 0 -1
vn 0 0 -1
vn 0 0 -1

vt 0 0
vt 1 1
vt 1 0
vt 0 1

usemtl asymmetrybackground
usemap asymmetrybackground
f 69/69/69 70/70/70 71/71/71
f 70/70/70 69/69/69 72/72/72
#Quad (25)
#-------
g Quad (25)
v -1.555501 -12.58038 1.106002E-16
v 1.475946 -8.033771 -1.106002E-16
v 2.2337 -8.791611 1.106002E-16
v -2.313254 -11.82254 -1.106002E-16

vn 0 0 -1
vn 0 0 -1
vn 0 0 -1
vn 0 0 -1

vt 0 0
vt 1 1
vt 1 0
vt 0 1

usemtl asymmetrybackground
usemap asymmetrybackground
f 73/73/73 74/74/74 75/75/75
f 74/74/74 73/73/73 76/76/76
#Quad (26)
#-------
g Quad (26)
v 3.804271 -18.15886 1.106002E-16
v 6.838315 -13.61399 -1.106002E-16
v 7.595635 -14.37226 1.106002E-16
v 3.046951 -17.40059 -1.106002E-16

vn 0 0 -1
vn 0 0 -1
vn 0 0 -1
vn 0 0 -1

vt 0 0
vt 1 1
vt 1 0
vt 0 1

usemtl asymmetrybackground
usemap asymmetrybackground
f 77/77/77 78/78/78 79/79/79
f 78/78/78 77/77/77 80/80/80
#Quad (27)
#-------
g Quad (27)
v 0.06091595 -14.2729 1.106002E-16
v 4.550647 -17.38797 -1.106002E-16
v 3.778915 -18.13157 1.106002E-16
v 0.8326478 -13.5293 -1.106002E-16

vn 0 0 -1
vn 0 0 -1
vn 0 0 -1
vn 0 0 -1

vt 0 0
vt 1 1
vt 1 0
vt 0 1

usemtl asymmetrybackground
usemap asymmetrybackground
f 81/81/81 82/82/82 83/83/83
f 82/82/82 81/81/81 84/84/84
#Quad (28)
#-------
g Quad (28)
v 2.15542 -14.88572 1.106002E-16
v -2.347509 -11.78976 -1.106002E-16
v -1.578943 -11.04289 1.106002E-16
v 1.386853 -15.63259 -1.106002E-16

vn 0 0 -1
vn 0 0 -1
vn 0 0 -1
vn 0 0 -1

vt 0 0
vt 1 1
vt 1 0
vt 0 1

usemtl asymmetrybackground
usemap asymmetrybackground
f 85/85/85 86/86/86 87/87/87
f 86/86/86 85/85/85 88/88/88
#Quad (29)
#-------
g Quad (29)
v 18.67332 1.178837 1.106002E-16
v 14.17039 4.274795 -1.106002E-16
v 14.93896 5.021667 1.106002E-16
v 17.90476 0.4319639 -1.106002E-16

vn 0 0 -1
vn 0 0 -1
vn 0 0 -1
vn 0 0 -1

vt 0 0
vt 1 1
vt 1 0
vt 0 1

usemtl asymmetrybackground
usemap asymmetrybackground
f 89/89/89 90/90/90 91/91/91
f 90/90/90 89/89/89 92/92/92
#Quad (30)
#-------
g Quad (30)
v 16.55651 1.814802 1.106002E-16
v 21.04624 -1.300264 -1.106002E-16
v 20.27451 -2.043863 1.106002E-16
v 17.32824 2.558402 -1.106002E-16

vn 0 0 -1
vn 0 0 -1
vn 0 0 -1
vn 0 0 -1

vt 0 0
vt 1 1
vt 1 0
vt 0 1

usemtl asymmetrybackground
usemap asymmetrybackground
f 93/93/93 94/94/94 95/95/95
f 94/94/94 93/93/93 96/96/96
#Quad (31)
#-------
g Quad (31)
v 1.145412 9.816568 -0.05396585
v 5.419609 7.402924 -0.05396585
v 4.606539 6.543213 -0.05396585
v 1.958482 10.67628 -0.05396585

vn 0 0 -1
vn 0 0 -1
vn 0 0 -1
vn 0 0 -1

vt 0 0
vt 1 1
vt 1 0
vt 0 1

usemtl asymmetrybackground
usemap asymmetrybackground
f 97/97/97 98/98/98 99/99/99
f 98/98/98 97/97/97 100/100/100
#Quad (32)
#-------
g Quad (32)
v 1.203739 9.914478 -0.0539658
v 5.361281 7.305018 -0.0539658
v 4.509178 6.483979 -0.0539658
v 2.055842 10.73552 -0.0539658

vn 0 0 -1
vn 0 0 -1
vn 0 0 -1
vn 0 0 -1

vt 0 0
vt 1 1
vt 1 0
vt 0 1

usemtl asymmetrybackground
usemap asymmetrybackground
f 101/101/101 102/102/102 103/103/103
f 102/102/102 101/101/101 104/104/104
#Quad (33)
#-------
g Quad (33)
v -7.869471 0.889272 -0.0539658
v -3.711928 -1.720188 -0.0539658
v -4.564032 -2.541227 -0.0539658
v -7.017367 1.710311 -0.0539658

vn 0 0 -1
vn 0 0 -1
vn 0 0 -1
vn 0 0 -1

vt 0 0
vt 1 1
vt 1 0
vt 0 1

usemtl asymmetrybackground
usemap asymmetrybackground
f 105/105/105 106/106/106 107/107/107
f 106/106/106 105/105/105 108/108/108
