<?xml version="1.0" encoding="utf-8"?>
<!-- Generator: Adobe Illustrator 18.0.0, SVG Export Plug-In . SVG Version: 6.00 Build 0)  -->
<!DOCTYPE svg PUBLIC "-//W3C//DTD SVG 1.1//EN" "http://www.w3.org/Graphics/SVG/1.1/DTD/svg11.dtd">
<svg version="1.1" xmlns="http://www.w3.org/2000/svg" xmlns:xlink="http://www.w3.org/1999/xlink" x="0px" y="0px"
	 viewBox="0 0 4096 4096" enable-background="new 0 0 4096 4096" xml:space="preserve">
<g id="Floors_Complete">
	<path fill="#00A79D" d="M-254.3,5053.2c-8.3,0-765.6-58.7-560.5,591.3c124.2,393.6,629.3,266.6,738.9,107.7
		c95.7-138.8,111.5-455.3,50.1-552.8C-236.6,5243.9-253.9,5087.2-254.3,5053.2z"/>
	<path fill="#00A79D" d="M4207.6,3034.8c22.9-60.4,128.7-185,244.1-258.6c29.3-18.7,118.6-53.1,263.7-50.5
		c360.5,6.7,942.3,27.2,1567.8,38.4c123.6,2.2,52.5,205.6,271.3,364.3c162.6,117.8,690.3,116.7,783.4,20.2
		c56.9-59,150.6-161.4,272.9-170.2c141.6-10.3,292.6,77.6,292.6,273.1c0,187.7-153,283.6-294.6,276.9
		c-122.3-5.8-211.1-122-277-158.1c-117-63.9-689-31.9-785.3,32c-187.2,124.2-137.8,347.6-265.6,344.1
		c-552.1-15.4-1261.1-3.3-1332,6.9c-343.4,49.1-582.5-42.2-727-228.8C4023.1,3268.2,4184.8,3095.2,4207.6,3034.8z"/>
	<path fill="#00A79D" d="M1163.5,3272.5c-125.1-106-417.9-106.2-545.3,34.5c6-66.6,37.3-163.4-18.2-170.9
		c-304.2-31.6-233.7-394,75.1-308.4c21,5.8,43.2-4.4,52-24.3c45.4-102.4,257.3-125.4,313.9-11.6c9.8,19.6,32.3,29.2,53.3,23.1
		c210.3-61.3,349.9,155.8,182.2,264.3C1148.7,3147.6,1142,3198.4,1163.5,3272.5z"/>
	<path fill="#00A79D" d="M-251.1,1964.2c68.2-351,412.5-369.9,562.2-313.2c21.3,8.1,45.5,1.2,58.9-17.3
		c177.1-243.8,428.6-129.9,490.2,71.8c5.3,17.3,17.5,31.7,34,39.4c352.3,163,185.3,492.2,3.3,546.1c-18.7,5.5-33.5,20-39.8,38.5
		c-92.1,269.2-362.9,234.8-457.4,129.1c-12.5-13.9-32.6-18.2-49.7-10.4c-92.9,42.2-251.3,71.2-312.3,19.2
		C-203.9,2501.2-369.8,2082.1-251.1,1964.2z"/>
	<path fill="#00A79D" d="M2782.8,2995c-0.5-1-0.8-2.1-1-3.1c-20.5-109.1-294.7-572.1-945.5-226.6
		c-404.3,214.6-444.6,658.9-292.7,902.9c18,28.9,4.4,67-27.8,78c-20.3,6.9-41.9,11.6-60.4,14c-38.1,4.9-268.4,3.8-291.9-15.3
		c-126.1-102.6-404.5-110.8-545.3,34.5c-39.9,41.1-292.1,38.1-330,0c-36.8-37-60.3-139.3-272-135.3c-13.9,0.3-27.4-5-37.6-14.5
		c-43.5-40.9-144.2-140.6-340.5-60.2c-18.3,7.5-39.5,2.7-52.6-12.1c-27-30.4-71.6-73-131.3-98.4c-24.4-10.4-41.2-33.2-44.3-59.5
		c-9.6-81.2-36.3-242.4-233.5-312.8c-22.5-8-38.2-28.4-40.6-52.1c-12.7-124.8-116.3-330.1-224.8-374.2
		c-19.6-6.4-28-82.4-140.9-107.3c-23.5-5.2-40.6-25.6-41.4-49.6c-5.4-157.8-195.8-630.8-690.2-350.3c-20.5,11.6-44.5,15.4-67.6,10.7
		c-122.8-24.8-518.3-90.1-902.1,139.4c-72.5,43.4-510.4,240.1-648.1,237c-118.8-2.7-392.5,154.7-220.5,482
		c10.9,20.8,11.4,45.5,1.3,66.7c-14.3,29.8-79.5,75.8-79.5,178.5c0,107,62.3,166.1,74.3,194.4c6.3,14.8,4.2,31.7-5.3,44.7
		c-115.1,157.3,40.4,594.3,335,451.4c2.9-1.4,11.9-5.9,23.3-4.2c101.3,15.6,502.9,152.6,599.1,257.1c6.9,7.5,12,16.4,15.2,26
		c85.4,256.5,496.2,779.5,849.3,3.3c10-22,32-35.9,56.2-35.7c93.8,0.6,290-32.9,370.7-200.2c11.7-24.2,39.8-35.5,64.9-25.9
		c91.4,34.8,277.8,74.6,455.4-119.7c20.4-22.3,49.6-34.7,79.9-33.3c54.3,2.5,141.5,1,218-58.6c14.1-11,34.3-9.6,46.8,3.3
		c32.7,34,89.7,70.3,137.1,83.7c16.1,4.6,28.8,17.1,33.6,33.1c20.9,69.6,101.6,235.4,255.2,239.8c7.2,0.3,11.3,3.5,11.2,10.7
		c-0.6,26.9-16.4,110.3,14.4,234.1c5.2,21,5.2,42.9,0.3,64c-43,185.2,39.4,286,217.5,247.6c36.1-16.6,162.1,33.2,283.6-83.8
		c25.4-24.4,61.8-33.6,95.6-23.7c231.9,67.8,977.3,114.5,1127-262.8c13.9-35,43.1-61.7,79-73c59-18.6,141.4-64.3,168.2-185.6
		c6.6-29.7,26-54.8,52.9-68.9c30.4-15.9,71.9-33.9,112.6-41.8c75-14.5,611,164,889-390C2816.3,3485.4,2885.8,3222.7,2782.8,2995z
		 M-1889.9,3009.5c-66.4,12.2-131.1,81.7-52.2,157.5c15.3,14.8,23.9,35.2,23,56.5c-1.7,43.8-13.4,109-42.8,130
		c-36.7,26.2-122.5,17.3-215.7,69.5c-23.5,13.2-52,13.9-76.3,2.2c-97.9-47-261.7-5.7-351.5,60.2c-92.5,67.9-175.5,208.2-199.2,396.1
		c-4.7,37.1-41.1,61.4-77.2,51.9c-114.1-30-324.4-111.5-330.4-144c-7.5-40.1,68.5-169.7-16-295.2c-17.2-25.6-15.2-59.7,5.1-82.9
		c9.1-10.3,18.7-19.9,27.3-25.3c133.5-84.1,116.2-182.3-8.4-245.3c-24-12.1-51.4-62.8-54.6-68.4c-13.1-23.3,102.5-103.1,69.5-274.2
		c-7.9-41,11.8-82.5,48.8-101.9c39.3-20.6,89.5-36.4,130.6-43.6c31.2-5.5,63.3,1.3,89.7,18.8c88.4,58.7,321.7,166.4,850.4,118.8
		c26.4-2.4,51.9,9.6,67.2,31.2c20.6,29,54.2,54.5,112.6,60.2C-1865.9,2877.5-1856.9,3003.5-1889.9,3009.5z"/>
</g>
<g id="Walls_Complete">
	<path fill="#FFFFFF" d="M-565.8,5945.6c-27.4-30.2-84-75.1-146.8-98.6c-71-26.7-120.9-80.6-128.4-195.2
		c-4.4-66.8-22-124.8-35.4-178.2c-28.4-113.1-8.7-203.8,72.9-266.5c47.7-36.7,98.7-70,150.8-116.3c43.3-38.5,98.6-62.7,173.3-52.6
		c101.6,13.7,190.6-15.3,224.5-13.5c0.6,0,1.1,0.1,1.4,0.1c14.8,0.4,18.9,11.2,18.9,26.1c0,15.2-4.5,28.9-19.7,28.9
		c-1,0-1.7,0-3.6-0.1c-11.4-0.6-31.5-1.4-57.6-1.1c-2.5,0-5.1,0.1-7.7,0.1c-2.5,0-5.1,0.1-7.7,0.2c-13.1,0.3-27.4,1-42.5,2
		c-2.2,0.2-4.1-3-6.4-2.8c-2.4,0.2-5.2,3.6-7.6,3.8c-118.9,9.7-283.9,44.8-372.5,159c-72.2,93-81.8,225.7-28.5,394.5
		c13.9,44.1,32.6,80.4,54.4,110.1c1.1,1.5-0.2,5.3,0.9,6.7c1.4,1.8,5.1,1.3,6.5,3c61.3,77.4,143.9,107,211.5,117.2
		c137.4,20.6,290.5-27.3,373.4-92.3c2.1-1.7-6-9.2-1.7-12.8c3.2-2.7,11.1,5.2,12.6,3.8c13.1-11.4,24-23.3,32.3-35.3
		c40.9-59.3,70.5-163.3,79.2-278.3c2.9-38.2,3.3-75,1.4-108.4c-0.2-2.6,2.4-5.2,2.3-7.8c-0.2-2.7-3.1-5.5-3.4-8.2
		c-1.8-22.5-4.8-43.2-8.7-61.4c-0.4-2.1,1.9-5.1,1.4-7.1c-0.5-2.2-3.9-3.4-4.4-5.5c-4.9-18.8-11-34.3-18.2-45.7
		c-8.1-12.8,1-23.7,13.8-31.8s24.6-10.4,32.7,2.4C14.6,5211,14.2,5254.2,33,5303c17.2,44.4,26.9,96.9,2.4,158.4
		c-21.5,54-28.2,113.4-28,165.9c0.2,64.8-9.5,117.1-60.7,139.5c-20.2,8.8-36.4,20.4-52.2,35.1c-1.5,1.4,6.9,10.9,3.7,14.1
		c-3.2,3.2-12.3-5.8-14-4.2c-25.3,25.5-49.1,57-83.4,92.7C-274.1,5982.7-524.6,5991-565.8,5945.6z M-254.2,5024.7
		C-254.2,5024.7-254.2,5024.7-254.2,5024.7c0.1,0,0.3,0,0.5,0C-253.9,5024.7-254,5024.7-254.2,5024.7z"/>
	<path fill="#FFFFFF" d="M614.8,3341.7c-0.8,0-1.7,0-2.5-0.1c-15.1-1.4-25.8-7.9-24.4-23c1.4-15.6,7.1-46.7,9.7-63.1
		c1.2-7.8,2.5-15.8,3.6-23.6c1.9-13.1,3.4-25.8,3.7-37c0.7-21.5-3.1-28.3-4.2-29.9c-0.4-0.5-0.9-2-3.9-1.7
		c-49.9,3.8-96.9,4.2-136-45.9c-25.2-32.4-59-53.8-72.5-89c-1.8-4.8-3.4-9.6-4.7-14.4c-0.5-2-11.4,0.4-12.3-4.3
		c-0.8-4.2,9.8-6.8,9.4-9.4c-8.2-50.8,12.1-101.1,41.4-147.7c18.8-29.8,42.7-57.1,105.9-59.4c24.4-0.9,50.5,13.5,77.5,7.7
		c25.9-5.6,52.5-5.7,80.6,10.2c7.1,4,16.3-1.7,19.5-9c8.6-19.4,20.6-40.6,37.2-58.5c6-6.5,38.9-28.6,69.8-24.8
		c18.2,2.2,40.8-12,46.2-15.8c58-40.5,152.5-29,204.9,91.2c3.4,7.8,13.9,13.9,21,8.9c88.1-61.6,178.7-32.3,192.1-1.1
		c13.5,31.5,27,49.9,60,57.5c35,8,48.2,113.3,34.9,143.4c-7,15.8-22.7,28.5-25.3,46.3c-4.9,33-45.8,51.5-54.9,52.8
		c-36,5.4-44,20.1-48.5,37.6c-7.7,30-48.2,41.1-54.3,46c-17.2,14.2-7.5,54,3.2,90.8c4.2,14.6-2.6,22.6-17.1,26.9
		c-14.6,4.2-31.4,3.1-35.7-11.5c-9.6-33.1-18-77.9-5.4-116.5c0.8-2.3,4-3.1,4.9-5.4c1-2.4-0.4-6.2,0.7-8.6
		c6.9-14,16.4-27.3,29.2-40.4c1.3-1.4,5-0.3,6.4-1.6c1.5-1.5,0.7-5.4,2.4-6.9c20.8-19,48.7-37.7,85.1-57.3
		c55.6-36.4,74.8-88.7,51.3-140.1c-27.3-59.6-108.7-104.2-211.7-74.2c-17.3,5.1-35.2,3.5-50.7-3.5c-2.1-1-2.5-4.4-4.6-5.6
		c-1.7-1-5,0.4-6.6-0.7c-9.9-6.8-18.2-16.1-23.8-27.4c-19.5-39.2-66.4-61.8-125.4-60.5c-63.7,1.4-120.8,30.6-138.7,71
		c-4.4,10-11.1,18.8-19.4,25.7c-1.8,1.5-4.9,0.5-6.8,1.8c-1.6,1.1-1.9,4.4-3.5,5.3c-1.7,1-3.5,1.9-5.3,2.7
		c-15.5,7.2-33,8.7-49.5,4.1c-87.7-24.3-162.4-11.3-205,35.5c-24.7,27.2-36.4,62.3-29.7,96.9c0.2,1.1,9.9-0.1,11,3
		c1.3,4-8.4,6.8-7.8,9.1c1.1,4.2,1.8,6,3.4,10.1c21,54.9,80.5,91.3,163.3,99.9c0.3,0,0.6,0.1,0.8,0.1c10.9,1.5,20.7,5.3,28.8,11.3
		c1.5,1.1,0.8,4.5,2.2,5.7c1.5,1.3,4.9,0.4,6.2,1.8c1.3,1.5,2.6,3,3.8,4.6c7.1,9.5,11.2,20.6,13.4,33.1c0.3,1.9-1.9,5-1.7,7
		c0.3,2.7,3.1,4.3,3.3,7.1c1.5,25.3-3.1,54.5-7.9,84.8c-2.6,16.2-8,45.7-9.2,59.4C641.3,3337.9,628.8,3341.7,614.8,3341.7z"/>
	<path fill="#FFFFFF" d="M-211.3,1767.5c-0.1,0.1-0.1,0.2-0.2,0.3c-16.7,21.3-18.3,51.6-35.4,74.1c-22.2,29.1-19.5,56.4-18.2,83.9
		c0.8,16.2-26.6,20.2-42.8,19.6c-42.7-1.6-83-1.8-119.2,6.6c-39.6,9.2-81.6,30.4-126.8,28.5c-37.4-1.6-75.5-3.5-123.1,28
		c-26.6,17.6-61.8,15.8-91.5,15.1c-64.1-1.5-123.9,0.1-179.4,27.9c-39.5,19.8-83.4,33.6-121.8,27.3c-73.4-12-103.9,27.2-144.8,52.4
		c-47,29.1-100.5,19.3-126,49.6c-18,21.4-40.9,1.6-53.2-4.9c-10.8,11-15,25.8-23,39.2c27.8,18.9,56.1,45,87.8,30.5
		c89.9-41,297.2-128,576.3-160.7c71.1-8.3,147.4-26.6,221.1-44.2c85-20.3,165.2-39.5,224.3-40.2c24.4-0.3,45.4-8.9,61.3-25.1
		c1.9-1.9,1.8-6.4,3.5-8.5c1.4-1.7,5.8-2.2,7.1-4c5.4-7.8,9.6-16.7,12.3-26.2c0.8-2.9-1.7-5.3-1.2-8.2c0.2-1.2,3.8-4,4.1-5.2
		c7.9-42.8,26.8-90.8,50.1-124.1C-184,1786.4-198.7,1781.3-211.3,1767.5z"/>
	<g>
		<path fill="#FFFFFF" d="M4432.7,2764.3c-74.3,8.6-86.8,43.6-109.6,80c-51.1,81.6-104.9,135.2-115.6,153.4c-1,1.7-2.1,3.6-3.2,5.6
			c-15.4,27.2-27.5,39.8-44.5,20.3c-12.3-14.2-33.4-30.9-62.3-27.5c-43,5.1-117.1-18.1-148.7-39.2c-28.6-19.1-58.7-52.8-184.7-44.7
			c-20.2,1.3-47.7,7.8-64.6-6.1c-15.5-12.7-35.8-18.4-59.9-16c-18.8,1.9-36.5-11.3-53.8-18.6c-25.6-10.9-32.8-34.9-106.2-24.3
			c-31.3,4.5-62.3,7.9-92.5,2.5c-55.5-10-111-13.4-164.4,4.6c-16.2,5.5-33.6-4.4-49.8-7.1c-12.3-2.1-21.4-3.3-28.1-3.9
			c-76.5-6.5-139.5,11.4-192.3,41.8c-47,27.1-99.5,28-135.4,58.6c-4.4,3.8-10.6,2.5-16.3,1.9c-13.2-1.4-25.7-27.9-27.7-31.1
			c-10.6,11.4-25.8,17.4-34.7,27c3.3,3.6,19,34.8,23.2,37.8c1.5,1.1,6.3-0.1,7.9,0.9c1.4,0.9,2.4,4.3,3.1,5.9c1.3,3.1,3.9,5.5,8,6.8
			c20.1,6.3,45.5,1.6,63.7-9c188.5-109.6,502.9-92.1,733.5-58c263.7,38.9,497.4,111.7,548.8,139.8c38.4,21,66.2,12.6,82.7,1.8
			c5.6-3.7,10.5-8,14.8-12.5c1.4-1.5,0.4-4.9,1.7-6.4c1.4-1.6,5-1.5,6.2-3.2c5.6-7.5,9.9-15.1,13.3-21.1c1-1.7,1.9-3.3,2.7-4.8
			c3.5-5.9,6.7-11.1,11-17.6c1.9-2.9-0.8-5.8,1.2-8.8c1.7-2.5,9-6.2,10.9-8.8c47-65.4,108.9-147.1,211.1-182.8
			c18.3,16.4,14.4-21.4,13.1-28.9c-3.3-18.3-18.5-44.5-24.9-16.7C4458.2,2759.9,4445.7,2762.8,4432.7,2764.3z"/>
		<path fill="#FFFFFF" d="M4420.5,3656.1c-56.9-29.8-103-64.9-132.2-100.2c-1.7-2.1-6-1.8-7.7-3.9c-1.3-1.7,0-5.8-1.2-7.6
			c-1-1.4-2-2.8-2.9-4.2c-8-11.7-18-22.7-29.9-31.4c-2.3-1.7-5.7,0.6-8.1-0.9c-1.7-1.1-2.5-6.1-4.3-7.1
			c-27.2-14.9-61.6-18.2-100.5,2.6c-77.9,41.9-293.8,132.2-553.1,174.2c-207.7,33.7-501.1,43.9-719.7-99
			c-23.1-15.1-50.7-20.1-77.7-14.1c-9.7,2.2-9.7,1.2-18,5.7c6.5,14.8,11,31,18.1,45.6c4.8-2.5,4.8-1.8,10-3
			c12.3-2.8,24.7-0.2,35.5,6.4c43.4,26.6,69.4,81.1,148.5,75.5c71.9-5.1,141.2,43.9,220.3,52.4c38.4,4.1,78.7-8.9,118.9-0.7
			c38.7,7.9,73.1,25.3,137.5-13.5c37.6-22.7,88.7-0.3,135.3-1.2c64-1.1,129.5-12.8,193.2-41.1c48-21.3,99.5-36.8,151.2-45.2
			c92.7-15.1,176.4-47.1,224-102.6c13-15.2,33-10.6,46.9-3.4c12,6.2,22.6,15.9,24.3,22.6c13,49.4,66.7,70.9,125.8,114.5
			c29,21.4,50.8,75.6,102.5,70.5c4.7-0.5,9.1-0.3,13.4,0.2c4.5,27.5,26.2-1.9,32.3-24c7-25,12.7-60-13.8-37.7
			C4467.1,3678.4,4446.3,3669.6,4420.5,3656.1z"/>
	</g>
	<g>
		<path fill="#FFFFFF" d="M7770.8,2098.4c-19.7-1.1-39.3-1.7-58.8-1.8c-104.8-0.9-201.5-17.3-291.2-16.1
			c-171.1,2.2-331.5,41-462.4,146.7c-98.8,79.8-206.3,138.4-301.3,191.8c-133.8,75.2-207.3,161.6-250.1,221.6
			c-36.3,50.9-103.8,69.5-166.2,68.3c-95.6-1.9-259.5,47.8-427.9-6c-50.8-16.3-109.5-16.3-173.9-2c-154.2,34.1-331.8,46.8-470.1-5.3
			c-98.6-37.2-194.4-24.6-275.4-3.6c-132.9,34.6-191.9-1.9-226.4-5.7c-34.5-3.8-72.1,9-109.6,29c-25.3,13.5-43.7,31.4-72.4,38.4
			c-13.7,3.3-16.5,48.2,7.5,42.8c16.5-3.7,31.4-6.8,49.6-9.4c21.3-3.1,176.9,2.1,245.1,0.6c18.9-0.4,35.7,11.8,41.1,29.9
			c16.1,53.7,47.8,150.6,48,153.6c0.7,16,32.1,9.2,29.6-12.8c-8-69.4-25.5-115-37-145.4c-4.9-12.9,4.5-26.6,18.3-26.7
			c54.8-0.4,171.9-1.3,227.7-1.5c37.3-0.2,68,25.4,79.7,60.9c17.5,52.6,30.2,99.6,42.5,127.4c6.7,15.1,34.7,6.8,27-16.9
			c-4.1-12.6-10-59.2-35.3-122c-9.7-24,11.7-49.5,37.6-49.5c76.5,0.2,215.7,0.7,260.1,0.9c14.2,0.1,26.8,9.2,31.3,22.8
			c15.3,46.5,49,139.7,50,144.5c5,24.5,30.1,5.3,29.7-5.9c-1.6-37.8-24.4-100-37.2-137.1c-4-11.6,4.7-23.6,17-23.5
			c61.3,0.8,215.8,2.8,267.1,3.6c20.1,0.3,37.8,13.3,44.1,32.4c13.6,41.3,36.4,102.9,43.5,134.5c5.1,22.8,30.7,15.4,30.6,3.9
			c-0.2-12.2-24.5-94.6-37.2-141.6c-3.7-13.9,6.9-27.4,21.3-27c67.7,1.8,237-2.5,313.6,1.3c26.6,1.3,52.1-11.4,70.7-30.4
			c113.5-115.9,555.6-533.9,1069.8-582.3c97.2-9.2,200.1-2.5,302.4,20.6C7748.5,2202.3,7777.1,2098.8,7770.8,2098.4z"/>
		<path fill="#FFFFFF" d="M7493.7,4282.6c-497.9-15.3-970.3-407.4-1106.1-529.9c-25.9-23.3-59.5-36.3-94.3-36.1
			c-68.9,0.4-194-4.3-265.2-4.1c-27.7,0.1-48.7-19.9-43.8-47.2c10.7-60.3,26.5-152.1,24.5-160.8c-4-17.1-22.2-32.3-34.5-13
			c-1.7,2.6-20.1,103.1-31.2,168.9c-4.8,28.5-29.5,49.3-58.3,49.3l-237.3-0.1c-21.3,0-37.1-19.7-32.5-40.4
			c11.8-53.3,30.8-136,30.8-165.6c0-23.3-25-44-35.4-8.9c-7.6,25.8-26.5,109.8-38.1,167.2c-5.6,27.7-30,47.6-58.2,47.4l-225-0.9
			c-29-0.1-50.6-26.8-44.7-55.2c11.7-56.2,28-129.4,27.3-144.2c-1-22.8-19-38.5-32-7c-1.7,4.1-24.7,105.6-38.5,167.2
			c-6.1,27.2-30.4,46.4-58.2,46.1l-183.9-1.7c-26-0.2-45.4-24.1-40.3-49.6c11.8-59,29.3-152.5,25.6-171.8
			c-2.6-13.2-21.2-24.6-30,16.5c-6.9,31.9-23.4,107-34.3,156.6c-6.1,27.5-30.7,46.9-58.9,46.4c-79.8-1.6-230.5,2.7-266.2-7.3
			c-20.2-5.2-37.8-10.9-54.1-13c-24.4-3.1-25.8,44-17.2,53.5c15.7,17.2,45.2,31.6,82.5,38c25.2,4,164.6-16.5,382.6,13
			c164,22.2,345.6,81.8,591.5,14.6c84.8-23.1,175.6-9.1,256.6,3.7c155.3,24.5,293.6,24.7,390.9-2.2c93.8-26,198.8,23.7,265.4,94.6
			c129.9,138.2,336.9,399.7,684.4,415.4c119.3,5.4,235.7,41.6,355,70.4c58,14,114.8,15.8,171.1,9.8c7-0.7-10.8-126.4-18.2-125.6
			C7594.8,4282.2,7543.9,4284.2,7493.7,4282.6z"/>
	</g>
	<path fill="#FFFFFF" d="M8274.9,4143.9c59.7-116.2,163.8-204,253.1-317.8c125-159.4,207.9-362.9,140.8-650.2
		c-31.5-134.6-27-264.6-73.1-378.6c-90.3-223-312.1-338-444.8-520.2c-93.6-128.4-227-167.4-361.1-177.6
		c-28.9-63.2-42.7,24.5-49.9,41.8c-16,38,1.7,120.4,31.9,66.4c373.5,90.8,720.8,399.5,753.1,968.1
		c39.7,697.8-404.6,1039.8-856.9,1098.1c-46.1-59.6-51.8,34-47.1,77.4c5,47,32,102,64.2,48.2c95.9-13.4,190.2-47.7,285.7-80.6
		C8077.7,4282.1,8191.7,4305.9,8274.9,4143.9z"/>
	<g>
		<path fill="#FFFFFF" d="M-1836.7,2961.5c1.9-17.9,0.4-37.5-4.3-55.5c-11.9-45.5-35.5-52-47.9-52c-0.1,0-0.1,0-0.2,0
			c-0.9-0.1-1.8-0.2-2.6-0.3c-1.7-0.2-3.5,2.2-5.1,2c-2.3-0.3-4.5-3.4-6.8-3.8c-33.6-6.3-58.7-21.6-76.3-46.4
			c-21-29.5-56.3-45.9-92.1-42.6c-3.3,0.3-6.5,0.6-9.8,0.9c-2.3,0.2-2.8,3.7-5.1,3.8c-2.3,0.2-6.4-2.9-8.7-2.7
			c-77.2,6.4-149.6,9.3-214.3,9.6c-3.9,0-2.8-16.6-10.1-15.3c-6.6,1.2-7.3,15.4-10.9,15.4c-251.5-1.4-408.6-44.4-502.8-87.2
			c-1.9-0.9-5,1-6.8,0.2c-1.6-0.7-1.8-4.2-3.3-4.9c-24.8-11.8-44.9-23.5-60.9-34.1c-32.4-21.5-71.4-29.7-109.7-23
			c-22.2,3.9-45.4,9.8-67.9,17.1c-2.5,0.8-3.9,4.1-6.3,4.9c-2,0.7-5-1.1-6.9-0.4c-20.6,7.3-40.3,15.7-57.5,24.8
			c-23.4,12.3-41.8,31.5-53.3,55.4c-8.7,18.3-12.8,38.1-11.9,58.1c0.1,2.6,4,4.5,4.3,7.1c0.2,2.3-3.1,5.2-2.8,7.5
			c0.2,1.1,0.4,2.3,0.6,3.4c22.8,118.4-22.4,185-49.4,224.7c-11.1,16.3-19,28.1-20.5,41.4c-1.7,15.8,6.3,34.7,23.6,56.2
			c3.3,4.1,9.3,11.2,17.2,18.6c1.4,1.3,7,1.3,8.5,2.6c1.8,1.6-0.5,4.5,1.5,6.1c5.8,4.7,12.2,9,18.9,12.4c4,2,8.2,3,12.4,3
			c10,0,38.2-48.7-14.5-76.1c-10.9-5.6-8.4-22.9-1.5-33.1c0-0.1,0.1-0.1,0.1-0.2c94.6-102.7,76.6-209.2,52.8-265.3
			c-11.7-27.6,19.3-82.7,68.4-75.5c44.7,6.5,65.3-21.7,98.6-43.5c20.7-13.5,57.2-6.8,69.7,14.6c72,123.1,226.6,142.4,273.3,130.4
			c40.8-10.5,88.7-12.5,131,3.9c29.3,11.4,86.1,26.3,133.5,4.2c16.4-7.6,38.9-11,61.1-11.4c4-0.1,3.8,15,10.3,16.4
			c7.6,1.6,7.5-16.1,10.4-16c16.9,1,32.2,3.5,42.7,6.9c84,27,100.6,14.2,203-16c15.8-4.7,32.6,6.1,42.3,19.7
			c28.8,40.5,69.4,74.3,124.8,80.9c7.3,1.1,12,9,5.8,20.2c-5.6,10.3-36.9,59.2-25.9,91.2c4.9,14.4,15.2,22.7,29.5,17.5
			c12.4-4.4,22.2-11.1,30.6-21.1c1.1-1.4-0.2-5.2,0.8-6.7c1.2-1.6,5.5-1.7,6.6-3.5c5.3-8.7,9.3-18.7,11.8-29.9
			c0.6-2.5-2.4-5.7-1.9-8.4C-1840.6,2965.4-1836.9,2963.7-1836.7,2961.5z"/>
		<path fill="#FFFFFF" d="M-1401.6,2165.9c0,0-15.3-19.2-28.1-29.6c-8-6.5-14-13.2-21.1-20.1c-7.1-6.8-15.2-20.5-37.1-27.6
			c-16.9-5.5-34.6-11.5-47.7-23.3c-21.7-19.6-49.6-28-85-22.9c-24.8,3.6-50.2-1.8-76.2-2c-27-0.2-54.9,3.1-79.6,14.4
			c-32.4,14.9-66.4,35.2-106.3,39.2c-39.4,3.9-64.1,24.2-89.6,46.1c-12.8,11-33.6,15.7-48.6,7.7c-41.6-22.3-81.5-27.2-119.9-21.7
			c-46.7,6.6-90.2-28.3-134.6-14.9c-27.5,8.3-70.9,3.6-108.4-0.4c-34.5-3.7-72.1-2.6-104.3,10.1c-35.8,14.1-75,15.5-112.5,20.6
			c-31.4,4.3-60.4,9.1-91,28.3c-26.4,16.6-58.6,20.8-88.7,28.1c-69.7,16.8-120.3,46.1-164.9,81.9c-17,13.7-55,41.3-113.3,55.3
			c-28,6.7-91.9,8.4-141.2,56.5c-36.4,35.5-96.8,56-129.9,52.9c-31.7-3-108.1-0.5-150.7,15.4c-45,16.8-74.5,34.7-109,27
			c-54.6-12.1-122.3,21.9-149.3,59.9c-33.8,47.7-87.5,74.5-113.9,122.3c-0.8,1.5-1.6,3-2.4,4.5c-1.6,3.1-15.6-1.8-18,2.9
			c-3,6,10.2,13.5,8.7,17.1c-19,47.2-19.1,93.2-22.1,134.7c-3.2,44.4,37.3,88.4,39.1,142.6c1,29.3,12.7,51.7,33,67.9
			c11.5,9.2,7.2,28.8,0.8,42.1c-6.6,13.7-6.8,23,7,29.5c11.3,5.4,22,4.5,29-3.7c1.5-1.7-1.3-4.8-0.2-7.2c0.6-1.3,5.7-2.7,6.3-4.1
			c8.6-20.6,9.7-42.4,4.2-63.8c-0.5-2.1-4.7-2.7-5.4-4.8c-0.7-2.1,2.1-5.7,1.3-7.7c-1.3-3.2-2.7-6.4-4.4-9.4
			c-60.8-115.7-73.7-214.6-36.2-298.8c1-2.2,13.8,2.1,15.8-3.4c2.1-5.7-7.9-11.1-7.6-13.2c0.1-1,0.4-1.3,0.7-1.9
			c31-59.2,84.7-94.8,132.4-114.7c3.5-1.4,2.6-4.6,6-5.9c3.2-1.2,5.4,1.3,8.6,0.2c18.9-6.4,39.3-10.5,53.4-12.2
			c51.7-6.4,104.3-17.3,154.1-29.9c5.3-1.3,1.5-5.7,6.8-7.1c4.4-1.2,11.2,2.3,15.5,1.1c90.8-24.8,180-57,245.1-80.8
			c117.5-43,221.6-91,263.7-116.2c1.4-0.8,2.8-1.7,4.2-2.5c2.3-1.4,4.9-8.6,7.2-9.9c2.3-1.3,5.7,2.3,8,0.9
			c97.7-56,193.4-91.7,288.7-115.3c1.9-0.5,5.8-4.7,7.7-5.1c2-0.5,4.7,2.1,6.8,1.6c102.7-24.3,200-32.8,288.7-32.8
			c66.3,0,126.2,4.8,179.2,11.8c2.4,0.3,8.2-3.1,10.6-2.8c2.5,0.3,3.2,4.7,5.7,5.1c28.1,4,52.9,8.4,75.9,13.1
			c29.7,6,60.5,1.1,86.6-13.7c33.6-19,62.7-33.2,93-45.3c1.4-0.6,4.1-4.1,6.1-4.7c1.5-0.5,5,0.3,6.5-0.2
			c147.9-56.4,255.2-34.4,333.7,13.8c1.5,0.9,5.5-0.2,7,0.7c1.5,1,2.3,5.2,3.8,6.2c27.7,18.3,70.4,61.2,70.4,61.2
			c-10.3,22.1,15.1,19.6,32.2-7.9C-1378,2173.3-1381,2151.3-1401.6,2165.9z"/>
		<path fill="#FFFFFF" d="M-1891.6,3224.6c0.4-11.6-0.2-28.2-2.9-43.2c-0.4-2-4.4-3.8-4.9-5.8c-0.6-2.5,2.5-5.1,1.8-7.4
			c-4.7-15.9-12.7-26.6-25.5-21.1c-75.2,32.5-35.7,129.9-35.1,165.5c0.2,12.8-4,24.6-13.1,24c-11-0.7-125-27-216,74
			c-11.9,13.3-37.2,13.2-50.9,1.4c-24.7-21.1-56.7-42.1-105.6-34.4c-29.6,4.7-62,10.2-93.5,0.8c-43.3-12.8-284.8,15.7-317.8,247.2
			c-6.1,42.4-21.4,85.7-46.1,123c-24,36.2-36,79.9-30.6,129.4c3.9,35.5-33.5,37.5-42.9,28.8c-18.9-17.4-49.5-44.9-87.8-44.7
			c-44.6,0.2-88.5-14.1-118-41c-44.8-40.8-80.7-28.4-101.1-25.9c-8.3,1-22-10-10.8-25.6c28.6-40,38.5-94.9,35.3-149.5
			c-0.1-2.2,14-3.8,14-10.2c0-10-15.3-6.7-15.6-9.7c-5.5-52.4-22.8-98.5-46.6-121.4c-13.3-12.8-11.9-38.8,3-49.4
			c12.9-9.2,33.9-33.2,23-54.3c-7-13.5-18.2-20.5-31-12.4c-9.3,5.9-19.4,14.9-30.8,27.5c-0.9,0.9-0.7,5.3-1.6,6.3
			c-1.9,2.2-4.7,1.1-6.4,3.4c-23.4,32.1-24.4,76-1.8,109.6c7.6,11.3,13.8,22.6,18.7,33.9c0.9,2,4.5,3.4,5.3,5.4
			c0.8,1.9-1.3,4.5-0.6,6.5c6.3,17.4,9.7,33.1,11.2,49.9c0.3,3-14.6,1.9-14.1,11.2c0.3,6,15.2,6,15.2,9.3
			c0.4,38.6-8.3,74.5-15.7,104.7c-6.6,27.3-11.4,47-8.2,64c3.2,17.1,18.2,31.9,51.6,50.9c22.4,12.7,52.5,27,89.5,42.4
			c68,28.4,150.2,56.8,209.4,72.3c7.5,2,15.1,2.9,22.7,2.9c17.7,0,35.2-5.3,50.2-15.4c5.1-3.5,9.8-7.4,14.1-11.8
			c2.2-2.2,0.3-7.8,2.2-10.3c1.6-2,7.1-0.9,8.5-3.1c7.3-11.2,11.8-21.8,13.5-35.3c0.2-1.5-2.2-6.3-2-7.7c0.3-2.2,3.4-3.3,3.8-5.5
			c1.4-10.1,3-20.2,4.9-30.2c0.3-1.7-2.1-4.4-1.7-6.1c0.5-2.4,3.6-3.9,4.1-6.3c13-65.3,34.1-126.7,62.2-180
			c32.3-61.3,72.8-111,117.3-143.7c82.9-60.9,236.1-99.5,323.3-57.6c22.3,10.7,47.2,13.5,70.8,8.5c2.9-0.6,3.6-4.1,6.4-5
			c1.8-0.5,5.9,1.7,7.7,1c5.8-2,11.4-4.6,16.8-7.6c49.5-27.7,97.8-37.1,136.6-44.6c32.7-6.3,61-11.8,81.6-26.5
			c18.5-13.2,32.7-37.3,42.3-71.4c6.3-22.5,9.3-44.1,10.8-60.9c0.2-1.9-2.5-4.6-2.4-6.3c0.1-1.8,3.2-4.2,3.3-5.8
			C-1891.8,3228.5-1891.7,3226.8-1891.6,3224.6z"/>
		<path fill="#FFFFFF" d="M-841.5,3789.6c-43.1,13.3-80.8,10-117.2,8.3c-38.3-1.8-75.3,13.6-101.4,42.2c-20.5,22.4-40.4,41-61,57.3
			c-1.7,1.4-3.1,8.4-5.1,9.1c-3.8,1.5-6.5-0.2-8.4,1.2c-130.8,97.1-258.7,80-350.8,45c-18.6-7.1-39-6.9-57.5,0.5
			c-12.2,4.9-22.8,12.6-31.1,22.5c-1.3,1.5-0.6,4.7-1.8,6.3c-1.1,1.5-4,1.4-5,3c-1.5,2.4-2.9,4.9-4.1,7.5
			c-87.4,181-319.6,184.8-345.8,184.6c-0.2,0-0.4,0-0.5,0c-7.3,0-14.4,0.9-21.2,2.6c-2.1,0.5-2.8,4.1-4.9,4.8
			c-2,0.7-5.3-1.7-7.3-0.9c-20.7,8.4-37.9,24.4-47.4,45.3c-9,19.9-18.2,39-27.4,57.4c-1.1,2.1,0.6,6-0.5,8.1
			c-1.2,2.3-5.1,2.8-6.2,5.1c-55.7,108.3-115,190.3-176.8,244.3c-62.4,54.5-127.5,80.4-193.5,76.9c-103.6-5.5-191.2-80.8-246.4-143
			c-70.8-79.7-119-171.4-142.6-235.7c-0.9-2.4-5.5-4.6-5.5-7.6c0-2.3,0.8-5.8,0.1-7.9c-1.4-4.2-2.4-6.4-4.3-10.3
			c-1.3-2.8-6.7-3.2-7.6-6.3c-0.7-2.3,0.7-5.9-0.8-7.9c-2.4-3.3-5-6.5-7.8-9.6c-9-9.8-20.1-19.6-32.9-29.4c-2.4-1.8-5.6,1.1-8.1-0.8
			c-2.1-1.6-3.6-7.9-5.8-9.5c-69-48.6-175.2-95.5-260.9-129.2c-32.7-12.9-66.5-25.4-99.6-36.9c-2.5-0.9-5.8,1.6-8.3,0.8
			c-2.1-0.7-3.4-4.8-5.5-5.6c-80.5-27.7-154.7-49-194-55.1c-13.3-2.1-26.7,0.2-39.7,6.7c-38.8,18.8-73.4,26.1-104.2,25.6
			c-2.2,0-5.3,2.8-7.4,2.7c-2.2-0.1-3.3-3.2-5.4-3.4c-59.7-5.4-103.8-40.6-133.7-76.4c-36.6-43.8-63.5-103.2-75.7-165.8
			c-0.4-1.9-3.9-2.9-4.3-4.8c-0.3-1.9,2.5-4.9,2.2-6.9c-0.6-4-1.2-7.9-1.8-11.9c-9.2-69.5,1.6-131.4,29.6-169.6
			c14.4-19.7,18-45.5,9.8-68.2c-0.4-1.2-6.3-0.2-7.2-2.8c-0.9-2.5,2.6-5.9,1-7.5c-7.7-7.8-20.6-6.2-32.2-1.2
			c-14,6-19.6,15.6-13.6,29.6c2.5,5.8,2.3,12.9-2.2,17.6c-27.4,29.1-43.9,60.9-38.5,96.3c5.3,35.1-5.1,72.9-1.2,113
			c2.5,26,1.3,67.5,17.6,97c19.7,35.8,41.9,62.3,55.3,99.2c15.8,43.6,75.3,108.3,105.5,120.9c36,15,132,30,179.7-21.2
			c26.1-28.1,87.4-11.3,116.1,19.1c68.3,72.2,190.6,80,239.6,75.6c54.6-5,106.4,32.1,142.9,57.8c6.5,4.6,38.8,48.5,82.9,59
			c28.4,6.8,65.1,8.7,68.9,38.6c9.1,71.3,27.7,100.3,60.9,132.3c40.8,39.4,79.2,86,97.6,136.2c17.6,48.1,62.1,94.1,119.7,104.6
			c31.3,5.7,76.4,27.9,118.3,51c100.7,55.3,306.7-22.1,334.9-119c8.5-29,48.1-134,110.5-174.4c47.3-30.7,57.3-85.5,53.5-114.5
			c-4.1-31.5,18.4-37.7,31.6-37.7c0.1,0,0.1,0,0.2,0c33.9,0.7,132.7,26.1,205.2-31.3c35-27.7,73.4-45.7,109-65.6
			c46.4-25.8,77.7-58.3,85.7-110.9c1.9-12.6,21.1-20.8,30.4-12.2c112.3,105,305.9,81.8,350.3-1.4c21.5-40.4,50.3-63.9,89.4-73
			c21.8-5,34.9-33.1,42-64.5c4.9-21.8,39-34.8,58.3-24.4c48.5,26.3,96.1,27.5,141.7,11.9C-828.4,3837.6-839.2,3795.6-841.5,3789.6z"
			/>
	</g>
	<g>
		<path fill="#FFFFFF" d="M-671.7,3229.9c0,0,21.3,41,28.1,58.6c0.7,1.8,5.2,3.7,5.8,5.6c1,3.4-1.2,6.9-0.5,8.8
			c12.3,35.5,17.2,68.2,21,99.8c1.2,10.2,3.9,20,8,29.2c0.9,2,4.6,4,5.6,6c1.1,2.1,0,5.1,1.3,7.2c9.9,16.2,21.3,27.4,38.6,35.9
			c1.6,0.8,7,0.1,8.6,0.8c1.7,0.7,3.2,4.6,4.9,5.4c36.8,16.6,70.8,41.7,103.7,76.1c1.4,1.5,5,1.1,6.4,2.6c1.2,1.3,0.2,4.5,1.4,5.8
			c1.2,1.4,2.5,2.7,3.7,4.1c18,20.3,45.5,28.8,71.5,23c2.1-0.5,2.6-4.5,4.7-5.1c2-0.6,5.6,2.1,7.5,1.3
			c32.8-13.5,61.6-21.3,88.7-25.2c2-0.3,3.8-3.7,5.7-3.9c2.2-0.3,5.7,2.5,7.9,2.2c110.5-11.1,172.9,47.7,206.6,79.5l2.4,2.2
			c15.5,14.6,35.7,22.4,56.9,22c158.2-2.9,199,55.2,228.7,97.6c6.5,9.2,12.6,18,19.5,25.6c1.2,1.4,5.6,1.1,6.8,2.4
			c1.4,1.4,1.2,5.5,3.2,7.1c10.5,8.3,29.2,17.5,74.6,24.7c30.8,4.9,68.6,7.6,107,7.6c1.8,0,3.6,0,5.3,0c8.1-0.1,14.4-0.2,22.2-0.4
			c1.7-0.1,5.1-3.9,6.7-3.9c1.8-0.1,4.5,3.5,6.2,3.4c24.8-1.2,46.8-3.6,66.6-7.1c24.5-4.3,43.1-9.9,56.8-17.2c1.5-0.8,1.6-4.8,3-5.7
			c1.8-1.1,4.8,1,6.4-0.1c3-2.2,5.7-4.5,8.1-7c1.3-1.4,2.7-3.1,4.1-5c1.1-1.5-0.5-5.6,0.6-7.4c1-1.6,4.7-0.9,5.6-2.7
			c7.4-14,12.3-31.8,3.7-37.8c-30.5-21.3-68.2,2-111.2,39c-21.1,18.1-72.5,3.7-87-3c-32.1-14.9-116-13.2-123.7-11.7
			c-17.5,3.4-36.8-5.2-41.6-28.6c-9.4-18.5-7.1-33.4-36.8-48.4c-15-7.7-28.2-20.9-42.6-35.9c-17.2-17.8-87.3-70.3-169-38.3
			c-23,9-36.7,3.1-44.6-15.6c-24.1-57.4-175.8-152.4-368.8-48.7c-7.2,3.9-17.2,1.8-21.7-4.9c-36.4-54.5-78.5-105.3-146.3-111.1
			c-16.4-1.4-25.7-20.8-27.7-37.4c-6.3-53.2-12.7-127.4-53.9-192.9c3.5-5.2,16.6-32.5-34.3-9.1
			C-710.9,3223.4-676.7,3230.6-671.7,3229.9z"/>
		<path fill="#FFFFFF" d="M2734.5,3591c-1.3,1.2-0.7,5.2-1.9,6.5c-1.2,1.3-5,0.9-6.1,2.3c-2.9,3.5-5.1,6.7-7.5,10.7
			c-21.4,34.8-44,66-67.5,93.9c-1.4,1.6-0.4,4.7-1.8,6.4c-1.1,1.3-4.6,1.2-5.7,2.4c-226.3,259.5-535.4,223.7-675.7,207.5
			c-25.4-2.9-45.1-5.2-60.3-5.5c-2.1,0-4.8,2.4-6.7,2.5c-2.2,0-3.5-2.3-5.5-2.2c-2.9,0.2-5.5,0.6-8,1c-23.6,4.6-46.9,12.1-67.9,20.4
			c-2.2,0.9-4.1,4.6-6.2,5.5c-2.1,0.9-4.6-1.1-6.6-0.2c-14.8,6.3-28.2,12.9-39.3,18.7c-16.8,8.8-31.2,20.9-42.5,35.3
			c-1.9,2.5,1.1,3.7-0.6,6.3c-1.5,2.2-7.8,5.7-9.1,8c-6.8,11.6-11.8,24.2-14.8,37.6c-18.6,84.2-69,139.8-149.6,165.3
			c-44.3,14-79.4,46.5-96.3,89.1c-31.7,79.9-92.1,138.1-165.6,180.4c-1.8,1-3.1,5.5-4.9,6.5c-1.8,1-5-0.9-6.8,0.1
			c-88.6,48.4-193.8,74.5-290.6,88.6c-3.9,0.6-7.4-15.4-13.6-14.5c-5,0.8-5.2,17.1-8.8,17.6c-6.7,0.9-13.3,1.7-19.9,2.4
			c-43,5-84.2,8-126.1,9.5c-2,0.1-5.6,3.7-7.6,3.7c-1.7,0.1-5.3-3.3-7-3.2c-192,5.7-361.5-20.8-442.8-44.5
			c-43-12.6-89.9-1-122.4,30.3c-68,65.5-137.5,73.2-190,73.1c-2.1,0-4.2,2.9-6.2,2.9c-1.8,0-4.6-3-6.3-3c-4.7-0.1-8.2-0.2-12.6-0.3
			c-8.3-0.2-16.1-0.5-23.3-0.4c-1.8,0-4.3,3.5-6,3.6c-2.5,0.1-4.1-3.3-6.4-3.1c-11.1,0.9-20.8,3.1-29.2,7.9
			c-12.3,7.1-14.2,21.7-4.1,31.6c27.8,27.3,98.3,30.8,147.2,9.1c17.1-7.6,36.8-12.5,58.1-17.1c42.6-9.2,92.2-22,117.2-77
			c10.5-23.1,49.5-33.3,68.8-17.1c41.7,35,163.7,74,266,43.4c28.1-8.4,117.7,3,141.3,16.2c59.5,33.3,130.2,19.8,197.5-10.8
			c7.4-3.4,13.6-5.7,21.6-7.9c4-1.1,9.3,17,15.5,14.3c6.2-2.7,1.6-18.5,5.2-19.1c84.4-14,193.1,10.5,265.5-56
			c62.7-57.6,147.6-83.8,198.6-150.2c21.6-28.1,18.9-80.2,53.7-94.4c33.4-13.6,45.3-40.8,61.7-57c29-28.5,68.4-35.5,99.4-54.9
			c50.9-32,71.2-89.8,73.9-160.9c0.9-22.2,16.8-54.5,38.8-50.4c49.9,9.3,99.1-35.3,108.6-38.2c18.7-5.8,43.5-4.7,68.6,11.7
			c34.5,22.6,86.4,35.7,143.7,27.3c67.4-9.8,138-34.8,221-22c62.1,9.6,133.3-18.7,185-50c64.8-39.2,99.3-119.9,173-150
			c42.1-17.2,63.4-86,79.3-146.6c1.9-7.1,7.3-12.1,14-15.6c25,19.2,13-23.6,9.5-30.3c-4-7.7-29-46-31.3-13.3
			C2748.3,3579.1,2741,3584.5,2734.5,3591z"/>
		<path fill="#FFFFFF" d="M2744.4,2855.8c-9.8-31-20.7-66.9-67-81.9c-82.6-26.8-142.5-87.6-214.7-132.5
			c-45.6-28.3-88.2-36.3-128.5-26.8c-46.7,11-98.7,16.4-148.5,3c-39.1-10.5-73.6-4.9-106.9,7.8c-23.5,9-60.3,14.6-87.1,15.3
			c-32.4,0.9-58.8,15.2-76.7,43c-20.5,31.8-74.9,49.3-104.3,51c-52,3-92.7,43-106.8,83.6c-19.2,55.3-99.4,69.1-143.3,105.3
			c-37.6,31-55.7,67.5-68.9,106.1c-16.2,47.2-6.7,112.9-33.5,155.7c-15.3,24.4-20.7,51.2-16.5,80.3c5,34.6,9.8,70.2,9.8,105.2
			c0,3.3-14.5,2-15.2,7.6c-0.7,6.3,14.8,8.8,14.6,12.1c-1.2,20.9-4.4,41.4-10.7,61.2c-15.9,50.2,18.3,95.2,41.2,150.9
			c12.3,30,14.4,67.9,43.9,86c21.9,13.5,14.8,44.5-2.6,33c-17.8-11.7-153.3-14.8-210.7,12.6c-19.2,9.2-42.2,6.4-55.2-2.3
			c-61.1-41.2-105.6-15.6-114.7-4.4c-9.6,11.8-7.8,29.1,4,38.7c2.1,1.7,5.7,0.4,8.8,2c1.8,0.9,2.6,4.7,4.9,5.5
			c10,3.7,25.3,6.9,50.9,9.6c10.9,1.2,23,2.2,36.8,3.1c1.5,0.1,3.3-3,5.9-2.8c2.2,0.1,3.4,3.4,5.6,3.5c13.7,0.8,28.4,1.4,44,1.9
			c63.7,2,133.6,1.3,155.8-1.5c22-2.8,45.3-8.2,65.8-15.2c2.5-0.9,4.3-5.9,6.7-7c2.4-1.1,7.5,0.5,9.8-0.8
			c16.3-9.4,26.7-23.1,33.2-41.3c8.3-23.2,5.6-48.6-7.5-69.5c-0.9-1.5-1.7-2.7-2.6-4.2c-0.9-1.5-4.8-0.8-5.7-2.4
			c-1.2-2.1,0.3-6.7-0.9-8.8c-11.6-20.5-21.8-42-30.5-64.4c-0.7-1.8-4.1-2.6-4.8-4.4c-1-2.6,0.9-6.2-0.1-8.8
			c-19.2-53.5-30.1-111.6-32.4-171.2c-0.1-3.2,13.8-4.3,13.8-11.1c0-5.3-14.2-4.6-14.3-7.6c-0.5-56.7,6.7-114.6,21.9-171.2
			c33.1-122.8,118.5-293.7,337.8-410.1c226.3-120.2,426.9-152.5,596.1-96c124.7,41.6,214.4,128,265.9,208.5c0.9,1.4,3.6,1.5,4.5,2.9
			c1,1.6,0.1,4.4,1,5.9c8.3,13.7,10.5,21.4,10.5,21.4c-20.6,24.8,15.4,20.6,36.4,3.8c32.5-26,16.5-35.5,5.2-31.8
			C2758.3,2887.7,2754.4,2887.4,2744.4,2855.8z"/>
		<path fill="#FFFFFF" d="M-213.2,4386.2c-0.2-2.1-3-3.3-3.3-5.4c-0.3-2.1,1.9-5,1.5-7.1c-0.6-3-1.2-6-2-8.9
			c-24.5-98.4-18.3-168.8-15-206.6c0.7-8.2,1.3-14.8,1.4-20.2c0.5-19.6-10.7-34.2-29.5-37.8c-2.1-0.4-4.3,2.5-6.6,2.2
			c-1.7-0.2-3.3-3.4-5.4-3.4c-92.1-2.7-153.8-73.9-192.1-141.9c-1.1-2-6.1-2.6-7.2-4.7c-1-1.9,1.8-5.1,0.8-7
			c-12.7-24.3-21.9-47.6-27.6-66.6c-1.9-6.2-4.5-12.1-7.7-17.5c-1.2-2-6.1-1.5-7.5-3.4c-1-1.4,0.2-6.8-0.9-8.1
			c-9.7-11.5-21.4-18.5-36.4-22.7c-2.6-0.7-5.2-1.5-7.9-2.4c-2.1-0.7-5.7,2.9-7.8,2.1c-1.8-0.7-2.1-5.7-4-6.5
			c-36.8-14.8-79.1-42.4-105.1-69.5c-19.8-20.6-50.5-24.9-74.9-11.6c-1.7,0.9-1.3,4.4-3,5.5c-1.2,0.8-5.9,0.3-7,1.2
			c-24.9,19.4-50.7,31.9-76.4,39.8c-4.6-7.9-26.6-17.9-10.8,38.6c9.7,34.9,32.3,49.8,31.5,25.8c43.6-14.9,78.6-43.1,91.2-73.2
			c2.5-5.9,13.8-9.8,19.8,2.2c20.7,52.3,84.7,75.1,116.2,80.8c16,2.9,47,42,52.5,64.5c9.5,39,71.7,192.3,234.6,220.3
			c11.3,1.9,19.2,12.2,18.4,23.7c-1.9,26.5-9,60,7.5,112c11.6,36.4,19.7,68.2,5.4,97.4c-9.6,19.6,2.6,136.9,28.8,150.3
			c14.5,7.4,31.1-7.6,34.5-22.4c1.6-6.7-6.8-77.8-6.1-84.6c0.2-2.2-2.5-3.9-2.4-6.1c0.1-2.1,3.2-4.7,3.2-6.8
			C-212.1,4401-212.4,4393.6-213.2,4386.2z"/>
		<path fill="#FFFFFF" d="M1127.3,2031.4c-2.5-30-2.4-59.3-8-88.3c-4.6-24-1.1-56.4-36.4-81.3c-30-21.2-48.7-56.4-83.3-79.4
			c-29.7-19.7-85.2-16.9-100.8-54.6c-3.5-8.4-11.5-15.9-19.2-22.4c-17.1-14.6-17.3-42.3-23.4-64.4c-9.8-35.6-22.8-72.3-61.8-92.9
			c-41.4-21.9-76.1-48.1-115.5-64.9c-2-0.9,0.8-9-3-10.4c-3.3-1.1-7.3,6.4-9.6,5.6c-6.7-2.4-14.7-5.1-21.7-6.9
			c-52.8-12.9-111.7-23.1-153.2,21.4c-20,21.4-43.1,41.9-72.6,55.4c-34.1,15.6-52.2,45.4-64.4,80.5c-3.3,9.6-16.9,11.5-26.6,7.8
			c-26.5-10.1-60.9-33.9-98-26.5c-37.5,7.5-69.2-3.5-102-5.7c-67.6-4.6-158.4,4.5-217.4,75.5c-30,36-80.1,34.9-121.7,87.7
			c-7.2,11.1,30.2,49.4,41.1,31.5c25.2-36,56-56.5,98.8-80.9c107-61.1,253.3-72.4,344.8-50c1.7,0.4,4.6-1.9,6.2-1.4
			c2,0.5,2.7,3.8,4.7,4.3c6.1,1.8,11.9,3.7,17.4,5.8c31.1,11.8,66.3,2.5,87.4-22.7c1.1-1.3,0.5-4.9,1.5-6.4c1.4-1.9,4.5-1.7,6-3.6
			c68.1-90.8,152.7-132.7,239-118.3c6.7,1.1,11.9,2.2,18.5,4c2.1,0.6-1.1,9.6,2.9,10.9c4.3,1.3,7.9-8,10.1-7.2
			c31.7,10.7,63.2,29.7,89.7,54.7c35.7,33.7,62.4,77.1,77.2,125.4c4.2,13.7,11.4,26.1,20.9,36.2c1.4,1.5,5.4,0.4,6.9,1.7
			c1.6,1.5,0.7,5.5,2.4,6.9c5.6,4.5,11.8,8.4,18.5,11.4c130.2,60.2,197.6,151.7,189.9,257.6c-7.5,103.1-89.6,209.5-182.9,237.1
			c-11.3,3.3-21.6,8.9-30.5,16.2c-1.7,1.4-1.6,6.1-3.1,7.6c-1.7,1.6-5-0.1-6.5,1.6c-7.9,8.7-14,19.1-17.9,30.6
			c-44.2,129.4-126.8,171.4-188.3,183.9c-91.6,18.6-181.2-18.2-222.4-64.2c-2.9-3.3-6.1-6.2-9.5-8.9c-1.8-1.4-4.9,0.1-6.8-1.1
			c-1.4-0.9-1.6-4.5-3.1-5.3c-10.7-5.8-22.8-8.6-34.9-8.3c-2.8,0.1-5.6,4.1-8.4,4.6c-2.3,0.3-4.7-3-7-2.4c-4.1,1-8.1,2.4-12,4.2
			c-81.8,37.1-175.8,73.6-256.8,37.7c-0.9-0.4-2.5,1.7-6.1,1.5c-3.8-0.3-4.8-5.8-8.4-6.8c-11.8-3.1-22.9-2.3-34.6,1.7
			c-1.2,0.4-2.4,0.9-3.6,1.3c-1.7,0.7-2.6,4.1-4.2,4.9c-1.8,0.9-4.2-0.7-5.9,0.4c-9.1,5.9-16.6,14.2-21.6,24.2
			c-149.6,298.7-496.3,536.1-638.4,624.4c-20.6,12.8-34.9,32.9-40.4,56.6c-4.8,20.9-2,35.5,7.6,54.3c16.3-7.8,30.7-12.3,46.8-21.8
			c-4.7-8.6-8.5-19-6.7-27c2.1-9.3,7.3-18,15.8-22.2c56.6-27.9,154.6-47.9,229.9-161.3c30.6-46.2,83.2-79.6,133.8-113.7
			c55.8-37.5,119.6-59.8,148.9-154.2c10.2-32.8,39.8-56.2,63.4-80.8c37.4-39.1,74.6-76.6,85.3-139.4c0.6-3.7,6.5-5.8,9.4-3.1
			c26.7,24.9,56.9,30.9,91,18.2c22-8.2,48.1,2.5,74,5.9c57.1,7.6,106.6-15,143.6-56.6c4.5-5,14.2-1.9,17.9,3.9
			c24.9,38.4,58.6,120.5,124.2,105.6c52-11.8,103.9,2.5,155.3,8.5c53.3,6.3,98.2-26.2,127.9-93.7c22.9-52.1,70.5-95.6,92.2-159.1
			c3.5-10.2,11.6-18.1,21.6-21c33.8-10,61-49.9,99.9-48.8c26.6,0.8,39.2-23.2,53.1-50.7c13.2-25.9,27.7-50.7,45-72.9
			C1118.7,2113.5,1131.3,2080.6,1127.3,2031.4z"/>
	</g>
</g>
</svg>
