<?xml version="1.0" encoding="utf-8"?>
<!-- Generator: Adobe Illustrator 18.0.0, SVG Export Plug-In . SVG Version: 6.00 Build 0)  -->
<!DOCTYPE svg PUBLIC "-//W3C//DTD SVG 1.1//EN" "http://www.w3.org/Graphics/SVG/1.1/DTD/svg11.dtd">
<svg version="1.1" xmlns="http://www.w3.org/2000/svg" xmlns:xlink="http://www.w3.org/1999/xlink" x="0px" y="0px"
	 viewBox="0 0 4096 4096" enable-background="new 0 0 4096 4096" xml:space="preserve">
<g id="Floors_Complete">
	<path fill="#00AEEF" d="M3640.9,3676.4C3513.5,3809,3277,3713,3145,3669s-468-232-568-432s-122.7-335.3-128-348s-11-30-32-32
		c-117.9-11.2-153.3-98.4-163.8-156.3c-5.5-30.3-27.8-54.6-57.3-63.2c-115.8-33.5-202.3-115.4-262.8-197.8
		c-15.4-20.9-37.5-35.7-62.7-41.9c-227.4-55.9-476.7-346.2-546.8-499c-12.2-26.7-41.6-41-70.1-34.1
		c-465.9,112.8-610.8-406.5-436.6-652.1c23.9-33.7,15.5-80.4-18.9-103.2C619.9,991,565.3,859.4,567.7,755
		c10-439.4,352.9-447.8,432.2-450.4c304.3-9.9,416.2,212,432.2,411.2S1313,981,1285,1049c-13.9,33.7,32.2,37,84.8,47.7
		C1615,1147,1639,1371,1521,1545c-22.3,32.9-35,101,9.9,107c108.9,14.6,376.8,84.8,557.7,433.6c10,19.3,29.2,32.2,50.8,34.4
		c315.6,31.5,461.2,186.2,502.6,252.2c7.7,12.2,19.7,21.1,33.8,24.5c46.2,11.1,96,45.1,131.8,97.2c43.7,63.6,108,219.1,88.6,436.3
		c-3,33.6,18.3,64.6,50.6,74.1C3335.4,3119.5,3811.9,3498.5,3640.9,3676.4z"/>
	<path fill="#00AEEF" d="M4327.3-3802.1c-220.3-42.2-393.4,62.1-496.3,247.2c-12.7,22.8-45.8,21.6-57.1-2
		c-68.4-143.3-278.9-350.4-560.9-338.2c-92.8,4-249.6,64.7-396,271.4c-30.9,43.6-87.1,61.1-137.3,42.8
		c-127.3-46.3-370-98.1-754.6-44.7c-32.2,4.5-64.9-4.2-90.8-23.9c-44.3-33.9-106.3-69.2-182.7-102.6
		c-132.5-57.9-392.3-120.1-419.5-121.5s-95.6,272.6-11.6,310.6c127,98.9,491.5,349.6,499.4,351c13,2,25,15,29,28
		c22,72-131.2,260.3-132.4,263c-54.2,119.8-112.1,321.1-74,476c16.3,66.3,103.5,126,241.9,146.5c144.9,21.5,260.5-0.6,330.3-78.4
		c119.3-133,172-342.8,184.4-488.7c5.4-63.2,55.8-113,119-118.2c121.6-10,258.6-35,350-70.8c33.5-13.1,71.7-4.3,95.7,22.5
		c71.3,79.5,193.2,173.5,314.4,193.4c21.1,3.5,37.7,19.8,41.9,40.7c17.2,85.6,100.8,168.4,190.6,212.6
		c27.9,13.7,49.8,37.4,61.7,66.2c24.6,59.4,71.4,129.1,204.3,145.7c188.2,23.6,309.5-65.4,323.9-292.1c0.3-4.9,3-9.4,7.2-12
		c24.5-14.8,109.9-71.6,166.6-175.4c3.7-6.7,11.7-9.7,18.8-6.8c132.2,54,540.3-101.2,552.2-414.1
		C4757.6-3597,4574.1-3754.8,4327.3-3802.1z M3915.8-2935.5c-15.7,14.3-35.2,33.4-56.2,56.8c-11.9,13.3-30.6,18.1-47.5,12.4
		c-81.3-27.5-174.9-2.8-232.5,31.8c-13,7.8-29.7,5.6-40.2-5.2c-4.6-4.7-9.1-8.9-13.3-12.6c-10.6-9.2-8.6-26.1,3.9-32.6
		c132.1-69.2,201.8-188.9,233.4-260.1c10.7-24.1,54.7-31.9,58.9-5.9c7.8,48.2,51.3,123.1,101.4,142.4
		C3949.6-2998.4,3936.4-2954.4,3915.8-2935.5z"/>
	<g>
		<path fill="#00AEEF" d="M968.2-3907.3C548.6-3928.8,169-3910.6-539-3383c-257.5,257.1-252.6,1577.1,92.1,1904.9
			c29.2,27.8,21.5,76.2-15.2,93c-0.9,0.4-1.8,0.8-2.7,1.3c-33.5,15.4-73.2,3.8-93.2-27.1c-64.9-100.1-240.3-164.4-360-142.9
			c-142.6,25.6-290.2,160.4-290.2,349.4s159.8,342,392.2,346.4c104.9,2,253.5-101.8,290.3-200.6c8.6-23.1,28-40.5,52.1-46.1
			c26.5-6.1,62.3-16.2,99.1-31.9c39.7-16.9,85.2-13.3,121.7,9.7C-123.7-1045.5,119.4-959,240.1-955c54.9-8,112.9-64,121.9-123
			c1-1,9-214,18-295c5-46,42-361,42-363c0-7,12.6-54.3,15.5-64c-27.7,3.2-54.4,6.7-80,10.6c-5.7,0.9-11.5-1.6-14.7-6.4
			c-61-91.1-206.9-78.8-248.1,14.6c-17.9,40.5-78.1,29.7-80.1-14.6c-0.5-10.2,0.2-21.9,2.4-35.3c58.7-366.2,42.6-734.5,1.3-1017.1
			C-7-2951-146-3111-141-3143s91-4,91-4l32.8-7.7c102.3-18.6,333.2-97.4,504.4-195.1c7.3-4.2,16.5-1.5,20.6,5.9
			c48.8,87.3,263.3,104.4,241.4-115c-0.7-7.4,4-14.2,11.2-16.1c45.5-11.5,128.4-56.8,248.3-85.1
			C1065.2-3573.5,1070.1-3895.5,968.2-3907.3z"/>
		<path fill="#00AEEF" d="M1274.5-1751.9c-67.9-16.1-135.5-28.7-202.1-38.3C1056.3-1775.8,958-1698,928-1675c-6,5-171,186-177,284
			c-8,98,17,178,15,231c-7,57-151.1,175.6-181,214c-79.6,102.3,7.3,230.4,7,231.6c144.6-49.3,475.9-53.2,693-19.1
			c2.1,0.3,94.1-114.8,177-219.3c1-4.7,4.2-8.6,8.5-10.5c97.5-43,421.8-97.7,442.9-350.6C1935-1573.4,1621.8-1669.6,1274.5-1751.9z"
			/>
	</g>
	<path fill="#00AEEF" d="M5284.7-3233.6c0-312.3,904.4-308.2,1300.1-204.9c91.9,24,189.7-7,250.2-80.3
		c470.9-570.2,1324.2-346.8,1419.1,27.2c94.9,374.1-688.4,748.2-1189.1,570.9c-70.8-25.1-148.4-22.7-217.5,6.7
		C6256.8-2663,5284.7-2890.2,5284.7-3233.6z"/>
	<path fill="#FFFFFF" d="M1532.6-2497.8c1.1,6.2-0.8,12.5-5.1,17c-68.8,74.1-166.1,113.9-275.6,113.9
		c-214.9,0-389.1-174.2-389.1-389.1c0-214.9,174.2-389.1,389.1-389.1c161.6,0,315.2,85,356.6,230.6c1.3,4.6,0.9,9.4-1.1,13.7
		C1560.1-2799.3,1517.3-2588.1,1532.6-2497.8z"/>
</g>
<g id="Walls_Complete">
	<g>
		<path fill="#FFFFFF" d="M2882.4,3492.5c-90.4-62-209.1-157.8-261.3-262.2c-81.1-162.2-110-293.7-120.9-338
			c-3-12.1-4.3-17.6-6.2-22.1c-0.3-0.8-0.7-1.6-1-2.4c-3.1-7.4-7.3-17.6-15.1-27c-10.8-13-25.6-20.7-42.8-22.3
			c-75.2-7.1-120.6-50.8-134.9-129.7c-3.8-20.8-13.3-40.1-27.6-55.8c-14.2-15.6-32.4-26.9-52.7-32.8
			c-92-26.6-174.6-89.1-245.6-185.8c-19.8-27-48.6-46.3-81.1-54.2c-206.3-50.7-452.6-323-525-480.9c-18.7-40.7-63.8-62.7-107.3-52.1
			c-170.4,41.2-310.8-4.7-395.4-129.5c-93.7-138.3-96.8-345.7-7-472.2c16.8-23.6,71.8-63.1,66.6-91.5c-5.2-28.2-70-41.7-94-57.6
			C639.6,948.9,613.6,816.9,615.1,749.6c3.5-156,19.9-288.4,188.4-400.8c14.9-10-45.5-0.1-63.4,0.1
			c-150.5,1.4-211.6-107.4-240-162.2c-21-40.5-49-160.9-11.2-238.7l-77.5-44.9c-11.6,20.8-14.3,29.2-22.2,51.7
			c-27.8,79.1-30,163.2-6.2,236.7c21.5,66.4,63.4,121.8,121,160.2c17.1,11.4,35.3,21.2,54.8,29.5c46,19.6,66.2,73.5,44.5,118.5
			c-0.7,1.5-1.4,2.9-2.1,4.4c-31.8,67.9-49,150-51.2,244c-1.5,64.2,16,127.8,52,189.1c12.2,20.9,44.7,48.7,71.6,77.4
			c82.2,87.7,113.8,211.6,82.4,327.6c-11.3,41.6-27.3,104.8-27,136.4c1.2,101.2,8.9,209.7,61.5,287.4c22.5,33.1,48.9,62.2,78.6,86.5
			c31.5,25.7,66.8,46.1,104.8,60.4c45.9,17.4,95.5,26,148.3,26c1.8,0,87.7,0,89.8-0.1c90.9-1.7,92.8,41.4,145.1,115.7
			c6.1,8.7,12,16.8,17.3,24c39.5,53.3,107.1,74.9,155.6,123c54.8,54.3,110.6,85.4,165.8,122.1c36.4,24.1,100.3,52.2,148.1,71.6
			c40.6,16.6,77.3,47.6,99.1,85.7c65,113.6,164.5,174.2,208.2,198.8c30.6,17.2,54.5,43.9,69.4,75.7
			c20.4,43.5,92.6,103.8,116.4,113.5c59.4,24.3,109.9,53.1,127.5,114.8c20.8,73,53.6,172,98.4,261.6
			c58.4,116.8,186,220.4,282.7,286.8c117.9,80.9,237.7,139.4,304.1,161.5c10.2,3.4,21,7.1,32.4,11c44.8,15.4,133.3,37.8,127.2,16.7
			C3303,3707,2995,3569.8,2882.4,3492.5z"/>
		<path fill="#FFFFFF" d="M3717.1,3531c-34.9-132-188.7-260.9-277.3-326c-82.2-60.4-167.9-115.1-279.3-165.5
			c-88.4-39.9-147.8-124.9-155.3-221.6c-4.6-60-11.5-122.9-21.3-161c-17.1-66.3-105.6-145.5-134.6-187.8
			c-20.7-30.1-65.9-59.8-103.5-81c-37.5-21.1-70.9-48.6-98.8-81.3c-28.1-32.9-69.9-75.4-121.2-107.6
			c-63.2-39.7-196.1-76.1-288.2-98.1c-62.6-15-110.8-78.6-148.9-130.5c-67.8-92.2-175.6-239.2-355.4-302.1
			c-103.1-36.1-151-92.8-124.3-198.7c17.7-70.3,40.4-157,8.2-242.5c-16-42.6-96.4-103.8-122.7-123.3
			c-103.2-76.8-82.3-153.1-54.9-216.4s45.3-112,39.7-180.8c-4.8-60-17.3-116.7-37.1-168.5c-0.2-0.4-0.3-0.8-0.5-1.3
			c-23.9-62-6.2-132.4,44.6-175.2c12-10.1,23.6-21,34.8-32.6c57.4-59.9,96.7-134.2,110.6-209.2c6.3-34.1,7.5-68.5,3.5-102.1
			c-4.2-35.8-14.4-71-30.2-104.5c-3.8-8.1-5.5-11.6-9.9-19.5l-98.8,37.4c36.8,76.7-11.8,166.6-10.8,210.2
			c3.2,142.5-117,228-167.7,236.6c-17.7,3-86.9-23.8-74.5-10.8C1387,518,1408.9,615.9,1418,730c10.3,128-46.7,180.6-97.6,229.7
			c-71.7,69.1-80.4,102.5-67.1,127.1c14.6,27.1,66,24.3,105.1,31.7c6.5,1.2,13.1,2.5,19.8,3.8c90,18.4,151.8,63.3,178.8,129.6
			c31.5,77.5,13.6,177.9-47.9,268.6c-21.1,31.1-34.8,83.6-18.7,119.7c9.5,21.2,27.7,34.6,51.2,37.8
			c102.5,13.7,359.7,81.8,533.2,416.3c15.1,29.1,43.7,48.5,76.4,51.8c132.2,13.2,244.4,35.3,337.9,94
			c87.9,55.2,130.2,126.9,140.3,143.2c12.3,19.7,31.4,33.4,53.7,38.8c41.2,9.9,83.3,41.3,112.6,84c49,71.4,131.4,193.5,83.1,415
			c-5.9,27-61.2,107.2-34.7,112.9c32.6,7.1,85-10.2,108.5-4.7c149.6,34.9,310.8,109.8,448.9,211.2c139,102.1,231.2,224.9,253,307.2
			c10.8,40.8,13.4,76.7-8.8,108.3c-13.9,19.8-32.7,37.5-56.4,56c-29.5,23,56.9,15.9,90.3-19.3
			C3720.3,3649.4,3733.7,3593.8,3717.1,3531z"/>
	</g>
	<g>
		<path fill="#FFFFFF" d="M3935.2-3038.8c-35.5-13.7-74.2-75.9-80.9-117.3c-3.8-23-21.7-39.9-45.7-43c-30.7-3.9-62.9,13.6-75,40.9
			c-28,63.2-93.6,178.9-218.7,244.4c-15.3,8-25.7,23.1-27.7,40.3c-2,17.2,4.6,34.2,17.6,45.6c3.9,3.4,7.8,7,11.3,10.7
			c12.7,13,29.5,19.8,46.6,19.8c11.5,0,23.1-3.1,33.6-9.4c52.1-31.3,135.8-52.4,205.3-28.9c8.1,2.7,16.5,4.1,24.8,4.1
			c21.5,0,42.4-9,57.3-25.5c17.4-19.3,35.5-37.7,54-54.5h0c20.2-18.5,37.6-53.8,31.6-85.6
			C3965.6-3016.6,3953.2-3031.8,3935.2-3038.8z M3851.5-2902.2c-18.3,15.9-39.9,16.6-67.2,9.9c-39.9-9.7-141.3-0.5-177.3,9
			c-16.1,4.2-26.7-16.3-14-27c29.2-24.7,83.7-59.1,116.7-83.4c48.2-35.5,48.8-99.4,64.4-128.9c7.2-13.6,26.9-12.9,33.2,1.1
			c6.3,14,14,27.9,22.7,40.9c13.5,20.2,58.1,67.5,84.9,84.1c10.2,6.3,12,20.7,3.2,28.9c-0.1,0.1-0.1,0.1-0.2,0.2
			C3908-2958.5,3866.7-2915.4,3851.5-2902.2z"/>
		<path fill="#FFFFFF" d="M5090.8-3790.1c-134.6-3.8-239.6,39.9-307.5,80.7c-53.9,32.4-122,29.9-173.6-6.1
			c-75.3-52.5-182.4-111.1-261.4-124.7c-57.5-9.9-113.4-12.8-166.6-5.5c-51.6,7.1-99.7,14.4-147.8,33.5
			c-64.4,25.7-128.2,73.5-150.1,99.1c-40.7,47.6-95,55-138,0.1c-38.2-48.8-76.9-80.8-121.4-112.1c-43.5-30.6-90.7-52.1-141.5-64.3
			c-136.7-32.8-187-227.9-218.9-321.5c-40.2-118.3-194.2-281.2-265.8-359.8c-140-153.6-342.2-264.7-589.3-256.4
			c-336.1,11.3-482.8,94.7-663.2,277.4c-140.8,142.6-261.7,258.6-261,440.3c0.2,40.4,5.6,107.1,0.7,147l152.6,16.5
			c-41.8-185.7,21.7-324.5,159.7-461.2c102.5-101.6,303.3-307.1,619.2-317.7c227.2-7.6,354,96.2,481.9,233.7
			c122.8,132,205,180.4,231.9,349.2c51.1,320.7-158.1,301.8-254.9,362.7c-133.5,84-77.8,361.4-60.1,363.9c14.1,2,19.7-14,28.6-38.7
			c59.1-162.9,159.6-240.1,363.2-305.3c0.2-0.1,0.3-0.1,0.5-0.2c249.8-79.8,379.1-59.6,551.3,210.4c13.1,20.5,32.1,36.1,56.5,36.8
			c24.2,0.8,46.6-11.9,58.3-33.1c103.5-186.3,267.5-268.3,461.8-231.1c162.5,31.2,334.4,202.6,361.2,249.7
			c18.5,32.5,86.6-93.5,140-135.3c68.3-53.5,171.2-63.3,255.3-63.2c0,0,10.3,26.8,25.7,26.2c24.4-1,23.7-46.8,24.3-58
			c0.6-10.3,0-55-23.6-56.7C5104.2-3814.7,5090.8-3790.1,5090.8-3790.1z"/>
		<path fill="#FFFFFF" d="M5009.3-2951.2c-83.1-15-146.8-61.7-185.4-94.9c-55.7-47.9-89.8-161.8-108.2-117.1
			c-15.2,37-161,186-267.7,232.8c-45.9,20.2-92.6,33.8-135,39.6c-38.7,5.2-71.5,3.4-92.5-5.2c-22.3-9.1-48,0-59.6,21.3
			c-52.7,96.4-131.9,149.3-154.9,163.1c-13.3,8-21.9,22.1-22.9,37.7c-6.5,102.7-36.1,176.4-87.8,219.2
			c-47.2,39-114.3,53.4-199.6,42.7c-117.3-14.7-155.9-71.9-178.3-125.9c-15-36.3-42.5-65.8-77.4-82.9
			c-88.1-43.3-159.3-121.4-173.1-189.8c-6.9-34.1-34.4-60.8-68.5-66.4c-112.9-18.5-231.5-105.2-294.2-181.6
			c-42.1-51.4-57.3-112.7-75.3-112.7s-21.1,27.2-42.1,53.2c-63.3,78.4-219.2,107.6-325.6,115.5l7.5,40.5c7.4-0.8,15-1.1,23.9-1.1
			c127.8-0.1,203.5,3,274.1-67.7c24-24,72.9-2.1,87.7,14.4c0.1,0.1,0.1,0.1,0.2,0.2c0,0,0.1,0.1,0.1,0.1
			c75.8,84.4,170.7,173.5,302,183.2c27,2,43,35.7,48,57c13.5,57.2,36.4,76.8,74.4,115.8c37.2,38.1,90.7,61.2,139.6,85.2
			c20.7,10.2,29.4,40.3,38.4,62c11.2,27.1,30.7,67.1,70.4,101.1c40.2,34.5,94,71.2,159.9,79.4c21,2.6,41.1,3.9,60.5,3.9
			c76.3,0,139.6-35.4,188.7-76.1c50.3-41.7,84-103.4,100.7-184c9.3-45.1,33.3-85.8,67.9-116.1c12.8-11.2,26.4-24.1,40.1-38.9
			c42.6-45.8,100.3-74.9,162.5-81.2c4.5-0.5,9-1,13.7-1.6c48.3-6.5,101.1-21.9,152.4-44.5c22.7-10,63.5-38,105.5-69.9
			c81.8-62.2,193.6-3.2,280.3,51.9c45.7,29,93.8,54.7,130.9,64c35.7,8.9,71.4,13.4,107,13.4c3,0,6,0,9-0.1c0,0,7.9,28.6,24.6,28
			c34.9-1.3,34.9-66,34.9-95.4s-2-85.2-32.1-84.9c-21.6,0.2-28.9,23.6-28.9,23.6C5077.2-2941.3,5045.4-2944.7,5009.3-2951.2z"/>
	</g>
	<path fill="#FFFFFF" d="M9017.6-4015.5c-12.1-221.7-45.1-440.8-95.4-633.7c-54.7-209.8-128-385.6-217.8-522.6
		c-68.5-104.5-146-184.7-230.4-238.5c-91.8-58.5-192.1-86.1-298.2-82c-241,9.3-426.4,99.3-551.1,267.4
		c-79.1,106.8-133.7,245.6-162.4,412.8c-22.6,132.3-29.2,282.6-19.4,446.9c8.7,145.7,28.8,275.7,44.2,359.1c0.1,0.4,0.2,0.9,0.2,1.3
		c10.2,55-26.4,107.5-81.4,117.5c-7.9,1.4-15.8,3-23.7,4.6c-104.8,21.7-204,59.5-294.8,112.6c-98.9,57.8-187.2,133.3-262.6,224.6
		c-52.1,63-89.4,51.7-167.9,26.6c-232-74-390.5-56.6-607.5-51.1c-107.8,2.7-211,11-306.8,24.4c-0.9,0.1-1.7,0.2-2.6,0.4
		c-115.1,16.3-230,12.7-295.7-83.2c-23-33.5-50.5-62.2-82.5-85.8c-37.8-27.9-81.6-48.4-130.3-61c-34.4-8.9-71.4-12.1-110.2-13.8
		c0.1,21.5,0.1,43,0.1,64.5c202.7,8,290.4,98.2,313.5,179.8c16.5,58.2-11.4,114.7-13.2,131.7c-8.2,79.1,81,100,107,42
		c55.6-124.1,371.2-110.4,592.9-110.4c181.1,0,359.1,13.4,469.7,61.2c121.3,52.5,147.2,141.3,197.5,125.2c50.4-16.1,10-128,86-209.2
		c315.2-336.7,663.6-372.6,929.6-322.1c70.4,13.3,99.7,26.2,113.4,28.3c24.5,3.9-19-84-239.3-102.2c-0.4,0-0.7-0.1-1.1-0.1
		c-67-5.5-97.1-55.1-109.2-121.2c-16.4-89.7-34.6-212.7-42.6-348.3c-14.7-249.5-22.1-594.5,145.6-820.7
		c113.6-153.3,284.1-235.4,506.7-243.9c184.4-7.1,345.2,91.9,477.9,294.4c167.9,256.3,248.7,667.3,273.7,1127.7
		c24.1,442.4-6,861.2-130.9,1120.3c-58.4,121.3-154.6,176.3-278.3,191.4c-147.8,18.1-316.2-28.9-464.7-154.5
		c-58.2-49.2-53.1-140.6,10.2-182.9c54.9-36.7,113.7-79.6,140.5-110.4c55.9-64.1,89.8-133.8,100.5-207.2
		c11.7-79.6,5.4-167.7-47-245.1c-69.3-102.2-152.1-86.7-124.3-63.2c57,48,182,278-1,464c-105.6,107.4-253.5,217.6-463.6,263.4
		c-93.1,20.3-186.5,32.3-275.5,32.3c-111.6,0-216.5-21.8-305-53.2c-40-14.1-149.5-79.8-189-70.2c-55.5,13.5-6.9,74.6-202.2,150.8
		c-117.6,45.9-233.2,43-428,43c-198.2,0-368-28.6-542.7-77.1c-69.6-19.3-217.8-105.3-294-177c-34-32-79.3-4.7-89.1,8.6
		c-19.9,26.8-31.8,143.3-233.3,139.3c0,21.5,0.1,106.9,0.1,128.4c36.6-1.3,73-7.3,108.9-18c45.4-13.5,90-34.6,133.5-63
		c52.2-34.2,112.2-83.4,163.3-47.6c0.3,0.2,0.7,0.5,1,0.7c49.4,34.4,122.2,78.2,195.9,105.9c161.5,60.7,353,68.8,544.2,70.3
		c4.4,0,8.9,0.1,13.3,0.1c102.7,0,203-9.4,298.3-28.1c109.2-21.3,211.9-54.8,305.3-99.5c56.1-26.9,126.4,76.2,192.6,99.7
		c95.4,33.8,207.8,50.8,327.1,50.8c93.7,0,191.7-10.5,289-31.7c22.1-4.8,44.1-10.2,65.8-16.1c84.7-22.9,175-105.8,240-46.9
		c64.7,58.7,134.5,107.1,206.4,142.7c92.7,46,186.3,69.6,273.9,69.6c19,0,37.8-1.1,56.2-3.4c69.5-8.5,132.2-32.7,186.4-72
		c56.8-41.1,102.9-98,137.1-168.9c33.1-68.7,62.2-148.5,86.4-237.1c23.4-85.5,42.3-179.7,56.3-279.8
		C9021.3-3579.7,9029.5-3798.1,9017.6-4015.5z"/>
	<g>
		<path fill="#FFFFFF" d="M2339.1-2194.3c-0.6-0.9-1.3-1.8-1.9-2.7c-78.8-112.4-89.4-259.6-25.7-381.2
			c31.8-60.8,49.8-124.8,45.5-200.7c-3-52.1-20.7-159.4,88.6-175.8c0,0,15.1,20.1,25,17.3c13-3.7,15.7-15.6,15.7-42.3
			c0-26.7-19.3-43-27-41.3c-8.5,1.8-16.2,19.5-16.2,19.5c-27.8,1.5-51.9,1.6-67.8,0.7c-1-0.1-2-0.1-3-0.2c-2.5-0.2-4.8-0.4-6.8-0.6
			c-3.4-0.4-8.7-0.9-15.1-1.2c-158.5-16.4-234.3-98-302.9-140.1c-97.8-60-154.3-85.4-154.3-85.4l0,0c-5.4-2.7-10.9-5.1-16.4-7.3
			c-165.3-66.6-296.6-118.2-688.7-381.4c-21.6-14.5-43.9-28.6-69.9-30.4c-26.1-1.9-52.2,5.4-73.6,20.4
			c-96.2,67.5-216.9,100.8-261.1,112.3c-57.5,14.9-43.1,75-31.1,88.3c185.3,204.8,525.8,250.7,646.3,315
			c45,24,147.1,116.4,150.4,188c2.4,52.9,47.2,93.4,58,48.7c15.5-64.5,204.1-147,332-147c127.5,0,297.8,58.9,316.1,168.3
			c26.9,161.6-66.6,360.1-153.2,482.8c-23.3,33.1,118,80,200.7,198.8c74,106.4,136.1,278,102,418.9
			c-54.6,225.2-336.3,292.4-414.7,306.8c-11.4,2.1-23,3.3-34.7,3.6c-23.1,0.5-70.9-4.5-65.1,7.7c19.1,39.9,14.6,72.7,8.8,112.3
			c-27.5,186.1-229.1,285.7-354.9,327c-16.9,5.5-223,41-366.8,109.4c-99.4,47.3-138.3,135.2-95.1,138.8
			C1383-722.5,1419.5-456.5,1383-383c-73.4,147.9-186.8,181.5-191.3,200c-5.3,22,122.1-3.4,169.3,6c29,5.8,81.5,31.3,123.4,88.7
			c0.8,1.1-16,15.6-10.2,29.6c9.3,22.3,63.5,8.3,81.8-1.8s61.5-42.5,50.5-65.9c-3.9-8.4-27.7-6.9-27.7-6.9
			c-49.3-75-57.2-169.4-23.6-252.6c15.2-37.7,20.6-75.6,17.9-113.7c-5.9-84.1-39.7-154.4-78.9-208.9
			c-61-84.7-157.2-176.9,29.9-226.7c85.2-22.7,200-80.4,278.5-132.8c26.6-17.8,50.7-47.4,71.7-81.4
			c82.7-134.1,199.7-244,340.6-314.5c36.1-18.1,68.5-37.6,97.1-58.4c81.7-59.7,134-131.9,155.6-214.6
			c19.2-73.6,13.8-155.4-15.8-243.1C2428.6-2048.3,2390.7-2120.4,2339.1-2194.3z M929.6-3372.6c-80.5-75.2,42.2-96.8,128.5-151.5
			c87.1-55.2,183.6,39.2,215.7,81.4c72,94.5,263.9,183,263.9,249C1537.8-3128.2,1006.5-3300.8,929.6-3372.6z"/>
		<path fill="#FFFFFF" d="M1293-1739.5c31.2,4.8-21-94-39.9-183.8c-17-80.6-20.3-193.9,21.5-293.7c90.5-216,312.4-157.6,298.9-181
			c-43.2-75.1-40.6-164-34.7-221.5c2.6-25.4-25.1,0.8-44.3,47.5c-21.4,52.4-37.6,140.7-385.5,317c-292,148-600.9,163.5-758,449.5
			c-81.8,148.9-62.5,426.2-25.8,633.5c18.9,107-82.4,195.7-186,162.9c-140.3-44.4-268-93.6-359.7-151.5
			c-45.6-28.7-101.3-13.3-150.8,7.9c-35.9,15.3-70.7,24.8-93.7,30.1c-34.6,8-63.7,12.8-76.2,46.4c-15.1,40.6-36.4,89.5-88.7,125.8
			c-52.4,36.3-128,67.5-170.6,66.7c-208.8-4-373.3-149-373.3-327c0-169.1,147-294.1,276.5-317.4c52.3-9.4,119.1-10.6,183.1,14.2
			c64.7,25,104.1,59.1,130.9,100.4c13.9,21.5,35.2,37.2,59.7,44.5c78.6,23.5,122.9-43.9,127.8-73.1c4.9-29.4-39.1-59.2-60.7-79.7
			c-88.9-84.5-116.9-228.2-170-442.1c-49.7-200.1-75.7-434.5-73.1-659.9c4.1-355.6,77.9-632.7,197.5-741.3
			c453.1-411.3,951.1-518.2,1346.5-518.2c345.2,0,652.5,91.4,743.3,120.8c64.5,20.9,121.5,56.4,118.2,25.3
			c-2.9-27-41.9-127.9-62.1-194.2c0,0,26.4-15.7,26.4-29.2c-0.1-34.1-58.1-41.9-109.9-42c-51.7-0.1-107.2-0.6-110.3,36
			c-1.1,13.3,19.3,26.4,19.3,26.4c-17.5,36.8-48.2,63.5-92,53c-80.4-19.2-163.9-34.2-247.8-44.4c-178.8-21.7-358.4-22.2-533.9-1.4
			C394-3909.2,200-3844.4,18.8-3766.1c-204.7,88.4-406.6,188.5-576.7,342.9c-70.9,64.3-114.1,182-152,330.1
			c-33.8,131.9-35.1,311.5-37.1,486.2c-2.7,230.8,6.3,453.3,57.3,658.7c39.1,157.6,175.6,437.1-1.1,383.7
			c-76.8-23.2-154.3-39-218-27.5c-79.8,14.3-158.9,59.4-216.9,123.6c-31,34.3-55.4,72.9-72.4,114.8c-18.4,45.3-27.7,93.4-27.7,142.9
			c0,102.1,42.5,196.7,119.6,266.6c38.2,34.5,83.3,61.8,134.3,80.9c52.5,19.7,109.8,30.3,170.2,31.5c1.2,0,2.3,0,3.5,0
			c55.9,0,123.5-24.8,186.3-68.3c63.7-44.2,281.6-266,370.1-194.9c130.2,104.6,190.1,97.2,318.5,137.9
			c47.4,15,398.9,128.7,371.1-279.6c-42.4-622.6,170.8-842.1,438.5-687C1081-1811,793.2-1628.1,685-1419c-44.8,86.6,61,185.7,34,244
			c-55.6,120.1-250.8,172.4-216,268c32,88-15.8,179.7-39.3,248.5c-13.1,38.2-34.7,141-42.7,207.5c-12.6,105.4,34.9,260.3,27.6,294.6
			c-2.3,10.5-25.8,33.6-27.5,39.9c0,0-27.6-6.3-33,6.5c-14.3,33.7,45.7,66.3,45.7,66.3s70,35.3,79.4,3.4c4.2-14.2-14-28.9-14-28.9
			c24-49.7,87.8-73.4,108.9-78.9c25.8-6.7,99.6-16,98.7-27.4c-0.9-11.4-122.8-82.3-139.1-231c-10.4-95.4,2.1-152.5,33.4-214.6
			c50.8-100.8,96-110.5,114.2-120c23.5-12.3-67-83.5-77.5-107.7c-61.1-140.6,235.3-239.6,195-355.8
			C754.7-1429.5,1047.1-1777.6,1293-1739.5z"/>
		<path fill="#FFFFFF" d="M385.7-3221.8c111.4-27.4,137.4-108.9,132.1-119.2c-51.9-101.5-208-23.7-400.1,65.9
			c-120.1,56.1-236.7,62.7-338.1,14.5c-35.9-17.1-56.6-6.1-59,12.6c-1.7,13.3,10,38.1,20.5,46.5
			C43.9-2959.4,41.6-2336.1-15.1-1836.1C-21-1784-59.3-1710.6-1-1684c112.7,51.3,131.3-105,108.8-126.9
			c-36.4-35.5,171-576.8,101.9-825.4C129.6-2924.6,124.7-3157.7,385.7-3221.8z M100.4-2586C45.1-2866.4,3-3029-51.7-3090.7
			c-7.9-8.9,5.9-22.6,17.8-21.4c30.9,3.1,63.3,0.9,94.4-12.4c12.8-5.4,28.5,5.3,24.8,18.7C47-2967,97.9-2741.3,111.9-2587.7
			C112.6-2580.4,101.9-2578.8,100.4-2586z"/>
	</g>
</g>
<g id="PullTogethers">
	<path fill="#FFFFFF" d="M1009.4-286.5c-13.2,0-26.2,0.6-39.1,1.7c2.8,8.3,5.5,16.6,9.4,24.3c23.8,48.7,33.6,100.7,26,152.7
		c-7.6,47.7-37.9,86.6-57.4,131.1c-21.7,52-7.6,106.1-18.4,162.5c-4.3,20.6-9.7,40.1-22.7,56.3c-15.2,20.6-63.3,68.6-67.8,71.4
		c51.1,21.7,108.9,34,170.1,34c1.7,0,3.4,0,5.1,0c206.1-2.3,372.3-143.3,372.3-316.9C1386.8-144.6,1217.9-286.5,1009.4-286.5z"/>
	<path fill="#FFFFFF" d="M907.2,242.1c13-16.2,18.4-35.7,22.7-56.3c10.8-56.3-3.2-110.5,18.4-162.5c19.5-44.4,49.8-83.4,57.4-131.1
		c7.6-52-2.2-104-26-152.7c-3.9-7.7-6.6-16-9.4-24.3c-2.9,0.3-5.8,0.5-8.6,0.8C775.8-264.3,632-131,632,30.5
		c0,123.7,84.3,230.8,207.3,283C843.8,310.6,892,262.6,907.2,242.1z"/>
	<path fill="#FFFFFF" d="M1009.4,353.4c-60.7,0-118.7-11.6-172.5-34.4l-0.3-0.1c-4.3-1.8-4.8-7.8-0.9-10.3l0.3-0.2
		c4.6-3.2,51.4-49.8,66.2-69.9l0.1-0.2c11.5-14.4,16.9-31.9,21.5-53.8c4.3-22.6,4.6-45.2,4.8-67.1c0.4-31.8,0.7-64.7,13.9-96.5
		l0-0.1c6.6-15.1,14.5-29.6,22.1-43.7c15.4-28.4,30-55.2,34.8-85.9c7.2-49.6-1.3-99.8-25.5-149.1c-4-7.9-6.8-16.4-9.5-24.6l-0.2-0.7
		c-1.2-3.6,1.3-7.3,5-7.7l0.2,0c13.1-1.1,26.5-1.7,39.6-1.7c102.2,0,198.4,33.5,270.7,94.2c35.3,29.6,63,64.2,82.4,102.6
		c20.1,39.9,30.3,82.3,30.3,126.1c0,85.7-39.4,166.4-111,227.3c-71.2,60.6-166.1,94.5-267.3,95.6
		C1012.9,353.4,1011.2,353.4,1009.4,353.4z M870.7,291.5c-9.4,9.6-5.5,25.8,7.4,29.9c41.8,13.3,85.8,20,131.4,20c1.7,0,3.4,0,5,0
		c202-2.2,366.4-141.7,366.4-310.9c0-171.5-166.6-311-371.4-311c-7.6,0-15.4,0.2-23.1,0.6c-4,0.2-6.6,4.3-5.1,8
		c1.2,3,2.4,5.9,3.8,8.7c25.2,51.6,34.2,104.2,26.6,156.3c-5.2,32.8-20.9,61.8-36.2,89.8C968-3.3,960.2,11,953.8,25.6
		c-12.3,29.6-12.6,59.9-13,91.9c-0.2,22.5-0.5,45.7-5,69.3l0,0.1c-4,19-9.5,40.7-23.9,58.7C903.8,256.8,886.2,275.7,870.7,291.5z"/>
	<path fill="#FFFFFF" d="M842.5,318.5c-1.7,1.1-3.8,1.2-5.6,0.5l0,0c-62.3-26.5-115-66.8-152.2-116.7C646.3,151,626,91.5,626,30.5
		c0-79.3,34.4-155.6,97-214.8c61.8-58.4,146.3-96,238-105.7c2.6-0.3,5.5-0.5,8.8-0.8l0,0c2.8-0.2,5.3,1.4,6.2,4.1l0.2,0.5
		c2.7,8.1,5.3,15.8,8.9,23c25.2,51.6,34.2,104.2,26.6,156.3c-5.2,32.8-20.9,61.8-36.2,89.8C968-3.3,960.2,11,953.8,25.6
		c-12.3,29.6-12.6,59.9-13,91.9c-0.2,22.5-0.5,45.7-5,69.3l0,0.1c-4,19-9.5,40.7-23.9,58.7C896.6,266.5,847.8,315.2,842.5,318.5
		L842.5,318.5z M970.5-266.6c-2.8-7-10.1-11.3-17.6-10.3c-0.7,0.1-1.3,0.2-1.8,0.2C771.8-253,638-122.6,638,30.5
		c0,111.8,70.2,213.2,184.7,268.9c9.3,4.5,20.5,2.7,27.8-4.6c16.3-16.2,41.6-42.4,51.8-56.3l0.1-0.2c11.5-14.4,16.9-31.9,21.5-53.8
		c4.3-22.6,4.6-45.2,4.8-67.1c0.4-31.8,0.7-64.7,13.9-96.5l0-0.1c6.6-15.1,14.5-29.6,22.1-43.7c15.4-28.4,30-55.2,34.8-85.9
		c7.2-49.6-1.3-99.8-25.5-149.1C972.9-260.7,971.6-263.6,970.5-266.6z"/>
	<path opacity="0.43" fill="#FFFFFF" d="M5580.1-2556c-50.4-46.6-113.2-74.2-181.3-74.2c-82.5,0-157.2,40.6-211.6,106.3
		c45.3,28.7,135.4,108.8,140.4,113.8c25,23,46,46,68,71c24,27.9,46,58.5,71,85c24.8-101.4,52.7-195.2,104-287
		C5573.6-2546.4,5576.8-2551.3,5580.1-2556z"/>
	<path opacity="0.43" fill="#FFFFFF" d="M5579.5-2556.6l-8.9,15.4c-51.3,91.8-79.3,185.5-104,286.9c0,0,0,0.1,0,0.1
		c27,28.5,57.5,52.1,98,62c44,11,86-11,124-39c0,0,0,0,0,0c3.6-2.3,7.1-4.5,10.7-6.5c0,0,0,0,0-0.1c0.4-7.9,0.6-16,0.6-24
		C5700-2382.4,5652.7-2489.4,5579.5-2556.6z"/>
	<path opacity="0.43" fill="#FFFFFF" d="M5452.6-2056.2c-41-8-144-53-159-62c-67.9-39-127.1-84.1-195.4-120.8
		c9.6,192.8,140.5,345.6,300.6,345.6c117.7,0,219.6-82.6,269.1-202.9c-29,21.4-63.8,33.9-99.4,41.1
		C5530.6-2048.2,5492.6-2049.2,5452.6-2056.2z"/>
	<path opacity="0.43" fill="#FFFFFF" d="M5688.6-2231.2c-38,28-80,50-124,39c-78-19-119-89-169-147c-22-25-43-48-68-71
		c-5-5-95.1-85-140.4-113.8c-55.3,66.8-89.5,159.6-89.5,262.1c0,7.7,0.2,15.3,0.6,22.8c68.3,36.7,127.5,81.8,195.4,120.8
		c15,9,118,54,159,62c40,7,78,8,116,1c35.5-7.3,70.4-19.8,99.4-41.1c17.7-43,28.7-90.8,31.4-141.4
		C5695.7-2235.7,5692.2-2233.5,5688.6-2231.2z"/>
	<path fill="#FFFFFF" d="M5472.1-2251.8c-1,4.2-6.3,5.6-9.2,2.4l-0.7-0.7c-15.1-16-29.3-33.7-43-50.9c-9.1-11.4-18.5-23.2-28.1-34.3
		c-23.2-26.4-43.6-48.5-67.5-70.5l-0.2-0.2c-5.9-5.9-94.8-84.6-139.4-112.9v0c-3.1-1.9-3.7-6.1-1.4-8.9v0
		c57.9-70,134.7-108.5,216.3-108.5c67.6,0,131.7,26.2,185.4,75.8l0.4,0.3c2,1.9,2.3,4.9,0.7,7.1l-0.3,0.4c-3.5,5-6.6,9.7-9.3,14.3
		c-49.7,88.9-77.3,178.4-103.4,285.4L5472.1-2251.8z M5331.7-2414.6c24.2,22.3,44.8,44.7,68.4,71.4c9.8,11.3,19.3,23.2,28.4,34.7
		c8.4,10.5,17,21.3,25.9,31.6c3.8,4.4,10.9,2.7,12.3-2.9c24.7-97.5,52-181.1,98.6-264.4l0.8-1.3c3.4-5.8,2.1-13.3-3.1-17.6
		c-48.6-40.1-105-61.2-164.2-61.2c-72.6,0-141.5,32.1-195.5,90.9c-3.8,4.2-3.2,10.8,1.5,14.1
		C5252.2-2485.6,5325.6-2420.6,5331.7-2414.6z"/>
	<path fill="#FFFFFF" d="M5588.2-2183.3c-8.2,0-16.6-1-25.1-3.1c-36.5-8.9-67.7-28.6-100.9-63.7v0c-1.4-1.5-2-3.6-1.5-5.5l0,0
		c26.3-108,54.2-198.4,104.6-288.5c2.9-5.1,6.1-10.1,9.9-15.4l0,0c2.1-3,6.3-3.4,9-0.9l0,0c37,34.2,67.7,78.9,88.7,129.3
		c22,52.7,33.1,109.7,33.1,169.2c0,8.1-0.2,16.3-0.6,24.4l0,0c-0.1,2-1.2,3.9-3,4.9l0,0c-3.6,2.1-7,4.2-10.4,6.3
		C5663.8-2205.5,5627.8-2183.3,5588.2-2183.3z M5475.8-2266.6c-1.7,6.7,0.4,13.8,5.4,18.6c27.8,26.9,54.4,42.5,84.9,50
		c44.6,11.2,87.1-14.4,119-38l0.3-0.2l0.1-0.1c5.1-3.3,8.3-8.8,8.4-14.9c0.1-3.5,0.1-7.1,0.1-10.6c0-108.6-38.4-208.8-105.8-278
		c-3.6-3.7-9.8-3-12.4,1.5l0,0.1C5528.2-2453.2,5500.9-2367.6,5475.8-2266.6z"/>
	<path fill="#FFFFFF" d="M5398.8-1887.5c-79,0-154-36.4-211.3-102.6c-56.7-65.5-90.6-153.9-95.3-248.7v0c-0.2-4.7,4.7-7.8,8.8-5.6v0
		c37.8,20.3,73.4,43.6,107.9,66.1c28.1,18.4,57.3,37.4,87.6,54.8l0.1,0.1c15.5,9.3,117.9,53.6,157,61.2c41.1,7.2,78.4,7.5,113.8,1
		c39.2-8,71.8-21.5,97-40.1l0,0c4.9-3.6,11.4,1.5,9.1,7.1l0,0c-25.1,61-63.5,112.6-110.9,149.1
		C5513.6-1907.4,5457-1887.5,5398.8-1887.5z M5130.4-2213.8c-10.8-6.4-24.1,2.5-22.3,14.9c24.4,170.9,146.2,299.5,290.7,299.5
		c94,0,180.2-53.7,235.4-143.6c6.8-11.1-4.2-24.5-16.4-19.9c-14.8,5.6-30.9,10.1-48.1,13.7l-0.1,0c-36.9,6.8-75.5,6.5-118.1-1
		l-0.1,0c-41-8-144.4-52.8-160.9-62.7c-30.6-17.6-59.9-36.7-88.1-55.2C5179-2183.5,5155.1-2199.1,5130.4-2213.8z"/>
	<path fill="#FFFFFF" d="M5515.5-2044.5c-20.4,0-41.6-1.9-63.9-5.8l-0.1,0c-41-8-144.4-52.8-160.9-62.7
		c-30.6-17.6-59.9-36.7-88.2-55.2c-34.3-22.4-69.7-45.5-107-65.5v0c-1.9-1-3-2.9-3.2-5l0,0c-0.4-7.7-0.6-15.5-0.6-23.1
		c0-50.8,8.2-100.1,24.4-146.4c15.6-44.8,38-85,66.5-119.5l0,0c1.9-2.3,5.3-2.9,7.8-1.2v0c45.1,28.6,134.5,107.8,141.3,114.5
		c24.2,22.3,44.8,44.7,68.4,71.4c9.8,11.3,19.3,23.2,28.4,34.7c39.3,49.2,76.5,95.6,137.5,110.5c44.6,11.2,87.1-14.4,119-38l0.3-0.2
		c3.5-2.3,7.1-4.5,11-6.7l0,0c4.1-2.4,9.2,0.8,9,5.5v0c-2.7,50.3-13.4,98.5-31.8,143.4l0,0c-0.4,1-1.1,1.9-2,2.5l0,0
		c-26.6,19.6-60.8,33.8-101.7,42.2l-0.1,0C5552.1-2046.1,5534.1-2044.5,5515.5-2044.5z M5453.7-2062.1c41.1,7.2,78.3,7.5,113.8,1
		c25.4-5.2,48.1-12.7,67.7-22.4c18-8.9,31.6-24.6,37.8-43.7c8.1-24.9,13.9-50.7,17.4-77.1c1.6-12.2-5.4-16.6-15.7-9.8
		c-31.5,20.7-70.1,38.1-111.5,27.7c-64.9-15.8-105.1-66-144-114.6c-9.1-11.4-18.6-23.2-28.1-34.3c-23.2-26.4-43.6-48.5-67.5-70.5
		l-0.2-0.2c-5.3-5.3-78.6-70.3-125.5-103.6c-5.3-3.7-12.5-2.6-16.4,2.6c-50.3,67-77.8,153.4-77.8,245.1l0,2.6c0,10,5.3,19.2,14,24.1
		c31.7,18,61.9,37.7,91.3,56.9c28.1,18.4,57.3,37.4,87.6,54.8l0.1,0.1C5312.2-2114,5414.6-2069.8,5453.7-2062.1z"/>
	<path fill="#FFFFFF" d="M8222.7-5088.3c-4.2-4.9-10.5-7.5-17-7c-100.8,8.4-203.9,107.5-263,211.6c-15.9,28.1-26.3,61.1-25.5,99.6
		c7.5,345,210.9,222.3,235.8,481.7c0.7,6.9,0.8,13.3,0.4,19.2c-0.6,9,4.8,17.2,13.3,20.1c23.6,8.1,69,23,99.5,29.1
		c11.3,2.2,22-5.6,23.5-17C8303.6-4363.1,8363.8-4922.6,8222.7-5088.3z"/>
	<path fill="#FFFFFF" d="M8599.8-4709.1c-19.1-216.5-101.3-380.8-365.6-386.7c-2,0-5.4-0.1-8.7-0.1c-3.8,0-5.9,4.3-3.5,7.3
		c147.2,184.3,76.6,771.4,66.4,848.7c-0.6,4.6,2.8,8.7,7.4,9c58.9,3.4,129.8-1.3,150.4-2.9c3-0.2,5.1-3.2,4.3-6.1
		c-1.8-6.6-3.1-12.7-3.8-18.4C8419.3-4485.7,8612.3-4567.4,8599.8-4709.1z"/>
	<path fill="#FFFFFF" d="M8135-3866c42-24.5,286.3-54,121.2-302.7c-0.1-0.2-0.2-0.4-0.3-0.6c-7.8-15.1-5.8-39.5,16.1-54.5
		c3.9-2.7,2.6-8.8-2.1-9.6c-37.1-6.6-95.4-26.8-113.2-33.1c-2.8-1-5.9,0.5-6.9,3.4c-27.5,85.2-190,55.7-244.4,169.1
		c-59.1,123.1,39.1,305.9,88.7,323.6c14.2,5.1,30.3,13.9,47.3,25.4c0,0,0,0,0.1,0c3,2,7,0.6,8.1-2.8
		C8064.7-3796,8090.4-3841.3,8135-3866z"/>
	<path fill="#FFFFFF" d="M8456.1-4222.4c-2.5-6.9-9.3-11.3-16.7-10.7c-49,4.3-95.1,6.1-148.4,2c-2.6-0.2-5.2,0.2-7.6,1.2
		c-33.2,14.4-37.5,44.2-27.5,60.9c166,248-82.5,280-121,303c-43.2,23.9-68.7,67.2-84.1,113.7c-2.2,6.6,0.1,13.9,5.8,18.1
		c75.3,55.7,162.3,153.4,182.8,199.3c26.7,59.7,289,29.5,346-81.8C8693.3-3827.2,8502.6-4091.7,8456.1-4222.4z"/>
	<path fill="#FFFFFF" d="M8289.3-4225.4h-2.1c-28.4,0-104.7-25.7-136.2-36.8c-0.7-0.2-1.2-0.4-1.4-0.5l0,0c-3.1-0.7-5-3.8-4.3-6.9
		l0.1-0.3c2.3-9.4,2.9-20.1,1.7-31.9c-11.1-115.9-58.1-153.4-107.9-193.1c-30.1-24-61.2-48.8-85.2-91.5
		c-26.9-47.9-40.9-112.5-42.8-197.5c-0.8-36,8.1-70.6,26.3-102.7c59.7-105.4,168.9-212.8,278.2-215.2l0,0c1.7,0,3.3,0.6,4.5,1.8l0,0
		c48.9,50.8,80.3,149.8,93.3,294.4c9.4,104,9.2,228.9-0.5,371.3c-4.2,61.3-9.3,113.3-12.9,146.2c-2.1,18.9-3.8,33.5-4.9,42.3
		c-0.6,4.9-1.1,8.8-1.5,11.3c-0.7,5.5-0.8,6.3-2.8,7.8L8289.3-4225.4z M8184.9-4263.3c30.4,10.1,56.2,17.5,75.2,21.8
		c11.7,2.6,23.1-5.5,24.6-17.4c14-117.1,62.2-590.8-40.3-785.9c-16.4-31.2-53.4-45.6-86.6-33.7c-29.8,10.7-60.5,28.8-90.8,53.8
		c-45.4,37.4-87.7,88.5-119.1,143.9c-17.1,30.2-25.4,62.7-24.7,96.5c4,184.6,64.7,233.1,123.4,279.9c24.8,19.8,50.5,40.3,70.9,70.5
		c23,34.3,36.2,75.8,41.5,130.8c0.2,2.1,0.4,4.1,0.5,6.2C8160.3-4281.4,8170.3-4268.1,8184.9-4263.3z"/>
	<path fill="#FFFFFF" d="M8355.6-4222.6c-20.1,0-42.2-0.8-68.8-2.8c0,0-7.8-0.6-5.2-9.2l0,0c2.8-20.3,23.9-179.9,26.4-362.3
		c1.5-110.7-4.2-206.8-17-285.4c-15.9-97.4-42.6-167.9-79.6-209.6l0,0c-3.4-3.8-0.7-9.9,4.4-10l0.3,0c1.1,0,2.3,0,3.4,0
		c67.4,0,126.4,10.1,175.4,29.9c46,18.6,84.9,46.5,115.6,83c28.5,33.9,50.1,74.6,66.2,124.7c14.3,44.4,23.8,95,29.1,154.8
		c5.6,63.9-29.4,116.4-66.5,172c-47.7,71.5-101.8,152.6-86.5,278.7c0.8,6.7,2.5,14.2,5.2,23l0,0c1.1,3.6-1.4,7.4-5.2,7.7l-2.2,0.2
		C8416.5-4224.9,8388.7-4222.6,8355.6-4222.6z M8321.5-4235.4c40.2,1.7,70,0.4,103.6-2.4c9.8-0.8,17-9.6,15.8-19.4l0-0.3
		c-15.8-130.5,39.6-213.5,88.5-286.8c37.4-56.1,69.8-104.6,64.5-164.3c-21.5-243.1-121.3-362-321.2-379.2
		c-17.7-1.5-30,17.1-21.6,32.8c35.5,66.3,57.6,167.1,65.7,300.7c8.7,142.4-0.3,293.3-9.4,394.9c-3.6,40.4-7.2,73.1-9.7,93.5
		c-0.1,0.7-0.2,1.4-0.3,2.2C8295.7-4249,8306.7-4236,8321.5-4235.4z"/>
	<path fill="#FFFFFF" d="M8050.7-3731.3l-6.8-4.8c-2-1.4-4-2.8-5.9-4.1c-17.4-11.7-32.9-20-46-24.7c-25.7-9.2-59.9-55.2-83.3-112
		c-15.9-38.5-48.5-137.1-8.8-219.8c29.8-62.1,90.6-82.8,144.3-101.1c48.9-16.7,91.2-31,101.2-72.1l0,0c0.8-3.2,3.9-5.1,7.1-4.4l0,0
		c0.4,0.1,0.4,0.1,2.4,0.8c61.7,22,111.2,35.5,132.5,36.1l0,0c6.6,0.2,8.1,9.5,1.8,11.7l0,0c-18.3,6.4-25.9,17.3-29,25.3
		c-3.6,9.3-3.3,20.1,1,28.3c26.8,40.3,44.4,77.5,52.5,110.4c7.2,29.7,6.9,56.8-1.1,80.5c-22.3,66.2-98.7,92.7-144.3,108.5
		c-13,4.5-24.3,8.4-30.2,11.8l-0.1,0.1c-38.7,21.4-67.3,62.3-84.9,121.5L8050.7-3731.3z M8187.4-4249.7c-16.3-5.3-34.4-0.4-45.2,13
		c-20.5,25.3-56.5,37.6-94.1,50.4c-53.9,18.4-109.7,37.3-137.3,94.9c-37.6,78.4-6.2,173,9,210.1c24.5,59.5,57.5,98.6,76.2,105.3
		c4.7,1.7,9.7,3.8,14.9,6.3c17.7,8.6,38.9,0.7,47.2-17.1c18.3-39,43-67.2,73.9-84.3c6.9-4,18.1-7.9,32.2-12.8
		c43.5-15.1,116.4-40.3,136.9-101c15.6-46.3-1.2-107.1-50.1-180.7l-0.3-0.5c-6-11.4-6.6-25.8-1.6-38.6c0.2-0.5,0.4-1,0.6-1.5
		c5.1-11.9-1.4-25.5-13.9-28.9C8219.6-4239.5,8202.6-4244.8,8187.4-4249.7z"/>
	<path fill="#FFFFFF" d="M8330-3498.9c-2.8,0-5.5,0-8.2-0.1c-47.6-1.3-78.8-13.2-87.8-33.5c-20.6-46.1-112.4-149-190.1-203.5
		l-3.5-2.5l1.2-4.1c18.5-62.3,48.9-105.5,90.5-128.5c6.3-3.8,17.1-7.5,30.6-12.2c44-15.3,117.5-40.8,138.2-102.6
		c15.6-46.5-1.2-106.9-49.9-179.6l-0.2-0.3c-6.2-10.4-7.3-24-2.9-36.4c5.4-15.4,18.6-27.7,37.2-34.7l1.3-0.5l1.3,0.1
		c58.3,4.8,106.8,2.5,161.7-2.6l2.2-0.2c2.8-0.3,5.4,1.5,6.3,4.2l0,0c9.3,30.7,28.9,70.6,51.6,116.8c33.9,69,76,155,98.4,242.5
		c26.3,103,20.7,188.9-17,262.6c-23.4,45.6-75.9,73.1-115.8,88.1C8429.7-3508.8,8376.1-3498.9,8330-3498.9z M8072.7-3789.4
		c-12.5,24.5-6.2,54.3,14.9,72c26.7,22.3,54.8,49.2,81.1,77.8c37.1,40.2,65.5,78.4,76.2,102.2c6.9,15.4,35.8,25.3,77.2,26.4
		c46.4,1.2,102-8.5,148.6-26.1c38-14.3,87.8-40.2,109.4-82.3c82.3-160.7-12.3-353.6-81.4-494.4c-14.5-29.6-27.8-56.6-38-80.5
		c-8.4-19.7-28.4-31.9-49.7-30.5c-36.4,2.4-71.6,3-111,0.4c-13.4-0.9-26.6,4.7-34.8,15.3c-2.9,3.8-4.8,7.5-5.9,10.8
		c-3.2,9-2.5,18.8,1.8,26.1c26.7,39.9,44.3,76.8,52.3,109.6c7.2,29.6,6.8,56.6-1.1,80.4c-22.6,67.4-99.7,94.2-145.7,110.2
		c-12.5,4.3-23.2,8.1-28.5,11.2l-0.2,0.1C8111.3-3846,8089.5-3822.1,8072.7-3789.4z"/>
	<path opacity="0.56" fill="#FFFFFF" d="M5041.7-3292c-7.4-0.7-20.6-2.8-29.1-4.1c-4.4-0.7-8.6,2.3-9.3,6.8
		c-11,70.3-11.5,139.8,11.6,209.4c14.8,44.7,34.8,85.8,58.2,125c1.8,3.1,5.4,4.5,8.9,3.7c36.4-8.9,71.2-25.8,102.8-50.2
		c47.4-36.5,85.8-88,110.9-149.1c18.5-44.9,29.2-93.1,31.8-143.4c0.2-4.3,0.4-12.1,0.5-18.7c0.1-5.5-5.2-9.5-10.5-7.9
		c-39,12.1-80.4,19-119.7,25.5c-51.9,9-103.8,4-155.7,3C5042.1-3292,5041.9-3292,5041.7-3292z"/>
	<path opacity="0.56" fill="#FFFFFF" d="M5206.9-3616.6C5206.9-3616.6,5206.9-3616.6,5206.9-3616.6l-0.4-0.4
		c-53.7-49.6-117.8-75.8-185.4-75.8c-9,0-17.9,0.5-26.7,1.4c-4.6,0.5-6.8,5.8-4,9.4c17.3,22.6,31.4,46.9,36.7,74.9
		c14,77,14,151-5,228c-6.3,25.4-11.9,50.6-16.3,75.7c-0.6,3.2,1.6,6.3,4.9,6.8c8.3,1.3,23.3,3.7,31.3,4.4c0.1,0,0.3,0,0.4,0
		c51.9,1,103.9,6,155.8-3c41.5-6.9,85.3-14.3,126.1-27.6c2.4-0.8,4.1-3.1,4-5.7c-1.2-56-12.3-109.5-33-159.3
		C5274.3-3537.8,5243.8-3582.4,5206.9-3616.6z"/>
	<path opacity="0.56" fill="#FFFFFF" d="M4719.7-3332.2c-3.4,1-5.6,4.2-5.6,7.7c0,8.6,0.1,23.5,0.4,29.3v0v0
		c4.7,94.9,38.6,183.2,95.3,248.7c57.3,66.1,132.3,102.6,211.3,102.6c14.7,0,29.4-1.3,43.8-3.8c5.5-1,8.3-7.2,5.5-12
		c-22.2-37.8-41.3-77.4-55.4-120.3c-23.1-69.4-22.7-138.8-11.7-208.9c0.7-4.6-2.6-8.8-7.2-9.2c-48.6-4.7-96.3-15.2-143.1-30.9
		C4811.3-3342.1,4762.2-3345.5,4719.7-3332.2z"/>
	<path opacity="0.56" fill="#FFFFFF" d="M5027-3607c-5.2-27.9-19.2-52-36.3-74.5c-4.1-5.4-10.9-8-17.6-6.7
		c-63.4,12.1-121.9,47.9-168.2,103.9l0,0c0,0,0,0,0,0c-28.5,34.4-50.9,74.7-66.5,119.5c-12.2,34.9-19.8,71.5-22.9,109.1
		c-1,11.9,9.8,21.4,21.6,19c38.2-7.8,79.9-3.7,116,7.6c44.2,14.7,89.2,25,135,30c9.3,1,17.8-5.3,19.6-14.5
		c4.1-21.8,9.1-43.6,14.5-65.5C5041-3456,5041-3530,5027-3607z"/>
	<path opacity="0.56" fill="#FFFFFF" d="M5077.6-2944.1c-2.5,0.6-5.1-0.5-6.4-2.7l0,0c-27.3-45-47.5-87.9-61.8-131.3
		c-21.6-64.7-24.9-134.7-10.6-220.2l0,0c0.5-3.1,3.3-5.2,6.4-5l1.6,0.1c0.8,0.1,1.6,0.1,2.5,0.2c6.8,0,13.4,1.4,19.8,2.7
		c4.6,1,9,1.9,13.3,2.3c11.5,0.2,23.2,0.6,34.5,1.1c39.5,1.4,80.3,2.9,120.1-4c41-6.8,87.5-14.6,129.4-28.7l0,0
		c3.9-1.3,7.9,1.5,7.9,5.6v0c0,1.9,0,3.8,0,5.7c0,8.2-0.2,16.5-0.7,24.7c-2.7,50.9-13.6,99.8-32.3,145.3
		c-25.5,62-64.5,114.4-112.8,151.5C5154.6-2970.6,5117.2-2952.9,5077.6-2944.1L5077.6-2944.1z M5026.5-3288.6
		c-9.1-1.9-17.9,4.3-19.1,13.5c-10.1,73.9-5.7,135.8,13.4,193.1c10,30.4,23.1,60.6,39.5,91.6c11.1,20.9,36.3,29.9,58.1,20.8
		c22-9.2,43-21.4,62.9-36.7c46.6-35.9,84.3-86.5,109-146.6c18.2-44.2,28.8-91.8,31.4-141.4l0-0.2c0.5-10.4-9.2-18.2-19.2-15.5
		c-34.7,9.4-70.8,15.4-103.5,20.8c-41,7.1-82.5,5.6-122.5,4.1c-11.3-0.4-23.1-0.8-34.6-1.1l-0.4,0c-5.1-0.5-10-1.5-14.8-2.5
		L5026.5-3288.6z"/>
	<path opacity="0.56" fill="#FFFFFF" d="M5127-3283.7c-17,0-33.9-0.6-50.6-1.2c-11.3-0.4-23.1-0.8-34.6-1.1l-0.4,0
		c-5.1-0.5-10-1.5-14.8-2.5c-6.2-1.3-12-2.5-17.6-2.5l-0.5,0c-0.9-0.1-1.9-0.2-2.8-0.2l-1.6-0.1c-3.5-0.3-6-3.5-5.4-7l0,0
		c4.1-24.6,9.7-50.7,17.4-82.1c18-73.1,19.6-144.7,4.9-225.5c-6.1-32.8-25.6-60.2-41.8-80.4l-4.5-5.6c-0.9-1.1-0.2-2.8,1.3-3l7-1.1
		c12.6-1.8,25.4-2.8,38-2.8c69.1,0,134.6,26.8,189.5,77.4l0.5,0.5c37.4,34.7,68.4,80,89.6,130.9c21.5,51.8,32.8,107.6,33.5,165.9
		l0,0c0,2.6-1.6,4.9-4.1,5.8l0,0c-42.7,14.5-89.7,22.3-131.2,29.2C5175-3284.9,5150.9-3283.7,5127-3283.7z M5042.3-3298
		c11.5,0.2,23.2,0.6,34.5,1.1c39.5,1.4,80.3,2.9,120.1-4c31-5.2,65.2-10.9,98.1-19.4c16.1-4.2,27-19.4,25.7-36
		c-3.7-45-14.1-88.3-31.1-128.9c-20.6-49.4-50.6-93.3-86.8-126.9l-0.4-0.4c-52.6-48.6-115.3-74.2-181.3-74.2l-0.3,0
		c-10.9,0-17.5,12-11.7,21.2c10.5,16.5,19.7,35.8,23.7,57.4c14.8,81.4,13.1,156.8-5.1,230.5c-5.1,20.8-9.3,39.2-12.7,56.4
		c-1.9,9.6,4.2,18.9,13.8,20.9l0.2,0C5033.7-3299.3,5038-3298.4,5042.3-3298z"/>
	<path opacity="0.56" fill="#FFFFFF" d="M5021.1-2937.9c-80.7,0-157.4-37.2-215.8-104.6c-57.6-66.5-92-156.2-96.8-252.4
		c-0.4-7.8-0.6-15.7-0.6-23.4c0-3.6,0.1-7.5,0.2-12.2v0c0.1-2.5,1.7-4.7,4-5.5l0,0c41.6-14.7,93.6-14.2,142.7,1.3
		c50.2,16.7,100.7,27.3,150.3,31.4l0,0c3.5,0.3,6,3.5,5.4,7v0c-14,83.5-10.8,151.7,10.1,214.5c14,42.5,33.9,84.6,60.7,128.8v0
		c2.1,3.5,0.2,8.1-3.8,9l0,0C5059-2940,5040-2937.9,5021.1-2937.9z M4748.5-3332.6c-16.6,2.4-28.7,16.9-28.2,33.6
		c0,1.3,0.1,2.5,0.1,3.4c4.7,93.5,38,180.6,93.9,245.1c56.1,64.8,129.5,100.5,206.7,100.5c7.8,0,15.6-0.4,23.4-1.1
		c10.6-1,16.6-12.6,11.4-21.9c-19.8-35.7-35.2-70.3-46.7-105.2c-19-57-23.9-118-15-190.2c1.6-12.9-7.5-24.6-20.4-26.3
		c-40.8-5.4-82-15-122.8-28.7C4816.7-3334.2,4780.8-3337.3,4748.5-3332.6z"/>
	<path opacity="0.56" fill="#FFFFFF" d="M5010.6-3296.4c-0.5,3.1-3.3,5.2-6.4,5h0c-50.6-4.2-102.1-14.9-153.1-31.9
		c-46.6-14.7-95.8-15.2-135-1.4l0,0c-4,1.4-8.1-1.6-8-5.8v0c1.2-47.2,9.5-93.1,24.5-136.3c15.9-45.5,38.6-86.3,67.6-121.3
		c50-60.4,113.2-97.7,182.9-107.9l0,0c2.1-0.3,4.2,0.5,5.5,2.2l0,0c17.1,21.3,37.7,50.3,44.3,85.7l0,0
		c14.8,81.3,13.1,156.7-5.1,230.5C5020.1-3346.5,5014.7-3320.7,5010.6-3296.4L5010.6-3296.4z M4778.5-3346.7c25,0,51,4,76.3,11.9
		c41.9,14,84,23.6,125.7,28.8c10.6,1.3,20.5-5.7,22.6-16.3c3.5-17.8,7.8-36.8,13.1-58.3c18-73.1,19.6-144.7,4.9-225.5
		c-4.9-26.2-18.3-49-31.8-67.4c-4.8-6.5-13-9.5-20.9-7.8c-60.2,12.9-114.8,47.4-158.9,100.7c-28.1,33.9-50.1,73.5-65.5,117.6
		c-11.2,32-18.5,65.5-21.9,100c-1.1,11.5,9,21,20.4,19.1C4754.1-3345.7,4766.2-3346.7,4778.5-3346.7z"/>
	<path opacity="0.58" fill="#FFFFFF" d="M5580.1-2556c-50.4-46.6-113.2-74.2-181.3-74.2c-82.5,0-157.2,40.6-211.6,106.3
		c45.3,28.7,135.4,108.8,140.4,113.8c25,23,46,46,68,71c24,27.9,46,58.5,71,85c24.8-101.4,52.7-195.2,104-287
		C5573.6-2546.4,5576.8-2551.3,5580.1-2556z"/>
	<path opacity="0.58" fill="#FFFFFF" d="M5579.5-2556.6l-8.9,15.4c-51.3,91.8-79.3,185.5-104,286.9c0,0,0,0.1,0,0.1
		c27,28.5,57.5,52.1,98,62c44,11,86-11,124-39c0,0,0,0,0,0c3.6-2.3,7.1-4.5,10.7-6.5c0,0,0,0,0-0.1c0.4-7.9,0.6-16,0.6-24
		C5700-2382.4,5652.7-2489.4,5579.5-2556.6z"/>
	<path opacity="0.58" fill="#FFFFFF" d="M5452.6-2056.2c-41-8-144-53-159-62c-67.9-39-127.1-84.1-195.4-120.8
		c9.6,192.8,140.5,345.6,300.6,345.6c117.7,0,219.6-82.6,269.1-202.9c-29,21.4-63.8,33.9-99.4,41.1
		C5530.6-2048.2,5492.6-2049.2,5452.6-2056.2z"/>
	<path opacity="0.58" fill="#FFFFFF" d="M5688.6-2231.2c-38,28-80,50-124,39c-78-19-119-89-169-147c-22-25-43-48-68-71
		c-5-5-95.1-85-140.4-113.8c-55.3,66.8-89.5,159.6-89.5,262.1c0,7.7,0.2,15.3,0.6,22.8c68.3,36.7,127.5,81.8,195.4,120.8
		c15,9,118,54,159,62c40,7,78,8,116,1c35.5-7.3,70.4-19.8,99.4-41.1c17.7-43,28.7-90.8,31.4-141.4
		C5695.7-2235.7,5692.2-2233.5,5688.6-2231.2z"/>
	<path opacity="0.58" fill="#FFFFFF" d="M5472.1-2251.8c-1,4.2-6.3,5.6-9.2,2.4l-0.7-0.7c-15.1-16-29.3-33.7-43-50.9
		c-9.1-11.4-18.5-23.2-28.1-34.3c-23.2-26.4-43.6-48.5-67.5-70.5l-0.2-0.2c-5.9-5.9-94.8-84.6-139.4-112.9v0
		c-3.1-1.9-3.7-6.1-1.4-8.9v0c57.9-70,134.7-108.5,216.3-108.5c67.6,0,131.7,26.2,185.4,75.8l0.4,0.3c2,1.9,2.3,4.9,0.7,7.1
		l-0.3,0.4c-3.5,5-6.6,9.7-9.3,14.3c-49.7,88.9-77.3,178.4-103.4,285.4L5472.1-2251.8z M5331.7-2414.6
		c24.2,22.3,44.8,44.7,68.4,71.4c9.8,11.3,19.3,23.2,28.4,34.7c8.4,10.5,17,21.3,25.9,31.6c3.8,4.4,10.9,2.7,12.3-2.9
		c24.7-97.5,52-181.1,98.6-264.4l0.8-1.3c3.4-5.8,2.1-13.3-3.1-17.6c-48.6-40.1-105-61.2-164.2-61.2c-72.6,0-141.5,32.1-195.5,90.9
		c-3.8,4.2-3.2,10.8,1.5,14.1C5252.2-2485.6,5325.6-2420.6,5331.7-2414.6z"/>
	<path opacity="0.58" fill="#FFFFFF" d="M5588.2-2183.3c-8.2,0-16.6-1-25.1-3.1c-36.5-8.9-67.7-28.6-100.9-63.7v0
		c-1.4-1.5-2-3.6-1.5-5.5l0,0c26.3-108,54.2-198.4,104.6-288.5c2.9-5.1,6.1-10.1,9.9-15.4l0,0c2.1-3,6.3-3.4,9-0.9l0,0
		c37,34.2,67.7,78.9,88.7,129.3c22,52.7,33.1,109.7,33.1,169.2c0,8.1-0.2,16.3-0.6,24.4l0,0c-0.1,2-1.2,3.9-3,4.9l0,0
		c-3.6,2.1-7,4.2-10.4,6.3C5663.8-2205.5,5627.8-2183.3,5588.2-2183.3z M5475.8-2266.6c-1.7,6.7,0.4,13.8,5.4,18.6
		c27.8,26.9,54.4,42.5,84.9,50c44.6,11.2,87.1-14.4,119-38l0.3-0.2l0.1-0.1c5.1-3.3,8.3-8.8,8.4-14.9c0.1-3.5,0.1-7.1,0.1-10.6
		c0-108.6-38.4-208.8-105.8-278c-3.6-3.7-9.8-3-12.4,1.5l0,0.1C5528.2-2453.2,5500.9-2367.6,5475.8-2266.6z"/>
	<path opacity="0.58" fill="#FFFFFF" d="M5398.8-1887.5c-79,0-154-36.4-211.3-102.6c-56.7-65.5-90.6-153.9-95.3-248.7v0
		c-0.2-4.7,4.7-7.8,8.8-5.6v0c37.8,20.3,73.4,43.6,107.9,66.1c28.1,18.4,57.3,37.4,87.6,54.8l0.1,0.1c15.5,9.3,117.9,53.6,157,61.2
		c41.1,7.2,78.4,7.5,113.8,1c39.2-8,71.8-21.5,97-40.1l0,0c4.9-3.6,11.4,1.5,9.1,7.1l0,0c-25.1,61-63.5,112.6-110.9,149.1
		C5513.6-1907.4,5457-1887.5,5398.8-1887.5z M5130.4-2213.8c-10.8-6.4-24.1,2.5-22.3,14.9c24.4,170.9,146.2,299.5,290.7,299.5
		c94,0,180.2-53.7,235.4-143.6c6.8-11.1-4.2-24.5-16.4-19.9c-14.8,5.6-30.9,10.1-48.1,13.7l-0.1,0c-36.9,6.8-75.5,6.5-118.1-1
		l-0.1,0c-41-8-144.4-52.8-160.9-62.7c-30.6-17.6-59.9-36.7-88.1-55.2C5179-2183.5,5155.1-2199.1,5130.4-2213.8z"/>
	<path opacity="0.58" fill="#FFFFFF" d="M5515.5-2044.5c-20.4,0-41.6-1.9-63.9-5.8l-0.1,0c-41-8-144.4-52.8-160.9-62.7
		c-30.6-17.6-59.9-36.7-88.2-55.2c-34.3-22.4-69.7-45.5-107-65.5v0c-1.9-1-3-2.9-3.2-5l0,0c-0.4-7.7-0.6-15.5-0.6-23.1
		c0-50.8,8.2-100.1,24.4-146.4c15.6-44.8,38-85,66.5-119.5l0,0c1.9-2.3,5.3-2.9,7.8-1.2v0c45.1,28.6,134.5,107.8,141.3,114.5
		c24.2,22.3,44.8,44.7,68.4,71.4c9.8,11.3,19.3,23.2,28.4,34.7c39.3,49.2,76.5,95.6,137.5,110.5c44.6,11.2,87.1-14.4,119-38l0.3-0.2
		c3.5-2.3,7.1-4.5,11-6.7l0,0c4.1-2.4,9.2,0.8,9,5.5v0c-2.7,50.3-13.4,98.5-31.8,143.4l0,0c-0.4,1-1.1,1.9-2,2.5l0,0
		c-26.6,19.6-60.8,33.8-101.7,42.2l-0.1,0C5552.1-2046.1,5534.1-2044.5,5515.5-2044.5z M5453.7-2062.1c41.1,7.2,78.3,7.5,113.8,1
		c25.4-5.2,48.1-12.7,67.7-22.4c18-8.9,31.6-24.6,37.8-43.7c8.1-24.9,13.9-50.7,17.4-77.1c1.6-12.2-5.4-16.6-15.7-9.8
		c-31.5,20.7-70.1,38.1-111.5,27.7c-64.9-15.8-105.1-66-144-114.6c-9.1-11.4-18.6-23.2-28.1-34.3c-23.2-26.4-43.6-48.5-67.5-70.5
		l-0.2-0.2c-5.3-5.3-78.6-70.3-125.5-103.6c-5.3-3.7-12.5-2.6-16.4,2.6c-50.3,67-77.8,153.4-77.8,245.1l0,2.6c0,10,5.3,19.2,14,24.1
		c31.7,18,61.9,37.7,91.3,56.9c28.1,18.4,57.3,37.4,87.6,54.8l0.1,0.1C5312.2-2114,5414.6-2069.8,5453.7-2062.1z"/>
</g>
</svg>
