<svg id="Walls" xmlns="http://www.w3.org/2000/svg" width="4642.67" height="9286.47" viewBox="0 0 4642.67 9286.47"><defs><style>.cls-1,.cls-2{fill:#fff;}.cls-1{opacity:0.83;}</style></defs><title>CreditsGeomOfficial</title><path class="cls-1" d="M3091.14,109.7c-72.72-38-187.51-70.14-259.34-71.07-69.4-.9-135.81,4.08-197.38,14.79-59.12,10.29-115.75,26.21-168.3,47.33a767.71,767.71,0,0,0-142.57,75.62C2242.85,230.78,2170.06,301.63,2101,393c-54.9,72.63-77.62,206-139,321.54-37.44,70.51-113.08,114.11-192.69,111.12-119.43-4.52-270.83-44-374.87-32.22C1292.28,805,1196.2,824.72,1108.92,852c-85.75,26.82-165.34,61.69-236.56,103.65a950,950,0,0,0-189.17,145.81C623.28,1161.3,571,1230.33,527.71,1306.64c-42,74.1-76.56,157-102.71,246.36-50,170.81-33.07,414.77-24.86,640,1.35,37.14-12.46,73.23-37.89,99C247.76,2408,121.73,2527.8,73.56,2634.12c-47.81,105.52-63.45,208-46.47,304.55,9.62,54.71,29.9,108.52,60.29,159.94,29.43,49.8,69.15,98.72,118.07,145.41,47.38,45.22,104.8,89.68,170.66,132.17,64,41.27,137.86,81.91,219.56,120.78,73.85,35.13,181.56,76.31,234.24,136.26,37.09,42.2,64.79,84.08,82.34,124.47a47.93,47.93,0,0,1-.83,40.26c-0.09.19-.2,0.37-0.29,0.56,21.54,8.76,42.82,18.05,64.18,27.17,12.86-27.13,5.68-69.76-6.3-97.35-19.83-45.64-56.91-84.92-97.78-131.42-57.63-65.58-127.74-118.29-208.37-156.65-323.63-154-504.66-328.3-538-518.15C94,2746.89,206,2556.91,420.3,2339.64c36-36.52,55.6-87.42,53.7-139.64-16.4-450,67.33-797.94,286.14-1016.44,218.34-218,557.19-320,1007.15-302.94,49.71,1.88,124,15.24,167-9.62s53-86.71,76.3-130.67c93.43-176,203.26-354.59,372.76-468.84C2562.19,151,2790.76,115.79,3082.17,164a27.49,27.49,0,0,0,31.62-22.65C3116.26,126.33,3106.35,117.65,3091.14,109.7Z" transform="translate(598.43 -38.53)"/><path class="cls-1" d="M4037.28,1238c-2.25-108.8-20.7-218.84-54.84-327.05-33.8-107.13-52.22-238.77-113.44-333.26-62.39-96.3-205-161.88-288.94-234.28A27.5,27.5,0,0,0,3544.14,385c158.63,136.78,281.94,326.07,347.22,533,66.12,209.56,69.53,428.91,9.6,617.65-118.83,374.29-477,579.37-988.2,629-82.87,8-154.44,61-186.77,138.34-158,377.53-440.12,667.49-860.61,805.83-39.9,13.13-75.4,39.6-100,74.54-110.67,157.37-176.4,304.35-201,449.33-3.79,22.38-3.89,58,12.53,73.64,16.2,15.46,46.53,9,68.34,4.22q31.67-6.91,62.17-10.76c6.66-20.29,12.72-40.9,16.49-62.78,0-.24.07-0.47,0.12-0.71-29.77,6.62-60,13.87-90.5,20.52a12,12,0,0,1-11-3.15,13.11,13.11,0,0,1-3.91-11.78C1641.85,3505.15,1801,3517,1810.41,3215c1-30.95,43.44-44.48,72.17-53.93,109.16-35.91,243.79-48.44,336-100s191.22-86.77,266.42-154,128.47-168.25,186.55-251c57.87-82.42,75.42-205.64,116.33-303.42,24.51-58.57,78.67-98.74,141.35-104.82,280.67-27.24,585.11-69.46,763.6-199.79,81.92-59.82,152.09-130.35,208.56-209.64A893,893,0,0,0,4025,1590C4057.39,1488,4039.61,1350.88,4037.28,1238Z" transform="translate(598.43 -38.53)"/><path class="cls-2" d="M1779.62,7349.82c-53.73,35.33-99.1,107.59-84.62,167.18,8.06,33.18,38.81,62,67,81,21.41,14.43,55,11.71,84.59,12.65,399.27,12.7,676.68,169.08,781.12,440.34,95.41,247.82,19.88,557.89-183.68,754-217.15,209.23-527.55,249.63-851.6,110.84a194.17,194.17,0,0,0-102.13-14,191.06,191.06,0,0,0-94.82,40.68c-291.6,235.64-620,321.94-924.79,243C121,9095-169.05,8804-346,8366.35c-147-363.53-206.64-931-8.6-1379.36C-238,6723-40.9,6521,222.44,6389.37c21.31,11.75,74.31,22.38,21.56-45.87-75.81-72.51-65.75-21.37-61-.62-137,61.88-281.56,142.22-371.78,228.5-116.83,111.72-210.41,246.11-278.14,399.43-51.15,115.81-87.92,243.25-109.27,378.79-19.3,122.49-26.09,251.69-20.18,384a2158,2158,0,0,0,46.35,358c23.43,108.53,54,209.92,91,301.36,46.11,114.06,162.72,214.15,224.31,309.38,60.36,93.33,116.2,232.77,189.43,305,72.38,71.37,150.79,131.95,233.06,180.06,82,48,168.57,83.94,257.19,106.89A954.4,954.4,0,0,0,685,9325c81.31,0,163.29-10.35,245.33-31.05,168.46-42.5,344.48-183.16,499.7-308.6,39.52-31.93,93.44-39.19,140.73-18.93,92.76,39.73,203,115,292.74,127.11,84.84,11.47,168.12,10.43,247.53-3.08a734.72,734.72,0,0,0,214-71.32,743.55,743.55,0,0,0,174.81-125.56A786.59,786.59,0,0,0,2637,8717c36.82-64.46,46.76-182.43,64.51-254.08,17.9-72.28,92.9-214.83,89.53-287-3.48-74.6-18.41-146.61-44.37-214a646.17,646.17,0,0,0-105.78-180.58c-47.33-57.09-105.17-107-171.89-148.34-145.69-90.26-399.39-70.29-620.66-77.33-19.22-.61-36.15-5.5-49-14.13-16.7-11.25-27.14-26.31-31.93-46-9-37.07,8-77.15,42.39-99.75,46.36-30.49,124.86-56.54,155.16-87.08,37.1-37.39,66.68-82.6,86.5-126.2,27.91,4.17,59.5-21-31.17-72.17-57.83-27.33-106.53-19.76-62.28,25.43C1935,7239.94,1876,7286.42,1779.62,7349.82Z" transform="translate(598.43 -38.53)"/><path class="cls-2" d="M3227.21,4475.2c-4.11-172.83-70-387.83-232.21-512.2-177.25-135.91-455.36-167.55-755.67-188.61a72.15,72.15,0,0,1-37.8-13.41c-79-58-164.59-124.58-258.53-142-68.2-12.64-135.85.26-212.67,17.33,0,0.24-23.33-53.67-39.33,30.05-15.63,81.76,29.73,31.84,29.73,31.84,174.07-22.21,307.34,29.13,437.79,124.84A127,127,0,0,0,2225,3847c289.52,20.3,542.18,81.64,710.84,211,148.72,114,232.67,262.68,236.38,418.54C3179,4763.39,2905.54,5086,2279.13,5160a48.33,48.33,0,0,0-38.51,28c-7.22,15.69-13.75,33.58-4.09,48,11.09,16.51,6.79,24,4.48,28-8,14-16.31,35.46-10,50,6.18,14.22,33.68,20.08,48.86,23.64,69.22,16.25,246.7,61.64,399.42,132,83.42,38.41,147.43,78.63,190.25,119.55,48.07,45.94,68.29,90.66,61.82,136.69-15.68,111.54-85.93,200.2-208.8,263.53-113.39,58.45-266.51,91.89-442.79,96.69-26.27.72-70.16-7.93-87.67,11.83s-6.29,66-3.83,92.18c13.68,145.92,4.75,266.28-26.54,357.73-31.21,91.22-102,151.48-178.12,189.05-32.86,16.23-49.58,54.05-39.75,89.93,32.24,117.64,37.77,209.26,21.21,284,31.86,17.29,63,33.19,94.59,50.7,28.76-95.46-6.86-211.17-44.07-346.91-2.88-10.52,1.77-21.49,11.06-26.08,88.52-43.72,177.81-104.15,213.46-208.34,17.12-50,28.22-107.85,33-171.81,4.66-62.52-22.94-147.37-30.07-223.43a40.11,40.11,0,0,1,10-30.65,38.8,38.8,0,0,1,28.23-13.25c184.49-5,399-43.07,519.69-105.28,66.23-34.14,119.89-76.16,159.48-124.9,42.76-52.63,69.2-113.15,78.58-179.86,9-63.93-17.35-125.87-78.28-184.11-47.23-45.14-116.28-88.8-205.25-129.75-126-58-320.83-96.87-408.63-119.59a54.11,54.11,0,0,1-40.23-48.46q0-.38-0.06-0.76a37.66,37.66,0,0,1,32.06-40.69c131.49-19.05,298.85-10.56,406.7-52.93,115-45.19,214.49-103,295.69-171.7C3195.05,4852.57,3231.29,4646.74,3227.21,4475.2Z" transform="translate(598.43 -38.53)"/><path class="cls-2" d="M365.36,6327.77a169.37,169.37,0,0,0,70.13-49.19,173.28,173.28,0,0,0,37.42-76.85c40.6-196.41,115.63-408.45,364.26-492a143.32,143.32,0,0,0,81.42-69.53c48-91.19,138.78-164,269.82-216.49,134.85-54,315.39-87.71,536.62-100.25,15.81-.9,35.7-6.49,43-20.46,7.39-14.2,9.51-33.27,1-47-6.65-10.73-6.44-20,.73-31.9,8.43-14,.1-31.86-7.36-46.25a44.93,44.93,0,0,0-36.92-24.25c-508.7-36.61-751-304.06-762.66-841.66-0.51-23.39,1.09-52.38-15.79-68.45s-50-17.18-73.16-16.53c-107.17,3-196.14-8.3-257.27-32.57-26.39-10.47-47-23.06-61.2-37.42-12.14-12.25-19.29-25.58-21.24-39.61-2.28-16.33,2.26-34.22,13.49-53.17,12.95-21.84,34-43.86,62.49-65.44,65.25-49.37,163.37-91.67,283.75-122.33,19-4.83,47.81-12.44,64-35.44,0,0,22.63-3.27,27.67-12.83,6.5-12.33-18.5-30.67-36-38.1-10.43-4.43-46.67-15.4-52.67-4.24-4.06,7.56,3.32,22.84,3.32,22.84-6.48,6.65-13.2,12.76-19.87,14.46-127.43,32.45-289.94,73.8-361,127.56-34.23,25.91-60,53.24-76.61,81.25-17.74,29.93-24.69,59.81-20.65,88.8,3.63,26,16,49.84,36.64,70.72,19.6,19.78,46.51,36.55,80,49.84,69,27.38,220.48,43.85,336.69,40.64a31.17,31.17,0,0,1,22.55,8.65,31.84,31.84,0,0,1,9.9,22.54c3.24,149.95-5.91,303.71,33.75,415.26C979.92,4836.32,1036.26,4928,1109,5001c69.14,69.35,155.19,123.82,255.76,161.89,76.32,28.9,194.13,28,290,39.27a52.66,52.66,0,0,1,46.08,46.61l0.07,0.62a19.49,19.49,0,0,1-18.08,21.62c-98.21,6.81-212.22-4.65-293.23,10.54-92.14,17.28-174.58,40.33-245,68.53-71.23,28.52-132.32,63.14-181.57,102.92-50,40.37-65.78,109.72-93.08,161.59a88.57,88.57,0,0,1-50.27,43c-62,20.83-136.47,31.8-183.82,68.59-44,34.16-82.61,76.15-114.84,124.81-54.1,81.67-73.51,202-101.95,339.6-8.22,39.76-35.43,71.76-72.79,85.6-48.82,18.08-100.16,38.59-151.68,61.26a534.58,534.58,0,0,1,54.87,38.74Q305.38,6350,365.36,6327.77Z" transform="translate(598.43 -38.53)"/><path class="cls-2" d="M3091.14,109.7c-72.72-38-187.51-70.14-259.34-71.07-69.4-.9-135.81,4.08-197.38,14.79-59.12,10.29-115.75,26.21-168.3,47.33a767.71,767.71,0,0,0-142.57,75.62C2242.85,230.78,2170.06,301.63,2101,393c-54.9,72.63-77.62,206-139,321.54-37.44,70.51-113.08,114.11-192.69,111.12-119.43-4.52-270.83-44-374.87-32.22C1292.28,805,1196.2,824.72,1108.92,852c-85.75,26.82-165.34,61.69-236.56,103.65a950,950,0,0,0-189.17,145.81C623.28,1161.3,571,1230.33,527.71,1306.64c-42,74.1-76.56,157-102.71,246.36-50,170.81-33.07,414.77-24.86,640,1.35,37.14-12.46,73.23-37.89,99C247.76,2408,121.73,2527.8,73.56,2634.12c-47.81,105.52-63.45,208-46.47,304.55,9.62,54.71,29.9,108.52,60.29,159.94,29.43,49.8,69.15,98.72,118.07,145.41,47.38,45.22,104.8,89.68,170.66,132.17,64,41.27,137.86,81.91,219.56,120.78,73.85,35.13,181.56,76.31,234.24,136.26,37.09,42.2,64.79,84.08,82.34,124.47a47.93,47.93,0,0,1-.83,40.26c-0.09.19-.2,0.37-0.29,0.56,21.54,8.76,42.82,18.05,64.18,27.17,12.86-27.13,5.68-69.76-6.3-97.35-19.83-45.64-56.91-84.92-97.78-131.42-57.63-65.58-127.74-118.29-208.37-156.65-323.63-154-504.66-328.3-538-518.15C94,2746.89,206,2556.91,420.3,2339.64c36-36.52,55.6-87.42,53.7-139.64-16.4-450,67.33-797.94,286.14-1016.44,218.34-218,557.19-320,1007.15-302.94,49.71,1.88,124,15.24,167-9.62s53-86.71,76.3-130.67c93.43-176,203.26-354.59,372.76-468.84C2562.19,151,2790.76,115.79,3082.17,164a27.49,27.49,0,0,0,31.62-22.65C3116.26,126.33,3106.35,117.65,3091.14,109.7Z" transform="translate(598.43 -38.53)"/><path class="cls-2" d="M4037.28,1238c-2.25-108.8-20.7-218.84-54.84-327.05-33.8-107.13-52.22-238.77-113.44-333.26-62.39-96.3-205-161.88-288.94-234.28A27.5,27.5,0,0,0,3544.14,385c158.63,136.78,281.94,326.07,347.22,533,66.12,209.56,69.53,428.91,9.6,617.65-118.83,374.29-477,579.37-988.2,629-82.87,8-154.44,61-186.77,138.34-158,377.53-440.12,667.49-860.61,805.83-39.9,13.13-75.4,39.6-100,74.54-110.67,157.37-176.4,304.35-201,449.33-3.79,22.38-3.89,58,12.53,73.64,16.2,15.46,46.53,9,68.34,4.22q31.67-6.91,62.17-10.76c6.66-20.29,12.72-40.9,16.49-62.78,0-.24.07-0.47,0.12-0.71-29.77,6.62-60,13.87-90.5,20.52a12,12,0,0,1-11-3.15,13.11,13.11,0,0,1-3.91-11.78C1641.85,3505.15,1801,3517,1810.41,3215c1-30.95,43.44-44.48,72.17-53.93,109.16-35.91,243.79-48.44,336-100s191.22-86.77,266.42-154,128.47-168.25,186.55-251c57.87-82.42,75.42-205.64,116.33-303.42,24.51-58.57,78.67-98.74,141.35-104.82,280.67-27.24,585.11-69.46,763.6-199.79,81.92-59.82,152.09-130.35,208.56-209.64A893,893,0,0,0,4025,1590C4057.39,1488,4039.61,1350.88,4037.28,1238Z" transform="translate(598.43 -38.53)"/></svg>