<?xml version="1.0" encoding="utf-8"?>
<!-- Generator: Adobe Illustrator 18.0.0, SVG Export Plug-In . SVG Version: 6.00 Build 0)  -->
<!DOCTYPE svg PUBLIC "-//W3C//DTD SVG 1.1//EN" "http://www.w3.org/Graphics/SVG/1.1/DTD/svg11.dtd">
<svg version="1.1" xmlns="http://www.w3.org/2000/svg" xmlns:xlink="http://www.w3.org/1999/xlink" x="0px" y="0px"
	 viewBox="0 0 4096 4096" enable-background="new 0 0 4096 4096" xml:space="preserve">
<g id="Floors_Complete">
	<path fill="#00AEEF" d="M3640.9,3676.4C3513.5,3809,3277,3713,3145,3669s-468-232-568-432s-122.7-335.3-128-348s-11-30-32-32
		c-117.9-11.2-153.3-98.4-163.8-156.3c-5.5-30.3-27.8-54.6-57.3-63.2c-115.8-33.5-202.3-115.4-262.8-197.8
		c-15.4-20.9-37.5-35.7-62.7-41.9c-227.4-55.9-476.7-346.2-546.8-499c-12.2-26.7-41.6-41-70.1-34.1
		c-465.9,112.8-610.8-406.5-436.6-652.1c23.9-33.7,15.5-80.4-18.9-103.2C619.9,991,565.3,859.4,567.7,755
		c10-439.4,352.9-447.8,432.2-450.4c304.3-9.9,416.2,212,432.2,411.2S1313,981,1285,1049c-13.9,33.7,32.2,37,84.8,47.7
		C1615,1147,1639,1371,1521,1545c-22.3,32.9-35,101,9.9,107c108.9,14.6,376.8,84.8,557.7,433.6c10,19.3,29.2,32.2,50.8,34.4
		c315.6,31.5,461.2,186.2,502.6,252.2c7.7,12.2,19.7,21.1,33.8,24.5c46.2,11.1,96,45.1,131.8,97.2c43.7,63.6,108,219.1,88.6,436.3
		c-3,33.6,18.3,64.6,50.6,74.1C3335.4,3119.5,3811.9,3498.5,3640.9,3676.4z"/>
	<path fill="#00AEEF" d="M4327.3-3802.1c-220.3-42.2-393.4,62.1-496.3,247.2c-12.7,22.8-45.8,21.6-57.1-2
		c-68.4-143.3-278.9-350.4-560.9-338.2c-92.8,4-249.6,64.7-396,271.4c-30.9,43.6-87.1,61.1-137.3,42.8
		c-127.3-46.3-370-98.1-754.6-44.7c-32.2,4.5-64.9-4.2-90.8-23.9c-44.3-33.9-106.3-69.2-182.7-102.6
		c-132.5-57.9-392.3-120.1-419.5-121.5s-95.6,272.6-11.6,310.6c127,98.9,491.5,349.6,499.4,351c13,2,25,15,29,28
		c22,72-131.2,260.3-132.4,263c-54.2,119.8-112.1,321.1-74,476c16.3,66.3,103.5,126,241.9,146.5c144.9,21.5,260.5-0.6,330.3-78.4
		c119.3-133,172-342.8,184.4-488.7c5.4-63.2,55.8-113,119-118.2c121.6-10,258.6-35,350-70.8c33.5-13.1,71.7-4.3,95.7,22.5
		c71.3,79.5,193.2,173.5,314.4,193.4c21.1,3.5,37.7,19.8,41.9,40.7c17.2,85.6,100.8,168.4,190.6,212.6
		c27.9,13.7,49.8,37.4,61.7,66.2c24.6,59.4,71.4,129.1,204.3,145.7c188.2,23.6,309.5-65.4,323.9-292.1c0.3-4.9,3-9.4,7.2-12
		c24.5-14.8,109.9-71.6,166.6-175.4c3.7-6.7,11.7-9.7,18.8-6.8c132.2,54,540.3-101.2,552.2-414.1
		C4757.6-3597,4574.1-3754.8,4327.3-3802.1z M3915.8-2935.5c-15.7,14.3-35.2,33.4-56.2,56.8c-11.9,13.3-30.6,18.1-47.5,12.4
		c-81.3-27.5-174.9-2.8-232.5,31.8c-13,7.8-29.7,5.6-40.2-5.2c-4.6-4.7-9.1-8.9-13.3-12.6c-10.6-9.2-8.6-26.1,3.9-32.6
		c132.1-69.2,201.8-188.9,233.4-260.1c10.7-24.1,54.7-31.9,58.9-5.9c7.8,48.2,51.3,123.1,101.4,142.4
		C3949.6-2998.4,3936.4-2954.4,3915.8-2935.5z"/>
	<g>
		<path fill="#00AEEF" d="M968.2-3907.3C548.6-3928.8,169-3910.6-539-3383c-257.5,257.1-252.6,1577.1,92.1,1904.9
			c29.2,27.8,21.5,76.2-15.2,93c-0.9,0.4-1.8,0.8-2.7,1.3c-33.5,15.4-73.2,3.8-93.2-27.1c-64.9-100.1-240.3-164.4-360-142.9
			c-142.6,25.6-290.2,160.4-290.2,349.4s159.8,342,392.2,346.4c104.9,2,253.5-101.8,290.3-200.6c8.6-23.1,28-40.5,52.1-46.1
			c26.5-6.1,62.3-16.2,99.1-31.9c39.7-16.9,85.2-13.3,121.7,9.7C-123.7-1045.5,119.4-959,240.1-955c54.9-8,112.9-64,121.9-123
			c1-1,9-214,18-295c5-46,42-361,42-363c0-7,12.6-54.3,15.5-64c-27.7,3.2-54.4,6.7-80,10.6c-5.7,0.9-11.5-1.6-14.7-6.4
			c-61-91.1-206.9-78.8-248.1,14.6c-17.9,40.5-78.1,29.7-80.1-14.6c-0.5-10.2,0.2-21.9,2.4-35.3c58.7-366.2,42.6-734.5,1.3-1017.1
			C-7-2951-146-3111-141-3143s91-4,91-4l32.8-7.7c102.3-18.6,333.2-97.4,504.4-195.1c7.3-4.2,16.5-1.5,20.6,5.9
			c48.8,87.3,263.3,104.4,241.4-115c-0.7-7.4,4-14.2,11.2-16.1c45.5-11.5,128.4-56.8,248.3-85.1
			C1065.2-3573.5,1070.1-3895.5,968.2-3907.3z"/>
		<path fill="#00AEEF" d="M1274.5-1751.9c-67.9-16.1-135.5-28.7-202.1-38.3C1056.3-1775.8,958-1698,928-1675c-6,5-171,186-177,284
			c-8,98,17,178,15,231c-7,57-151.1,175.6-181,214c-79.6,102.3,7.3,230.4,7,231.6c144.6-49.3,475.9-53.2,693-19.1
			c2.1,0.3,94.1-114.8,177-219.3c1-4.7,4.2-8.6,8.5-10.5c97.5-43,421.8-97.7,442.9-350.6C1935-1573.4,1621.8-1669.6,1274.5-1751.9z"
			/>
	</g>
	<path fill="#00AEEF" d="M5284.7-3233.6c0-312.3,904.4-308.2,1300.1-204.9c91.9,24,189.7-7,250.2-80.3
		c470.9-570.2,1324.2-346.8,1419.1,27.2c94.9,374.1-688.4,748.2-1189.1,570.9c-70.8-25.1-148.4-22.7-217.5,6.7
		C6256.8-2663,5284.7-2890.2,5284.7-3233.6z"/>
	<path fill="#FFFFFF" d="M1532.6-2497.8c1.1,6.2-0.8,12.5-5.1,17c-68.8,74.1-166.1,113.9-275.6,113.9
		c-214.9,0-389.1-174.2-389.1-389.1c0-214.9,174.2-389.1,389.1-389.1c161.6,0,315.2,85,356.6,230.6c1.3,4.6,0.9,9.4-1.1,13.7
		C1560.1-2799.3,1517.3-2588.1,1532.6-2497.8z"/>
</g>
<g id="Walls_Complete">
	<g>
		<path fill="#FFFFFF" d="M2882.4,3492.5c-90.4-62-209.1-157.8-261.3-262.2c-81.1-162.2-110-293.7-120.9-338
			c-3-12.1-4.3-17.6-6.2-22.1c-0.3-0.8-0.7-1.6-1-2.4c-3.1-7.4-7.3-17.6-15.1-27c-10.8-13-25.6-20.7-42.8-22.3
			c-75.2-7.1-120.6-50.8-134.9-129.7c-3.8-20.8-13.3-40.1-27.6-55.8c-14.2-15.6-32.4-26.9-52.7-32.8
			c-92-26.6-174.6-89.1-245.6-185.8c-19.8-27-48.6-46.3-81.1-54.2c-206.3-50.7-452.6-323-525-480.9c-18.7-40.7-63.8-62.7-107.3-52.1
			c-170.4,41.2-310.8-4.7-395.4-129.5c-93.7-138.3-96.8-345.7-7-472.2c16.8-23.6,71.8-63.1,66.6-91.5c-5.2-28.2-70-41.7-94-57.6
			C639.6,948.9,613.6,816.9,615.1,749.6c3.5-156,19.9-288.4,188.4-400.8c14.9-10-45.5-0.1-63.4,0.1
			c-150.5,1.4-211.6-107.4-240-162.2c-21-40.5-49-160.9-11.2-238.7l-77.5-44.9c-11.6,20.8-14.3,29.2-22.2,51.7
			c-27.8,79.1-30,163.2-6.2,236.7c21.5,66.4,63.4,121.8,121,160.2c17.1,11.4,35.3,21.2,54.8,29.5c46,19.6,66.2,73.5,44.5,118.5
			c-0.7,1.5-1.4,2.9-2.1,4.4c-31.8,67.9-49,150-51.2,244c-1.5,64.2,16,127.8,52,189.1c12.2,20.9,44.7,48.7,71.6,77.4
			c82.2,87.7,113.8,211.6,82.4,327.6c-11.3,41.6-27.3,104.8-27,136.4c1.2,101.2,8.9,209.7,61.5,287.4c22.5,33.1,48.9,62.2,78.6,86.5
			c31.5,25.7,66.8,46.1,104.8,60.4c45.9,17.4,95.5,26,148.3,26c1.8,0,87.7,0,89.8-0.1c90.9-1.7,92.8,41.4,145.1,115.7
			c6.1,8.7,12,16.8,17.3,24c39.5,53.3,107.1,74.9,155.6,123c54.8,54.3,110.6,85.4,165.8,122.1c36.4,24.1,100.3,52.2,148.1,71.6
			c40.6,16.6,77.3,47.6,99.1,85.7c65,113.6,164.5,174.2,208.2,198.8c30.6,17.2,54.5,43.9,69.4,75.7
			c20.4,43.5,92.6,103.8,116.4,113.5c59.4,24.3,109.9,53.1,127.5,114.8c20.8,73,53.6,172,98.4,261.6
			c58.4,116.8,186,220.4,282.7,286.8c117.9,80.9,237.7,139.4,304.1,161.5c10.2,3.4,21,7.1,32.4,11c44.8,15.4,133.3,37.8,127.2,16.7
			C3303,3707,2995,3569.8,2882.4,3492.5z"/>
		<path fill="#FFFFFF" d="M3717.1,3531c-34.9-132-188.7-260.9-277.3-326c-82.2-60.4-167.9-115.1-279.3-165.5
			c-88.4-39.9-147.8-124.9-155.3-221.6c-4.6-60-11.5-122.9-21.3-161c-17.1-66.3-105.6-145.5-134.6-187.8
			c-20.7-30.1-65.9-59.8-103.5-81c-37.5-21.1-70.9-48.6-98.8-81.3c-28.1-32.9-69.9-75.4-121.2-107.6
			c-63.2-39.7-196.1-76.1-288.2-98.1c-62.6-15-110.8-78.6-148.9-130.5c-67.8-92.2-175.6-239.2-355.4-302.1
			c-103.1-36.1-151-92.8-124.3-198.7c17.7-70.3,40.4-157,8.2-242.5c-16-42.6-96.4-103.8-122.7-123.3
			c-103.2-76.8-82.3-153.1-54.9-216.4s45.3-112,39.7-180.8c-4.8-60-17.3-116.7-37.1-168.5c-0.2-0.4-0.3-0.8-0.5-1.3
			c-23.9-62-6.2-132.4,44.6-175.2c12-10.1,23.6-21,34.8-32.6c57.4-59.9,96.7-134.2,110.6-209.2c6.3-34.1,7.5-68.5,3.5-102.1
			c-4.2-35.8-14.4-71-30.2-104.5c-3.8-8.1-5.5-11.6-9.9-19.5l-98.8,37.4c36.8,76.7-11.8,166.6-10.8,210.2
			c3.2,142.5-117,228-167.7,236.6c-17.7,3-86.9-23.8-74.5-10.8C1387,518,1408.9,615.9,1418,730c10.3,128-46.7,180.6-97.6,229.7
			c-71.7,69.1-80.4,102.5-67.1,127.1c14.6,27.1,66,24.3,105.1,31.7c6.5,1.2,13.1,2.5,19.8,3.8c90,18.4,151.8,63.3,178.8,129.6
			c31.5,77.5,13.6,177.9-47.9,268.6c-21.1,31.1-34.8,83.6-18.7,119.7c9.5,21.2,27.7,34.6,51.2,37.8
			c102.5,13.7,359.7,81.8,533.2,416.3c15.1,29.1,43.7,48.5,76.4,51.8c132.2,13.2,244.4,35.3,337.9,94
			c87.9,55.2,130.2,126.9,140.3,143.2c12.3,19.7,31.4,33.4,53.7,38.8c41.2,9.9,83.3,41.3,112.6,84c49,71.4,131.4,193.5,83.1,415
			c-5.9,27-61.2,107.2-34.7,112.9c32.6,7.1,85-10.2,108.5-4.7c149.6,34.9,310.8,109.8,448.9,211.2c139,102.1,231.2,224.9,253,307.2
			c10.8,40.8,13.4,76.7-8.8,108.3c-13.9,19.8-32.7,37.5-56.4,56c-29.5,23,56.9,15.9,90.3-19.3
			C3720.3,3649.4,3733.7,3593.8,3717.1,3531z"/>
	</g>
	<g>
		<path fill="#FFFFFF" d="M3935.2-3038.8c-35.5-13.7-74.2-75.9-80.9-117.3c-3.8-23-21.7-39.9-45.7-43c-30.7-3.9-62.9,13.6-75,40.9
			c-28,63.2-93.6,178.9-218.7,244.4c-15.3,8-25.7,23.1-27.7,40.3c-2,17.2,4.6,34.2,17.6,45.6c3.9,3.4,7.8,7,11.3,10.7
			c12.7,13,29.5,19.8,46.6,19.8c11.5,0,23.1-3.1,33.6-9.4c52.1-31.3,135.8-52.4,205.3-28.9c8.1,2.7,16.5,4.1,24.8,4.1
			c21.5,0,42.4-9,57.3-25.5c17.4-19.3,35.5-37.7,54-54.5h0c20.2-18.5,37.6-53.8,31.6-85.6
			C3965.6-3016.6,3953.2-3031.8,3935.2-3038.8z M3851.5-2902.2c-18.3,15.9-39.9,16.6-67.2,9.9c-39.9-9.7-141.3-0.5-177.3,9
			c-16.1,4.2-26.7-16.3-14-27c29.2-24.7,83.7-59.1,116.7-83.4c48.2-35.5,48.8-99.4,64.4-128.9c7.2-13.6,26.9-12.9,33.2,1.1
			c6.3,14,14,27.9,22.7,40.9c13.5,20.2,58.1,67.5,84.9,84.1c10.2,6.3,12,20.7,3.2,28.9c-0.1,0.1-0.1,0.1-0.2,0.2
			C3908-2958.5,3866.7-2915.4,3851.5-2902.2z"/>
		<path fill="#FFFFFF" d="M5090.8-3790.1c-134.6-3.8-239.6,39.9-307.5,80.7c-53.9,32.4-122,29.9-173.6-6.1
			c-75.3-52.5-182.4-111.1-261.4-124.7c-57.5-9.9-113.4-12.8-166.6-5.5c-51.6,7.1-99.7,14.4-147.8,33.5
			c-64.4,25.7-128.2,73.5-150.1,99.1c-40.7,47.6-95,55-138,0.1c-38.2-48.8-76.9-80.8-121.4-112.1c-43.5-30.6-90.7-52.1-141.5-64.3
			c-136.7-32.8-187-227.9-218.9-321.5c-40.2-118.3-194.2-281.2-265.8-359.8c-140-153.6-342.2-264.7-589.3-256.4
			c-336.1,11.3-482.8,94.7-663.2,277.4c-140.8,142.6-261.7,258.6-261,440.3c0.2,40.4,5.6,107.1,0.7,147l152.6,16.5
			c-41.8-185.7,21.7-324.5,159.7-461.2c102.5-101.6,303.3-307.1,619.2-317.7c227.2-7.6,354,96.2,481.9,233.7
			c122.8,132,205,180.4,231.9,349.2c51.1,320.7-158.1,301.8-254.9,362.7c-133.5,84-77.8,361.4-60.1,363.9c14.1,2,19.7-14,28.6-38.7
			c59.1-162.9,159.6-240.1,363.2-305.3c0.2-0.1,0.3-0.1,0.5-0.2c249.8-79.8,379.1-59.6,551.3,210.4c13.1,20.5,32.1,36.1,56.5,36.8
			c24.2,0.8,46.6-11.9,58.3-33.1c103.5-186.3,267.5-268.3,461.8-231.1c162.5,31.2,334.4,202.6,361.2,249.7
			c18.5,32.5,86.6-93.5,140-135.3c68.3-53.5,171.2-63.3,255.3-63.2c0,0,10.3,26.8,25.7,26.2c24.4-1,23.7-46.8,24.3-58
			c0.6-10.3,0-55-23.6-56.7C5104.2-3814.7,5090.8-3790.1,5090.8-3790.1z"/>
		<path fill="#FFFFFF" d="M5009.3-2951.2c-83.1-15-146.8-61.7-185.4-94.9c-55.7-47.9-89.8-161.8-108.2-117.1
			c-15.2,37-161,186-267.7,232.8c-45.9,20.2-92.6,33.8-135,39.6c-38.7,5.2-71.5,3.4-92.5-5.2c-22.3-9.1-48,0-59.6,21.3
			c-52.7,96.4-131.9,149.3-154.9,163.1c-13.3,8-21.9,22.1-22.9,37.7c-6.5,102.7-36.1,176.4-87.8,219.2
			c-47.2,39-114.3,53.4-199.6,42.7c-117.3-14.7-155.9-71.9-178.3-125.9c-15-36.3-42.5-65.8-77.4-82.9
			c-88.1-43.3-159.3-121.4-173.1-189.8c-6.9-34.1-34.4-60.8-68.5-66.4c-112.9-18.5-231.5-105.2-294.2-181.6
			c-42.1-51.4-57.3-112.7-75.3-112.7s-21.1,27.2-42.1,53.2c-63.3,78.4-219.2,107.6-325.6,115.5l7.5,40.5c7.4-0.8,15-1.1,23.9-1.1
			c127.8-0.1,203.5,3,274.1-67.7c24-24,72.9-2.1,87.7,14.4c0.1,0.1,0.1,0.1,0.2,0.2c0,0,0.1,0.1,0.1,0.1
			c75.8,84.4,170.7,173.5,302,183.2c27,2,43,35.7,48,57c13.5,57.2,36.4,76.8,74.4,115.8c37.2,38.1,90.7,61.2,139.6,85.2
			c20.7,10.2,29.4,40.3,38.4,62c11.2,27.1,30.7,67.1,70.4,101.1c40.2,34.5,94,71.2,159.9,79.4c21,2.6,41.1,3.9,60.5,3.9
			c76.3,0,139.6-35.4,188.7-76.1c50.3-41.7,84-103.4,100.7-184c9.3-45.1,33.3-85.8,67.9-116.1c12.8-11.2,26.4-24.1,40.1-38.9
			c42.6-45.8,100.3-74.9,162.5-81.2c4.5-0.5,9-1,13.7-1.6c48.3-6.5,101.1-21.9,152.4-44.5c22.7-10,63.5-38,105.5-69.9
			c81.8-62.2,193.6-3.2,280.3,51.9c45.7,29,93.8,54.7,130.9,64c35.7,8.9,71.4,13.4,107,13.4c3,0,6,0,9-0.1c0,0,7.9,28.6,24.6,28
			c34.9-1.3,34.9-66,34.9-95.4s-2-85.2-32.1-84.9c-21.6,0.2-28.9,23.6-28.9,23.6C5077.2-2941.3,5045.4-2944.7,5009.3-2951.2z"/>
	</g>
	<path fill="#FFFFFF" d="M9017.6-4015.5c-12.1-221.7-45.1-440.8-95.4-633.7c-54.7-209.8-128-385.6-217.8-522.6
		c-68.5-104.5-146-184.7-230.4-238.5c-91.8-58.5-192.1-86.1-298.2-82c-241,9.3-426.4,99.3-551.1,267.4
		c-79.1,106.8-133.7,245.6-162.4,412.8c-22.6,132.3-29.2,282.6-19.4,446.9c8.7,145.7,28.8,275.7,44.2,359.1c0.1,0.4,0.2,0.9,0.2,1.3
		c10.2,55-26.4,107.5-81.4,117.5c-7.9,1.4-15.8,3-23.7,4.6c-104.8,21.7-204,59.5-294.8,112.6c-98.9,57.8-187.2,133.3-262.6,224.6
		c-52.1,63-89.4,51.7-167.9,26.6c-232-74-390.5-56.6-607.5-51.1c-107.8,2.7-211,11-306.8,24.4c-0.9,0.1-1.7,0.2-2.6,0.4
		c-115.1,16.3-230,12.7-295.7-83.2c-23-33.5-50.5-62.2-82.5-85.8c-37.8-27.9-81.6-48.4-130.3-61c-34.4-8.9-71.4-12.1-110.2-13.8
		c0.1,21.5,0.1,43,0.1,64.5c202.7,8,290.4,98.2,313.5,179.8c16.5,58.2-11.4,114.7-13.2,131.7c-8.2,79.1,81,100,107,42
		c55.6-124.1,371.2-110.4,592.9-110.4c181.1,0,359.1,13.4,469.7,61.2c121.3,52.5,147.2,141.3,197.5,125.2c50.4-16.1,10-128,86-209.2
		c315.2-336.7,663.6-372.6,929.6-322.1c70.4,13.3,99.7,26.2,113.4,28.3c24.5,3.9-19-84-239.3-102.2c-0.4,0-0.7-0.1-1.1-0.1
		c-67-5.5-97.1-55.1-109.2-121.2c-16.4-89.7-34.6-212.7-42.6-348.3c-14.7-249.5-22.1-594.5,145.6-820.7
		c113.6-153.3,284.1-235.4,506.7-243.9c184.4-7.1,345.2,91.9,477.9,294.4c167.9,256.3,248.7,667.3,273.7,1127.7
		c24.1,442.4-6,861.2-130.9,1120.3c-58.4,121.3-154.6,176.3-278.3,191.4c-147.8,18.1-316.2-28.9-464.7-154.5
		c-58.2-49.2-53.1-140.6,10.2-182.9c54.9-36.7,113.7-79.6,140.5-110.4c55.9-64.1,89.8-133.8,100.5-207.2
		c11.7-79.6,5.4-167.7-47-245.1c-69.3-102.2-152.1-86.7-124.3-63.2c57,48,182,278-1,464c-105.6,107.4-253.5,217.6-463.6,263.4
		c-93.1,20.3-186.5,32.3-275.5,32.3c-111.6,0-216.5-21.8-305-53.2c-40-14.1-149.5-79.8-189-70.2c-55.5,13.5-6.9,74.6-202.2,150.8
		c-117.6,45.9-233.2,43-428,43c-198.2,0-368-28.6-542.7-77.1c-69.6-19.3-217.8-105.3-294-177c-34-32-79.3-4.7-89.1,8.6
		c-19.9,26.8-31.8,143.3-233.3,139.3c0,21.5,0.1,106.9,0.1,128.4c36.6-1.3,73-7.3,108.9-18c45.4-13.5,90-34.6,133.5-63
		c52.2-34.2,112.2-83.4,163.3-47.6c0.3,0.2,0.7,0.5,1,0.7c49.4,34.4,122.2,78.2,195.9,105.9c161.5,60.7,353,68.8,544.2,70.3
		c4.4,0,8.9,0.1,13.3,0.1c102.7,0,203-9.4,298.3-28.1c109.2-21.3,211.9-54.8,305.3-99.5c56.1-26.9,126.4,76.2,192.6,99.7
		c95.4,33.8,207.8,50.8,327.1,50.8c93.7,0,191.7-10.5,289-31.7c22.1-4.8,44.1-10.2,65.8-16.1c84.7-22.9,175-105.8,240-46.9
		c64.7,58.7,134.5,107.1,206.4,142.7c92.7,46,186.3,69.6,273.9,69.6c19,0,37.8-1.1,56.2-3.4c69.5-8.5,132.2-32.7,186.4-72
		c56.8-41.1,102.9-98,137.1-168.9c33.1-68.7,62.2-148.5,86.4-237.1c23.4-85.5,42.3-179.7,56.3-279.8
		C9021.3-3579.7,9029.5-3798.1,9017.6-4015.5z"/>
	<g>
		<path fill="#FFFFFF" d="M2339.1-2194.3c-0.6-0.9-1.3-1.8-1.9-2.7c-78.8-112.4-89.4-259.6-25.7-381.2
			c31.8-60.8,49.8-124.8,45.5-200.7c-3-52.1-20.7-159.4,88.6-175.8c0,0,15.1,20.1,25,17.3c13-3.7,15.7-15.6,15.7-42.3
			c0-26.7-19.3-43-27-41.3c-8.5,1.8-16.2,19.5-16.2,19.5c-27.8,1.5-51.9,1.6-67.8,0.7c-1-0.1-2-0.1-3-0.2c-2.5-0.2-4.8-0.4-6.8-0.6
			c-3.4-0.4-8.7-0.9-15.1-1.2c-158.5-16.4-234.3-98-302.9-140.1c-97.8-60-154.3-85.4-154.3-85.4l0,0c-5.4-2.7-10.9-5.1-16.4-7.3
			c-165.3-66.6-296.6-118.2-688.7-381.4c-21.6-14.5-43.9-28.6-69.9-30.4c-26.1-1.9-52.2,5.4-73.6,20.4
			c-96.2,67.5-216.9,100.8-261.1,112.3c-57.5,14.9-43.1,75-31.1,88.3c185.3,204.8,525.8,250.7,646.3,315
			c45,24,147.1,116.4,150.4,188c2.4,52.9,47.2,93.4,58,48.7c15.5-64.5,204.1-147,332-147c127.5,0,297.8,58.9,316.1,168.3
			c26.9,161.6-66.6,360.1-153.2,482.8c-23.3,33.1,118,80,200.7,198.8c74,106.4,136.1,278,102,418.9
			c-54.6,225.2-336.3,292.4-414.7,306.8c-11.4,2.1-23,3.3-34.7,3.6c-23.1,0.5-70.9-4.5-65.1,7.7c19.1,39.9,14.6,72.7,8.8,112.3
			c-27.5,186.1-229.1,285.7-354.9,327c-16.9,5.5-223,41-366.8,109.4c-99.4,47.3-138.3,135.2-95.1,138.8
			C1383-722.5,1419.5-456.5,1383-383c-73.4,147.9-186.8,181.5-191.3,200c-5.3,22,122.1-3.4,169.3,6c29,5.8,81.5,31.3,123.4,88.7
			c0.8,1.1-16,15.6-10.2,29.6c9.3,22.3,63.5,8.3,81.8-1.8s61.5-42.5,50.5-65.9c-3.9-8.4-27.7-6.9-27.7-6.9
			c-49.3-75-57.2-169.4-23.6-252.6c15.2-37.7,20.6-75.6,17.9-113.7c-5.9-84.1-39.7-154.4-78.9-208.9
			c-61-84.7-157.2-176.9,29.9-226.7c85.2-22.7,200-80.4,278.5-132.8c26.6-17.8,50.7-47.4,71.7-81.4
			c82.7-134.1,199.7-244,340.6-314.5c36.1-18.1,68.5-37.6,97.1-58.4c81.7-59.7,134-131.9,155.6-214.6
			c19.2-73.6,13.8-155.4-15.8-243.1C2428.6-2048.3,2390.7-2120.4,2339.1-2194.3z M929.6-3372.6c-80.5-75.2,42.2-96.8,128.5-151.5
			c87.1-55.2,183.6,39.2,215.7,81.4c72,94.5,263.9,183,263.9,249C1537.8-3128.2,1006.5-3300.8,929.6-3372.6z"/>
		<path fill="#FFFFFF" d="M1293-1739.5c31.2,4.8-21-94-39.9-183.8c-17-80.6-20.3-193.9,21.5-293.7c90.5-216,312.4-157.6,298.9-181
			c-43.2-75.1-40.6-164-34.7-221.5c2.6-25.4-25.1,0.8-44.3,47.5c-21.4,52.4-37.6,140.7-385.5,317c-292,148-600.9,163.5-758,449.5
			c-81.8,148.9-62.5,426.2-25.8,633.5c18.9,107-82.4,195.7-186,162.9c-140.3-44.4-268-93.6-359.7-151.5
			c-45.6-28.7-101.3-13.3-150.8,7.9c-35.9,15.3-70.7,24.8-93.7,30.1c-34.6,8-63.7,12.8-76.2,46.4c-15.1,40.6-36.4,89.5-88.7,125.8
			c-52.4,36.3-128,67.5-170.6,66.7c-208.8-4-373.3-149-373.3-327c0-169.1,147-294.1,276.5-317.4c52.3-9.4,119.1-10.6,183.1,14.2
			c64.7,25,104.1,59.1,130.9,100.4c13.9,21.5,35.2,37.2,59.7,44.5c78.6,23.5,122.9-43.9,127.8-73.1c4.9-29.4-39.1-59.2-60.7-79.7
			c-88.9-84.5-116.9-228.2-170-442.1c-49.7-200.1-75.7-434.5-73.1-659.9c4.1-355.6,77.9-632.7,197.5-741.3
			c453.1-411.3,951.1-518.2,1346.5-518.2c345.2,0,652.5,91.4,743.3,120.8c64.5,20.9,121.5,56.4,118.2,25.3
			c-2.9-27-41.9-127.9-62.1-194.2c0,0,26.4-15.7,26.4-29.2c-0.1-34.1-58.1-41.9-109.9-42c-51.7-0.1-107.2-0.6-110.3,36
			c-1.1,13.3,19.3,26.4,19.3,26.4c-17.5,36.8-48.2,63.5-92,53c-80.4-19.2-163.9-34.2-247.8-44.4c-178.8-21.7-358.4-22.2-533.9-1.4
			C394-3909.2,200-3844.4,18.8-3766.1c-204.7,88.4-406.6,188.5-576.7,342.9c-70.9,64.3-114.1,182-152,330.1
			c-33.8,131.9-35.1,311.5-37.1,486.2c-2.7,230.8,6.3,453.3,57.3,658.7c39.1,157.6,175.6,437.1-1.1,383.7
			c-76.8-23.2-154.3-39-218-27.5c-79.8,14.3-158.9,59.4-216.9,123.6c-31,34.3-55.4,72.9-72.4,114.8c-18.4,45.3-27.7,93.4-27.7,142.9
			c0,102.1,42.5,196.7,119.6,266.6c38.2,34.5,83.3,61.8,134.3,80.9c52.5,19.7,109.8,30.3,170.2,31.5c1.2,0,2.3,0,3.5,0
			c55.9,0,123.5-24.8,186.3-68.3c63.7-44.2,281.6-266,370.1-194.9c130.2,104.6,190.1,97.2,318.5,137.9
			c47.4,15,398.9,128.7,371.1-279.6c-42.4-622.6,170.8-842.1,438.5-687C1081-1811,793.2-1628.1,685-1419c-44.8,86.6,61,185.7,34,244
			c-55.6,120.1-250.8,172.4-216,268c32,88-15.8,179.7-39.3,248.5c-13.1,38.2-34.7,141-42.7,207.5c-12.6,105.4,34.9,260.3,27.6,294.6
			c-2.3,10.5-25.8,33.6-27.5,39.9c0,0-27.6-6.3-33,6.5c-14.3,33.7,45.7,66.3,45.7,66.3s70,35.3,79.4,3.4c4.2-14.2-14-28.9-14-28.9
			c24-49.7,87.8-73.4,108.9-78.9c25.8-6.7,99.6-16,98.7-27.4c-0.9-11.4-122.8-82.3-139.1-231c-10.4-95.4,2.1-152.5,33.4-214.6
			c50.8-100.8,96-110.5,114.2-120c23.5-12.3-67-83.5-77.5-107.7c-61.1-140.6,235.3-239.6,195-355.8
			C754.7-1429.5,1047.1-1777.6,1293-1739.5z"/>
		<path fill="#FFFFFF" d="M385.7-3221.8c111.4-27.4,137.4-108.9,132.1-119.2c-51.9-101.5-208-23.7-400.1,65.9
			c-120.1,56.1-236.7,62.7-338.1,14.5c-35.9-17.1-56.6-6.1-59,12.6c-1.7,13.3,10,38.1,20.5,46.5
			C43.9-2959.4,41.6-2336.1-15.1-1836.1C-21-1784-59.3-1710.6-1-1684c112.7,51.3,131.3-105,108.8-126.9
			c-36.4-35.5,171-576.8,101.9-825.4C129.6-2924.6,124.7-3157.7,385.7-3221.8z M100.4-2586C45.1-2866.4,3-3029-51.7-3090.7
			c-7.9-8.9,5.9-22.6,17.8-21.4c30.9,3.1,63.3,0.9,94.4-12.4c12.8-5.4,28.5,5.3,24.8,18.7C47-2967,97.9-2741.3,111.9-2587.7
			C112.6-2580.4,101.9-2578.8,100.4-2586z"/>
	</g>
</g>
</svg>
