<?xml version="1.0" encoding="utf-8"?>
<!-- Generator: Adobe Illustrator 18.0.0, SVG Export Plug-In . SVG Version: 6.00 Build 0)  -->
<!DOCTYPE svg PUBLIC "-//W3C//DTD SVG 1.1//EN" "http://www.w3.org/Graphics/SVG/1.1/DTD/svg11.dtd">
<svg version="1.1" id="PullTogethers" xmlns="http://www.w3.org/2000/svg" xmlns:xlink="http://www.w3.org/1999/xlink" x="0px"
	 y="0px" viewBox="0 0 4096 4096" enable-background="new 0 0 4096 4096" xml:space="preserve">
<path fill="#FFFFFF" d="M1009.4-286.5c-13.2,0-26.2,0.6-39.1,1.7c2.8,8.3,5.5,16.6,9.4,24.3c23.8,48.7,33.6,100.7,26,152.7
	c-7.6,47.7-37.9,86.6-57.4,131.1c-21.7,52-7.6,106.1-18.4,162.5c-4.3,20.6-9.7,40.1-22.7,56.3c-15.2,20.6-63.3,68.6-67.8,71.4
	c51.1,21.7,108.9,34,170.1,34c1.7,0,3.4,0,5.1,0c206.1-2.3,372.3-143.3,372.3-316.9C1386.8-144.6,1217.9-286.5,1009.4-286.5z"/>
<path fill="#FFFFFF" d="M907.2,242.1c13-16.2,18.4-35.7,22.7-56.3c10.8-56.3-3.2-110.5,18.4-162.5c19.5-44.4,49.8-83.4,57.4-131.1
	c7.6-52-2.2-104-26-152.7c-3.9-7.7-6.6-16-9.4-24.3c-2.9,0.3-5.8,0.5-8.6,0.8C775.8-264.3,632-131,632,30.5
	c0,123.7,84.3,230.8,207.3,283C843.8,310.6,892,262.6,907.2,242.1z"/>
<path fill="#FFFFFF" d="M1009.4,353.4c-60.7,0-118.7-11.6-172.5-34.4l-0.3-0.1c-4.3-1.8-4.8-7.8-0.9-10.3l0.3-0.2
	c4.6-3.2,51.4-49.8,66.2-69.9l0.1-0.2c11.5-14.4,16.9-31.9,21.5-53.8c4.3-22.6,4.6-45.2,4.8-67.1c0.4-31.8,0.7-64.7,13.9-96.5l0-0.1
	c6.6-15.1,14.5-29.6,22.1-43.7c15.4-28.4,30-55.2,34.8-85.9c7.2-49.6-1.3-99.8-25.5-149.1c-4-7.9-6.8-16.4-9.5-24.6l-0.2-0.7
	c-1.2-3.6,1.3-7.3,5-7.7l0.2,0c13.1-1.1,26.5-1.7,39.6-1.7c102.2,0,198.4,33.5,270.7,94.2c35.3,29.6,63,64.2,82.4,102.6
	c20.1,39.9,30.3,82.3,30.3,126.1c0,85.7-39.4,166.4-111,227.3c-71.2,60.6-166.1,94.5-267.3,95.6
	C1012.9,353.4,1011.2,353.4,1009.4,353.4z M870.7,291.5c-9.4,9.6-5.5,25.8,7.4,29.9c41.8,13.3,85.8,20,131.4,20c1.7,0,3.4,0,5,0
	c202-2.2,366.4-141.7,366.4-310.9c0-171.5-166.6-311-371.4-311c-7.6,0-15.4,0.2-23.1,0.6c-4,0.2-6.6,4.3-5.1,8
	c1.2,3,2.4,5.9,3.8,8.7c25.2,51.6,34.2,104.2,26.6,156.3c-5.2,32.8-20.9,61.8-36.2,89.8C968-3.3,960.2,11,953.8,25.6
	c-12.3,29.6-12.6,59.9-13,91.9c-0.2,22.5-0.5,45.7-5,69.3l0,0.1c-4,19-9.5,40.7-23.9,58.7C903.8,256.8,886.2,275.7,870.7,291.5z"/>
<path fill="#FFFFFF" d="M842.5,318.5c-1.7,1.1-3.8,1.2-5.6,0.5l0,0c-62.3-26.5-115-66.8-152.2-116.7C646.3,151,626,91.5,626,30.5
	c0-79.3,34.4-155.6,97-214.8c61.8-58.4,146.3-96,238-105.7c2.6-0.3,5.5-0.5,8.8-0.8l0,0c2.8-0.2,5.3,1.4,6.2,4.1l0.2,0.5
	c2.7,8.1,5.3,15.8,8.9,23c25.2,51.6,34.2,104.2,26.6,156.3c-5.2,32.8-20.9,61.8-36.2,89.8C968-3.3,960.2,11,953.8,25.6
	c-12.3,29.6-12.6,59.9-13,91.9c-0.2,22.5-0.5,45.7-5,69.3l0,0.1c-4,19-9.5,40.7-23.9,58.7C896.6,266.5,847.8,315.2,842.5,318.5
	L842.5,318.5z M970.5-266.6c-2.8-7-10.1-11.3-17.6-10.3c-0.7,0.1-1.3,0.2-1.8,0.2C771.8-253,638-122.6,638,30.5
	c0,111.8,70.2,213.2,184.7,268.9c9.3,4.5,20.5,2.7,27.8-4.6c16.3-16.2,41.6-42.4,51.8-56.3l0.1-0.2c11.5-14.4,16.9-31.9,21.5-53.8
	c4.3-22.6,4.6-45.2,4.8-67.1c0.4-31.8,0.7-64.7,13.9-96.5l0-0.1c6.6-15.1,14.5-29.6,22.1-43.7c15.4-28.4,30-55.2,34.8-85.9
	c7.2-49.6-1.3-99.8-25.5-149.1C972.9-260.7,971.6-263.6,970.5-266.6z"/>
<path fill="#FFFFFF" d="M5580.1-2556c-50.4-46.6-113.2-74.2-181.3-74.2c-82.5,0-157.2,40.6-211.6,106.3
	c45.3,28.7,135.4,108.8,140.4,113.8c25,23,46,46,68,71c24,27.9,46,58.5,71,85c24.8-101.4,52.7-195.2,104-287
	C5573.6-2546.4,5576.8-2551.3,5580.1-2556z"/>
<path fill="#FFFFFF" d="M5579.5-2556.6l-8.9,15.4c-51.3,91.8-79.3,185.5-104,286.9c0,0,0,0.1,0,0.1c27,28.5,57.5,52.1,98,62
	c44,11,86-11,124-39c0,0,0,0,0,0c3.6-2.3,7.1-4.5,10.7-6.5c0,0,0,0,0-0.1c0.4-7.9,0.6-16,0.6-24
	C5700-2382.4,5652.7-2489.4,5579.5-2556.6z"/>
<path fill="#FFFFFF" d="M5452.6-2056.2c-41-8-144-53-159-62c-67.9-39-127.1-84.1-195.4-120.8c9.6,192.8,140.5,345.6,300.6,345.6
	c117.7,0,219.6-82.6,269.1-202.9c-29,21.4-63.8,33.9-99.4,41.1C5530.6-2048.2,5492.6-2049.2,5452.6-2056.2z"/>
<path fill="#FFFFFF" d="M5688.6-2231.2c-38,28-80,50-124,39c-78-19-119-89-169-147c-22-25-43-48-68-71c-5-5-95.1-85-140.4-113.8
	c-55.3,66.8-89.5,159.6-89.5,262.1c0,7.7,0.2,15.3,0.6,22.8c68.3,36.7,127.5,81.8,195.4,120.8c15,9,118,54,159,62c40,7,78,8,116,1
	c35.5-7.3,70.4-19.8,99.4-41.1c17.7-43,28.7-90.8,31.4-141.4C5695.7-2235.7,5692.2-2233.5,5688.6-2231.2z"/>
<path fill="#FFFFFF" d="M5472.1-2251.8c-1,4.2-6.3,5.6-9.2,2.4l-0.7-0.7c-15.1-16-29.3-33.7-43-50.9c-9.1-11.4-18.5-23.2-28.1-34.3
	c-23.2-26.4-43.6-48.5-67.5-70.5l-0.2-0.2c-5.9-5.9-94.8-84.6-139.4-112.9v0c-3.1-1.9-3.7-6.1-1.4-8.9v0
	c57.9-70,134.7-108.5,216.3-108.5c67.6,0,131.7,26.2,185.4,75.8l0.4,0.3c2,1.9,2.3,4.9,0.7,7.1l-0.3,0.4c-3.5,5-6.6,9.7-9.3,14.3
	c-49.7,88.9-77.3,178.4-103.4,285.4L5472.1-2251.8z M5331.7-2414.6c24.2,22.3,44.8,44.7,68.4,71.4c9.8,11.3,19.3,23.2,28.4,34.7
	c8.4,10.5,17,21.3,25.9,31.6c3.8,4.4,10.9,2.7,12.3-2.9c24.7-97.5,52-181.1,98.6-264.4l0.8-1.3c3.4-5.8,2.1-13.3-3.1-17.6
	c-48.6-40.1-105-61.2-164.2-61.2c-72.6,0-141.5,32.1-195.5,90.9c-3.8,4.2-3.2,10.8,1.5,14.1
	C5252.2-2485.6,5325.6-2420.6,5331.7-2414.6z"/>
<path fill="#FFFFFF" d="M5588.2-2183.3c-8.2,0-16.6-1-25.1-3.1c-36.5-8.9-67.7-28.6-100.9-63.7v0c-1.4-1.5-2-3.6-1.5-5.5l0,0
	c26.3-108,54.2-198.4,104.6-288.5c2.9-5.1,6.1-10.1,9.9-15.4l0,0c2.1-3,6.3-3.4,9-0.9l0,0c37,34.2,67.7,78.9,88.7,129.3
	c22,52.7,33.1,109.7,33.1,169.2c0,8.1-0.2,16.3-0.6,24.4l0,0c-0.1,2-1.2,3.9-3,4.9l0,0c-3.6,2.1-7,4.2-10.4,6.3
	C5663.8-2205.5,5627.8-2183.3,5588.2-2183.3z M5475.8-2266.6c-1.7,6.7,0.4,13.8,5.4,18.6c27.8,26.9,54.4,42.5,84.9,50
	c44.6,11.2,87.1-14.4,119-38l0.3-0.2l0.1-0.1c5.1-3.3,8.3-8.8,8.4-14.9c0.1-3.5,0.1-7.1,0.1-10.6c0-108.6-38.4-208.8-105.8-278
	c-3.6-3.7-9.8-3-12.4,1.5l0,0.1C5528.2-2453.2,5500.9-2367.6,5475.8-2266.6z"/>
<path fill="#FFFFFF" d="M5398.8-1887.5c-79,0-154-36.4-211.3-102.6c-56.7-65.5-90.6-153.9-95.3-248.7v0c-0.2-4.7,4.7-7.8,8.8-5.6v0
	c37.8,20.3,73.4,43.6,107.9,66.1c28.1,18.4,57.3,37.4,87.6,54.8l0.1,0.1c15.5,9.3,117.9,53.6,157,61.2c41.1,7.2,78.4,7.5,113.8,1
	c39.2-8,71.8-21.5,97-40.1l0,0c4.9-3.6,11.4,1.5,9.1,7.1l0,0c-25.1,61-63.5,112.6-110.9,149.1
	C5513.6-1907.4,5457-1887.5,5398.8-1887.5z M5130.4-2213.8c-10.8-6.4-24.1,2.5-22.3,14.9c24.4,170.9,146.2,299.5,290.7,299.5
	c94,0,180.2-53.7,235.4-143.6c6.8-11.1-4.2-24.5-16.4-19.9c-14.8,5.6-30.9,10.1-48.1,13.7l-0.1,0c-36.9,6.8-75.5,6.5-118.1-1l-0.1,0
	c-41-8-144.4-52.8-160.9-62.7c-30.6-17.6-59.9-36.7-88.1-55.2C5179-2183.5,5155.1-2199.1,5130.4-2213.8z"/>
<path fill="#FFFFFF" d="M5515.5-2044.5c-20.4,0-41.6-1.9-63.9-5.8l-0.1,0c-41-8-144.4-52.8-160.9-62.7
	c-30.6-17.6-59.9-36.7-88.2-55.2c-34.3-22.4-69.7-45.5-107-65.5v0c-1.9-1-3-2.9-3.2-5l0,0c-0.4-7.7-0.6-15.5-0.6-23.1
	c0-50.8,8.2-100.1,24.4-146.4c15.6-44.8,38-85,66.5-119.5l0,0c1.9-2.3,5.3-2.9,7.8-1.2v0c45.1,28.6,134.5,107.8,141.3,114.5
	c24.2,22.3,44.8,44.7,68.4,71.4c9.8,11.3,19.3,23.2,28.4,34.7c39.3,49.2,76.5,95.6,137.5,110.5c44.6,11.2,87.1-14.4,119-38l0.3-0.2
	c3.5-2.3,7.1-4.5,11-6.7l0,0c4.1-2.4,9.2,0.8,9,5.5v0c-2.7,50.3-13.4,98.5-31.8,143.4l0,0c-0.4,1-1.1,1.9-2,2.5l0,0
	c-26.6,19.6-60.8,33.8-101.7,42.2l-0.1,0C5552.1-2046.1,5534.1-2044.5,5515.5-2044.5z M5453.7-2062.1c41.1,7.2,78.3,7.5,113.8,1
	c25.4-5.2,48.1-12.7,67.7-22.4c18-8.9,31.6-24.6,37.8-43.7c8.1-24.9,13.9-50.7,17.4-77.1c1.6-12.2-5.4-16.6-15.7-9.8
	c-31.5,20.7-70.1,38.1-111.5,27.7c-64.9-15.8-105.1-66-144-114.6c-9.1-11.4-18.6-23.2-28.1-34.3c-23.2-26.4-43.6-48.5-67.5-70.5
	l-0.2-0.2c-5.3-5.3-78.6-70.3-125.5-103.6c-5.3-3.7-12.5-2.6-16.4,2.6c-50.3,67-77.8,153.4-77.8,245.1l0,2.6c0,10,5.3,19.2,14,24.1
	c31.7,18,61.9,37.7,91.3,56.9c28.1,18.4,57.3,37.4,87.6,54.8l0.1,0.1C5312.2-2114,5414.6-2069.8,5453.7-2062.1z"/>
<path fill="#FFFFFF" d="M8222.7-5088.3c-4.2-4.9-10.5-7.5-17-7c-100.8,8.4-203.9,107.5-263,211.6c-15.9,28.1-26.3,61.1-25.5,99.6
	c7.5,345,210.9,222.3,235.8,481.7c0.7,6.9,0.8,13.3,0.4,19.2c-0.6,9,4.8,17.2,13.3,20.1c23.6,8.1,69,23,99.5,29.1
	c11.3,2.2,22-5.6,23.5-17C8303.6-4363.1,8363.8-4922.6,8222.7-5088.3z"/>
<path fill="#FFFFFF" d="M8599.8-4709.1c-19.1-216.5-101.3-380.8-365.6-386.7c-2,0-5.4-0.1-8.7-0.1c-3.8,0-5.9,4.3-3.5,7.3
	c147.2,184.3,76.6,771.4,66.4,848.7c-0.6,4.6,2.8,8.7,7.4,9c58.9,3.4,129.8-1.3,150.4-2.9c3-0.2,5.1-3.2,4.3-6.1
	c-1.8-6.6-3.1-12.7-3.8-18.4C8419.3-4485.7,8612.3-4567.4,8599.8-4709.1z"/>
<path fill="#FFFFFF" d="M8135-3866c42-24.5,286.3-54,121.2-302.7c-0.1-0.2-0.2-0.4-0.3-0.6c-7.8-15.1-5.8-39.5,16.1-54.5
	c3.9-2.7,2.6-8.8-2.1-9.6c-37.1-6.6-95.4-26.8-113.2-33.1c-2.8-1-5.9,0.5-6.9,3.4c-27.5,85.2-190,55.7-244.4,169.1
	c-59.1,123.1,39.1,305.9,88.7,323.6c14.2,5.1,30.3,13.9,47.3,25.4c0,0,0,0,0.1,0c3,2,7,0.6,8.1-2.8
	C8064.7-3796,8090.4-3841.3,8135-3866z"/>
<path fill="#FFFFFF" d="M8456.1-4222.4c-2.5-6.9-9.3-11.3-16.7-10.7c-49,4.3-95.1,6.1-148.4,2c-2.6-0.2-5.2,0.2-7.6,1.2
	c-33.2,14.4-37.5,44.2-27.5,60.9c166,248-82.5,280-121,303c-43.2,23.9-68.7,67.2-84.1,113.7c-2.2,6.6,0.1,13.9,5.8,18.1
	c75.3,55.7,162.3,153.4,182.8,199.3c26.7,59.7,289,29.5,346-81.8C8693.3-3827.2,8502.6-4091.7,8456.1-4222.4z"/>
<path fill="#FFFFFF" d="M8289.3-4225.4h-2.1c-28.4,0-104.7-25.7-136.2-36.8c-0.7-0.2-1.2-0.4-1.4-0.5l0,0c-3.1-0.7-5-3.8-4.3-6.9
	l0.1-0.3c2.3-9.4,2.9-20.1,1.7-31.9c-11.1-115.9-58.1-153.4-107.9-193.1c-30.1-24-61.2-48.8-85.2-91.5
	c-26.9-47.9-40.9-112.5-42.8-197.5c-0.8-36,8.1-70.6,26.3-102.7c59.7-105.4,168.9-212.8,278.2-215.2l0,0c1.7,0,3.3,0.6,4.5,1.8l0,0
	c48.9,50.8,80.3,149.8,93.3,294.4c9.4,104,9.2,228.9-0.5,371.3c-4.2,61.3-9.3,113.3-12.9,146.2c-2.1,18.9-3.8,33.5-4.9,42.3
	c-0.6,4.9-1.1,8.8-1.5,11.3c-0.7,5.5-0.8,6.3-2.8,7.8L8289.3-4225.4z M8184.9-4263.3c30.4,10.1,56.2,17.5,75.2,21.8
	c11.7,2.6,23.1-5.5,24.6-17.4c14-117.1,62.2-590.8-40.3-785.9c-16.4-31.2-53.4-45.6-86.6-33.7c-29.8,10.7-60.5,28.8-90.8,53.8
	c-45.4,37.4-87.7,88.5-119.1,143.9c-17.1,30.2-25.4,62.7-24.7,96.5c4,184.6,64.7,233.1,123.4,279.9c24.8,19.8,50.5,40.3,70.9,70.5
	c23,34.3,36.2,75.8,41.5,130.8c0.2,2.1,0.4,4.1,0.5,6.2C8160.3-4281.4,8170.3-4268.1,8184.9-4263.3z"/>
<path fill="#FFFFFF" d="M8355.6-4222.6c-20.1,0-42.2-0.8-68.8-2.8c0,0-7.8-0.6-5.2-9.2l0,0c2.8-20.3,23.9-179.9,26.4-362.3
	c1.5-110.7-4.2-206.8-17-285.4c-15.9-97.4-42.6-167.9-79.6-209.6l0,0c-3.4-3.8-0.7-9.9,4.4-10l0.3,0c1.1,0,2.3,0,3.4,0
	c67.4,0,126.4,10.1,175.4,29.9c46,18.6,84.9,46.5,115.6,83c28.5,33.9,50.1,74.6,66.2,124.7c14.3,44.4,23.8,95,29.1,154.8
	c5.6,63.9-29.4,116.4-66.5,172c-47.7,71.5-101.8,152.6-86.5,278.7c0.8,6.7,2.5,14.2,5.2,23l0,0c1.1,3.6-1.4,7.4-5.2,7.7l-2.2,0.2
	C8416.5-4224.9,8388.7-4222.6,8355.6-4222.6z M8321.5-4235.4c40.2,1.7,70,0.4,103.6-2.4c9.8-0.8,17-9.6,15.8-19.4l0-0.3
	c-15.8-130.5,39.6-213.5,88.5-286.8c37.4-56.1,69.8-104.6,64.5-164.3c-21.5-243.1-121.3-362-321.2-379.2
	c-17.7-1.5-30,17.1-21.6,32.8c35.5,66.3,57.6,167.1,65.7,300.7c8.7,142.4-0.3,293.3-9.4,394.9c-3.6,40.4-7.2,73.1-9.7,93.5
	c-0.1,0.7-0.2,1.4-0.3,2.2C8295.7-4249,8306.7-4236,8321.5-4235.4z"/>
<path fill="#FFFFFF" d="M8050.7-3731.3l-6.8-4.8c-2-1.4-4-2.8-5.9-4.1c-17.4-11.7-32.9-20-46-24.7c-25.7-9.2-59.9-55.2-83.3-112
	c-15.9-38.5-48.5-137.1-8.8-219.8c29.8-62.1,90.6-82.8,144.3-101.1c48.9-16.7,91.2-31,101.2-72.1l0,0c0.8-3.2,3.9-5.1,7.1-4.4l0,0
	c0.4,0.1,0.4,0.1,2.4,0.8c61.7,22,111.2,35.5,132.5,36.1l0,0c6.6,0.2,8.1,9.5,1.8,11.7l0,0c-18.3,6.4-25.9,17.3-29,25.3
	c-3.6,9.3-3.3,20.1,1,28.3c26.8,40.3,44.4,77.5,52.5,110.4c7.2,29.7,6.9,56.8-1.1,80.5c-22.3,66.2-98.7,92.7-144.3,108.5
	c-13,4.5-24.3,8.4-30.2,11.8l-0.1,0.1c-38.7,21.4-67.3,62.3-84.9,121.5L8050.7-3731.3z M8187.4-4249.7c-16.3-5.3-34.4-0.4-45.2,13
	c-20.5,25.3-56.5,37.6-94.1,50.4c-53.9,18.4-109.7,37.3-137.3,94.9c-37.6,78.4-6.2,173,9,210.1c24.5,59.5,57.5,98.6,76.2,105.3
	c4.7,1.7,9.7,3.8,14.9,6.3c17.7,8.6,38.9,0.7,47.2-17.1c18.3-39,43-67.2,73.9-84.3c6.9-4,18.1-7.9,32.2-12.8
	c43.5-15.1,116.4-40.3,136.9-101c15.6-46.3-1.2-107.1-50.1-180.7l-0.3-0.5c-6-11.4-6.6-25.8-1.6-38.6c0.2-0.5,0.4-1,0.6-1.5
	c5.1-11.9-1.4-25.5-13.9-28.9C8219.6-4239.5,8202.6-4244.8,8187.4-4249.7z"/>
<path fill="#FFFFFF" d="M8330-3498.9c-2.8,0-5.5,0-8.2-0.1c-47.6-1.3-78.8-13.2-87.8-33.5c-20.6-46.1-112.4-149-190.1-203.5
	l-3.5-2.5l1.2-4.1c18.5-62.3,48.9-105.5,90.5-128.5c6.3-3.8,17.1-7.5,30.6-12.2c44-15.3,117.5-40.8,138.2-102.6
	c15.6-46.5-1.2-106.9-49.9-179.6l-0.2-0.3c-6.2-10.4-7.3-24-2.9-36.4c5.4-15.4,18.6-27.7,37.2-34.7l1.3-0.5l1.3,0.1
	c58.3,4.8,106.8,2.5,161.7-2.6l2.2-0.2c2.8-0.3,5.4,1.5,6.3,4.2l0,0c9.3,30.7,28.9,70.6,51.6,116.8c33.9,69,76,155,98.4,242.5
	c26.3,103,20.7,188.9-17,262.6c-23.4,45.6-75.9,73.1-115.8,88.1C8429.7-3508.8,8376.1-3498.9,8330-3498.9z M8072.7-3789.4
	c-12.5,24.5-6.2,54.3,14.9,72c26.7,22.3,54.8,49.2,81.1,77.8c37.1,40.2,65.5,78.4,76.2,102.2c6.9,15.4,35.8,25.3,77.2,26.4
	c46.4,1.2,102-8.5,148.6-26.1c38-14.3,87.8-40.2,109.4-82.3c82.3-160.7-12.3-353.6-81.4-494.4c-14.5-29.6-27.8-56.6-38-80.5
	c-8.4-19.7-28.4-31.9-49.7-30.5c-36.4,2.4-71.6,3-111,0.4c-13.4-0.9-26.6,4.7-34.8,15.3c-2.9,3.8-4.8,7.5-5.9,10.8
	c-3.2,9-2.5,18.8,1.8,26.1c26.7,39.9,44.3,76.8,52.3,109.6c7.2,29.6,6.8,56.6-1.1,80.4c-22.6,67.4-99.7,94.2-145.7,110.2
	c-12.5,4.3-23.2,8.1-28.5,11.2l-0.2,0.1C8111.3-3846,8089.5-3822.1,8072.7-3789.4z"/>
<path fill="#FFFFFF" d="M5041.7-3292c-7.4-0.7-20.6-2.8-29.1-4.1c-4.4-0.7-8.6,2.3-9.3,6.8c-11,70.3-11.5,139.8,11.6,209.4
	c14.8,44.7,34.8,85.8,58.2,125c1.8,3.1,5.4,4.5,8.9,3.7c36.4-8.9,71.2-25.8,102.8-50.2c47.4-36.5,85.8-88,110.9-149.1
	c18.5-44.9,29.2-93.1,31.8-143.4c0.2-4.3,0.4-12.1,0.5-18.7c0.1-5.5-5.2-9.5-10.5-7.9c-39,12.1-80.4,19-119.7,25.5
	c-51.9,9-103.8,4-155.7,3C5042.1-3292,5041.9-3292,5041.7-3292z"/>
<path fill="#FFFFFF" d="M5206.9-3616.6C5206.9-3616.6,5206.9-3616.6,5206.9-3616.6l-0.4-0.4c-53.7-49.6-117.8-75.8-185.4-75.8
	c-9,0-17.9,0.5-26.7,1.4c-4.6,0.5-6.8,5.8-4,9.4c17.3,22.6,31.4,46.9,36.7,74.9c14,77,14,151-5,228c-6.3,25.4-11.9,50.6-16.3,75.7
	c-0.6,3.2,1.6,6.3,4.9,6.8c8.3,1.3,23.3,3.7,31.3,4.4c0.1,0,0.3,0,0.4,0c51.9,1,103.9,6,155.8-3c41.5-6.9,85.3-14.3,126.1-27.6
	c2.4-0.8,4.1-3.1,4-5.7c-1.2-56-12.3-109.5-33-159.3C5274.3-3537.8,5243.8-3582.4,5206.9-3616.6z"/>
<path fill="#FFFFFF" d="M4719.7-3332.2c-3.4,1-5.6,4.2-5.6,7.7c0,8.6,0.1,23.5,0.4,29.3v0v0c4.7,94.9,38.6,183.2,95.3,248.7
	c57.3,66.1,132.3,102.6,211.3,102.6c14.7,0,29.4-1.3,43.8-3.8c5.5-1,8.3-7.2,5.5-12c-22.2-37.8-41.3-77.4-55.4-120.3
	c-23.1-69.4-22.7-138.8-11.7-208.9c0.7-4.6-2.6-8.8-7.2-9.2c-48.6-4.7-96.3-15.2-143.1-30.9
	C4811.3-3342.1,4762.2-3345.5,4719.7-3332.2z"/>
<path fill="#FFFFFF" d="M5027-3607c-5.2-27.9-19.2-52-36.3-74.5c-4.1-5.4-10.9-8-17.6-6.7c-63.4,12.1-121.9,47.9-168.2,103.9l0,0
	c0,0,0,0,0,0c-28.5,34.4-50.9,74.7-66.5,119.5c-12.2,34.9-19.8,71.5-22.9,109.1c-1,11.9,9.8,21.4,21.6,19c38.2-7.8,79.9-3.7,116,7.6
	c44.2,14.7,89.2,25,135,30c9.3,1,17.8-5.3,19.6-14.5c4.1-21.8,9.1-43.6,14.5-65.5C5041-3456,5041-3530,5027-3607z"/>
<path fill="#FFFFFF" d="M5077.6-2944.1c-2.5,0.6-5.1-0.5-6.4-2.7l0,0c-27.3-45-47.5-87.9-61.8-131.3
	c-21.6-64.7-24.9-134.7-10.6-220.2l0,0c0.5-3.1,3.3-5.2,6.4-5l1.6,0.1c0.8,0.1,1.6,0.1,2.5,0.2c6.8,0,13.4,1.4,19.8,2.7
	c4.6,1,9,1.9,13.3,2.3c11.5,0.2,23.2,0.6,34.5,1.1c39.5,1.4,80.3,2.9,120.1-4c41-6.8,87.5-14.6,129.4-28.7l0,0
	c3.9-1.3,7.9,1.5,7.9,5.6v0c0,1.9,0,3.8,0,5.7c0,8.2-0.2,16.5-0.7,24.7c-2.7,50.9-13.6,99.8-32.3,145.3
	c-25.5,62-64.5,114.4-112.8,151.5C5154.6-2970.6,5117.2-2952.9,5077.6-2944.1L5077.6-2944.1z M5026.5-3288.6
	c-9.1-1.9-17.9,4.3-19.1,13.5c-10.1,73.9-5.7,135.8,13.4,193.1c10,30.4,23.1,60.6,39.5,91.6c11.1,20.9,36.3,29.9,58.1,20.8
	c22-9.2,43-21.4,62.9-36.7c46.6-35.9,84.3-86.5,109-146.6c18.2-44.2,28.8-91.8,31.4-141.4l0-0.2c0.5-10.4-9.2-18.2-19.2-15.5
	c-34.7,9.4-70.8,15.4-103.5,20.8c-41,7.1-82.5,5.6-122.5,4.1c-11.3-0.4-23.1-0.8-34.6-1.1l-0.4,0c-5.1-0.5-10-1.5-14.8-2.5
	L5026.5-3288.6z"/>
<path fill="#FFFFFF" d="M5127-3283.7c-17,0-33.9-0.6-50.6-1.2c-11.3-0.4-23.1-0.8-34.6-1.1l-0.4,0c-5.1-0.5-10-1.5-14.8-2.5
	c-6.2-1.3-12-2.5-17.6-2.5l-0.5,0c-0.9-0.1-1.9-0.2-2.8-0.2l-1.6-0.1c-3.5-0.3-6-3.5-5.4-7l0,0c4.1-24.6,9.7-50.7,17.4-82.1
	c18-73.1,19.6-144.7,4.9-225.5c-6.1-32.8-25.6-60.2-41.8-80.4l-4.5-5.6c-0.9-1.1-0.2-2.8,1.3-3l7-1.1c12.6-1.8,25.4-2.8,38-2.8
	c69.1,0,134.6,26.8,189.5,77.4l0.5,0.5c37.4,34.7,68.4,80,89.6,130.9c21.5,51.8,32.8,107.6,33.5,165.9l0,0c0,2.6-1.6,4.9-4.1,5.8
	l0,0c-42.7,14.5-89.7,22.3-131.2,29.2C5175-3284.9,5150.9-3283.7,5127-3283.7z M5042.3-3298c11.5,0.2,23.2,0.6,34.5,1.1
	c39.5,1.4,80.3,2.9,120.1-4c31-5.2,65.2-10.9,98.1-19.4c16.1-4.2,27-19.4,25.7-36c-3.7-45-14.1-88.3-31.1-128.9
	c-20.6-49.4-50.6-93.3-86.8-126.9l-0.4-0.4c-52.6-48.6-115.3-74.2-181.3-74.2l-0.3,0c-10.9,0-17.5,12-11.7,21.2
	c10.5,16.5,19.7,35.8,23.7,57.4c14.8,81.4,13.1,156.8-5.1,230.5c-5.1,20.8-9.3,39.2-12.7,56.4c-1.9,9.6,4.2,18.9,13.8,20.9l0.2,0
	C5033.7-3299.3,5038-3298.4,5042.3-3298z"/>
<path fill="#FFFFFF" d="M5021.1-2937.9c-80.7,0-157.4-37.2-215.8-104.6c-57.6-66.5-92-156.2-96.8-252.4c-0.4-7.8-0.6-15.7-0.6-23.4
	c0-3.6,0.1-7.5,0.2-12.2v0c0.1-2.5,1.7-4.7,4-5.5l0,0c41.6-14.7,93.6-14.2,142.7,1.3c50.2,16.7,100.7,27.3,150.3,31.4l0,0
	c3.5,0.3,6,3.5,5.4,7v0c-14,83.5-10.8,151.7,10.1,214.5c14,42.5,33.9,84.6,60.7,128.8v0c2.1,3.5,0.2,8.1-3.8,9l0,0
	C5059-2940,5040-2937.9,5021.1-2937.9z M4748.5-3332.6c-16.6,2.4-28.7,16.9-28.2,33.6c0,1.3,0.1,2.5,0.1,3.4
	c4.7,93.5,38,180.6,93.9,245.1c56.1,64.8,129.5,100.5,206.7,100.5c7.8,0,15.6-0.4,23.4-1.1c10.6-1,16.6-12.6,11.4-21.9
	c-19.8-35.7-35.2-70.3-46.7-105.2c-19-57-23.9-118-15-190.2c1.6-12.9-7.5-24.6-20.4-26.3c-40.8-5.4-82-15-122.8-28.7
	C4816.7-3334.2,4780.8-3337.3,4748.5-3332.6z"/>
<path fill="#FFFFFF" d="M5010.6-3296.4c-0.5,3.1-3.3,5.2-6.4,5h0c-50.6-4.2-102.1-14.9-153.1-31.9c-46.6-14.7-95.8-15.2-135-1.4l0,0
	c-4,1.4-8.1-1.6-8-5.8v0c1.2-47.2,9.5-93.1,24.5-136.3c15.9-45.5,38.6-86.3,67.6-121.3c50-60.4,113.2-97.7,182.9-107.9l0,0
	c2.1-0.3,4.2,0.5,5.5,2.2l0,0c17.1,21.3,37.7,50.3,44.3,85.7l0,0c14.8,81.3,13.1,156.7-5.1,230.5
	C5020.1-3346.5,5014.7-3320.7,5010.6-3296.4L5010.6-3296.4z M4778.5-3346.7c25,0,51,4,76.3,11.9c41.9,14,84,23.6,125.7,28.8
	c10.6,1.3,20.5-5.7,22.6-16.3c3.5-17.8,7.8-36.8,13.1-58.3c18-73.1,19.6-144.7,4.9-225.5c-4.9-26.2-18.3-49-31.8-67.4
	c-4.8-6.5-13-9.5-20.9-7.8c-60.2,12.9-114.8,47.4-158.9,100.7c-28.1,33.9-50.1,73.5-65.5,117.6c-11.2,32-18.5,65.5-21.9,100
	c-1.1,11.5,9,21,20.4,19.1C4754.1-3345.7,4766.2-3346.7,4778.5-3346.7z"/>
<path fill="#FFFFFF" d="M5580.1-2556c-50.4-46.6-113.2-74.2-181.3-74.2c-82.5,0-157.2,40.6-211.6,106.3
	c45.3,28.7,135.4,108.8,140.4,113.8c25,23,46,46,68,71c24,27.9,46,58.5,71,85c24.8-101.4,52.7-195.2,104-287
	C5573.6-2546.4,5576.8-2551.3,5580.1-2556z"/>
<path fill="#FFFFFF" d="M5579.5-2556.6l-8.9,15.4c-51.3,91.8-79.3,185.5-104,286.9c0,0,0,0.1,0,0.1c27,28.5,57.5,52.1,98,62
	c44,11,86-11,124-39c0,0,0,0,0,0c3.6-2.3,7.1-4.5,10.7-6.5c0,0,0,0,0-0.1c0.4-7.9,0.6-16,0.6-24
	C5700-2382.4,5652.7-2489.4,5579.5-2556.6z"/>
<path fill="#FFFFFF" d="M5452.6-2056.2c-41-8-144-53-159-62c-67.9-39-127.1-84.1-195.4-120.8c9.6,192.8,140.5,345.6,300.6,345.6
	c117.7,0,219.6-82.6,269.1-202.9c-29,21.4-63.8,33.9-99.4,41.1C5530.6-2048.2,5492.6-2049.2,5452.6-2056.2z"/>
<path fill="#FFFFFF" d="M5688.6-2231.2c-38,28-80,50-124,39c-78-19-119-89-169-147c-22-25-43-48-68-71c-5-5-95.1-85-140.4-113.8
	c-55.3,66.8-89.5,159.6-89.5,262.1c0,7.7,0.2,15.3,0.6,22.8c68.3,36.7,127.5,81.8,195.4,120.8c15,9,118,54,159,62c40,7,78,8,116,1
	c35.5-7.3,70.4-19.8,99.4-41.1c17.7-43,28.7-90.8,31.4-141.4C5695.7-2235.7,5692.2-2233.5,5688.6-2231.2z"/>
<path fill="#FFFFFF" d="M5472.1-2251.8c-1,4.2-6.3,5.6-9.2,2.4l-0.7-0.7c-15.1-16-29.3-33.7-43-50.9c-9.1-11.4-18.5-23.2-28.1-34.3
	c-23.2-26.4-43.6-48.5-67.5-70.5l-0.2-0.2c-5.9-5.9-94.8-84.6-139.4-112.9v0c-3.1-1.9-3.7-6.1-1.4-8.9v0
	c57.9-70,134.7-108.5,216.3-108.5c67.6,0,131.7,26.2,185.4,75.8l0.4,0.3c2,1.9,2.3,4.9,0.7,7.1l-0.3,0.4c-3.5,5-6.6,9.7-9.3,14.3
	c-49.7,88.9-77.3,178.4-103.4,285.4L5472.1-2251.8z M5331.7-2414.6c24.2,22.3,44.8,44.7,68.4,71.4c9.8,11.3,19.3,23.2,28.4,34.7
	c8.4,10.5,17,21.3,25.9,31.6c3.8,4.4,10.9,2.7,12.3-2.9c24.7-97.5,52-181.1,98.6-264.4l0.8-1.3c3.4-5.8,2.1-13.3-3.1-17.6
	c-48.6-40.1-105-61.2-164.2-61.2c-72.6,0-141.5,32.1-195.5,90.9c-3.8,4.2-3.2,10.8,1.5,14.1
	C5252.2-2485.6,5325.6-2420.6,5331.7-2414.6z"/>
<path fill="#FFFFFF" d="M5588.2-2183.3c-8.2,0-16.6-1-25.1-3.1c-36.5-8.9-67.7-28.6-100.9-63.7v0c-1.4-1.5-2-3.6-1.5-5.5l0,0
	c26.3-108,54.2-198.4,104.6-288.5c2.9-5.1,6.1-10.1,9.9-15.4l0,0c2.1-3,6.3-3.4,9-0.9l0,0c37,34.2,67.7,78.9,88.7,129.3
	c22,52.7,33.1,109.7,33.1,169.2c0,8.1-0.2,16.3-0.6,24.4l0,0c-0.1,2-1.2,3.9-3,4.9l0,0c-3.6,2.1-7,4.2-10.4,6.3
	C5663.8-2205.5,5627.8-2183.3,5588.2-2183.3z M5475.8-2266.6c-1.7,6.7,0.4,13.8,5.4,18.6c27.8,26.9,54.4,42.5,84.9,50
	c44.6,11.2,87.1-14.4,119-38l0.3-0.2l0.1-0.1c5.1-3.3,8.3-8.8,8.4-14.9c0.1-3.5,0.1-7.1,0.1-10.6c0-108.6-38.4-208.8-105.8-278
	c-3.6-3.7-9.8-3-12.4,1.5l0,0.1C5528.2-2453.2,5500.9-2367.6,5475.8-2266.6z"/>
<path fill="#FFFFFF" d="M5398.8-1887.5c-79,0-154-36.4-211.3-102.6c-56.7-65.5-90.6-153.9-95.3-248.7v0c-0.2-4.7,4.7-7.8,8.8-5.6v0
	c37.8,20.3,73.4,43.6,107.9,66.1c28.1,18.4,57.3,37.4,87.6,54.8l0.1,0.1c15.5,9.3,117.9,53.6,157,61.2c41.1,7.2,78.4,7.5,113.8,1
	c39.2-8,71.8-21.5,97-40.1l0,0c4.9-3.6,11.4,1.5,9.1,7.1l0,0c-25.1,61-63.5,112.6-110.9,149.1
	C5513.6-1907.4,5457-1887.5,5398.8-1887.5z M5130.4-2213.8c-10.8-6.4-24.1,2.5-22.3,14.9c24.4,170.9,146.2,299.5,290.7,299.5
	c94,0,180.2-53.7,235.4-143.6c6.8-11.1-4.2-24.5-16.4-19.9c-14.8,5.6-30.9,10.1-48.1,13.7l-0.1,0c-36.9,6.8-75.5,6.5-118.1-1l-0.1,0
	c-41-8-144.4-52.8-160.9-62.7c-30.6-17.6-59.9-36.7-88.1-55.2C5179-2183.5,5155.1-2199.1,5130.4-2213.8z"/>
<path fill="#FFFFFF" d="M5515.5-2044.5c-20.4,0-41.6-1.9-63.9-5.8l-0.1,0c-41-8-144.4-52.8-160.9-62.7
	c-30.6-17.6-59.9-36.7-88.2-55.2c-34.3-22.4-69.7-45.5-107-65.5v0c-1.9-1-3-2.9-3.2-5l0,0c-0.4-7.7-0.6-15.5-0.6-23.1
	c0-50.8,8.2-100.1,24.4-146.4c15.6-44.8,38-85,66.5-119.5l0,0c1.9-2.3,5.3-2.9,7.8-1.2v0c45.1,28.6,134.5,107.8,141.3,114.5
	c24.2,22.3,44.8,44.7,68.4,71.4c9.8,11.3,19.3,23.2,28.4,34.7c39.3,49.2,76.5,95.6,137.5,110.5c44.6,11.2,87.1-14.4,119-38l0.3-0.2
	c3.5-2.3,7.1-4.5,11-6.7l0,0c4.1-2.4,9.2,0.8,9,5.5v0c-2.7,50.3-13.4,98.5-31.8,143.4l0,0c-0.4,1-1.1,1.9-2,2.5l0,0
	c-26.6,19.6-60.8,33.8-101.7,42.2l-0.1,0C5552.1-2046.1,5534.1-2044.5,5515.5-2044.5z M5453.7-2062.1c41.1,7.2,78.3,7.5,113.8,1
	c25.4-5.2,48.1-12.7,67.7-22.4c18-8.9,31.6-24.6,37.8-43.7c8.1-24.9,13.9-50.7,17.4-77.1c1.6-12.2-5.4-16.6-15.7-9.8
	c-31.5,20.7-70.1,38.1-111.5,27.7c-64.9-15.8-105.1-66-144-114.6c-9.1-11.4-18.6-23.2-28.1-34.3c-23.2-26.4-43.6-48.5-67.5-70.5
	l-0.2-0.2c-5.3-5.3-78.6-70.3-125.5-103.6c-5.3-3.7-12.5-2.6-16.4,2.6c-50.3,67-77.8,153.4-77.8,245.1l0,2.6c0,10,5.3,19.2,14,24.1
	c31.7,18,61.9,37.7,91.3,56.9c28.1,18.4,57.3,37.4,87.6,54.8l0.1,0.1C5312.2-2114,5414.6-2069.8,5453.7-2062.1z"/>
</svg>
