<svg id="Layer_1" data-name="Layer 1" xmlns="http://www.w3.org/2000/svg" width="3950.46" height="3933.47" viewBox="0 0 3950.46 3933.47">
  <defs>
    <style>
      .cls-1 {
        fill: #f2f8ec;
      }
    </style>
  </defs>
  <title>SpawnedLand</title>
  <path class="cls-1" d="M4021.16,2108.63a2375.69,2375.69,0,0,0-96.45-621.7C3861.39,1272.21,3767.45,1066,3645.5,874c-173.32-272.82-390.07-478.86-644.23-612.4-227.8-119.68-483.1-180.3-758.81-180.17-174,.08-354,24.57-535.06,72.78-168.91,45-335.79,109.68-496,192.31C1058.3,425.53,916.51,518.08,790,621.62,664.51,724.33,559.8,833.1,478.77,944.92,361.69,1106.51,268.57,1269.1,202,1428.2c-63.66,152.14-104.54,304.66-121.53,453.32C48.93,2157.59,98.12,2426,226.7,2679.22c102.81,202.5,255.66,394,454.31,569.11,178.31,157.2,389.13,297.83,626.6,418,215.32,108.94,449.95,198.56,678.51,259.18,221,58.6,433.21,89.53,613.8,89.45,4.22,0,8.59,0,12.78-.06A1097.23,1097.23,0,0,0,2960.08,3955c108.66-37.3,214-92,313.18-162.5,96.34-68.53,187-152.09,269.32-248.38,81.17-94.89,154.26-202,217.24-318.49,87.26-161.34,154.09-338,198.61-524.92A2343.85,2343.85,0,0,0,4021.16,2108.63Zm-1282.7,101.25a54.37,54.37,0,0,1-70.43-8.48c-30.35-33.3-71.42-75.6-118.18-116.48-57.5-50.27-111.59-87.74-160.76-111.35-51.72-24.84-98.5-34.52-139.5-28.94-81.12-83.17-138.35-160.77-170.13-230.76-25.79-56.78-34.87-108.56-27-153.91,6.27-36.17,23-67.81,49.86-94a175.29,175.29,0,0,1,37.42-28.15c102.59-14.09,208.55-49,316.37-104.27,59.28-30.36,132.18-3.42,156.7,58.68,31.66,80.16,83.57,141,155.29,181.73q47.81,27.14,107.36,42.25c27.1,6.88,35.64,41,15.07,60-22.49,20.76-38.29,44.74-46.76,71.33-15.63,49.09-6.72,106.64,26.49,171,25,48.47,64.25,101.66,117.21,158.9,22.39,24.2,7.5,63.71-25.24,66.89-96.81,9.4-171.71,31.25-223.33,65.27Zm-817,35.2c-96.86-39.27-195.8-35.35-294.07,11.65l-0.15.07a8.69,8.69,0,0,1-12.42-8.84c23.15-196.83-11.06-336.74-102-416.29-31.73-27.76-70.31-47.85-114.67-59.71-35-9.36-73.66-13.62-114.89-12.67l-0.74,0c-22.81.56-35.94-25.94-21.5-43.67q2.39-2.94,4.74-5.89c55.22-69.19,96.06-144.41,121.38-223.58l0.08-.25a15.75,15.75,0,0,1,25.78-6.82c9.7,9.1,20.93,18.86,33.5,28.52,26.66,20.49,53.81,36.25,80.7,46.83,27.39,10.77,54.56,16.19,81,16.18a190.4,190.4,0,0,0,20-1.06c70.15-7.45,133.25-53.36,188.28-136.78a76.06,76.06,0,0,1,96.5-26.73c37,17.66,97.32,29.54,133.47,35.29a15.17,15.17,0,0,1,9.63,24.2c-16.66,21.68-30.83,49.8-37.54,87.82-9.25,52.35.6,111,29.25,174.28,23.23,51.31,59.13,106.16,107.14,163.83a81.05,81.05,0,0,1-2.14,105.94q-26.54,29.65-45.71,75.13c-17.6,41.84-30.67,94.49-39.1,157.35-5.63,42-51.82,65-88.38,43.82A466.27,466.27,0,0,0,1921.5,2245.08Zm1176.91-106c-95.73-88.2-162.22-167.7-197.62-236.33-28.87-56-37.07-104.66-24.35-144.71C2908.87,1655.9,3069,1635,3070.6,1634.8l0-.4c6.29-.21,12.62-0.46,19-0.8,103.81-5.45,222.54-27.65,352.88-66,104.48-30.73,200-67.14,271.93-97.1,43.63-18.18,93.23,5.78,106.48,51.29a2323.88,2323.88,0,0,1,70.61,330.7c6,43.61-32.09,80.44-75.26,72.59-47.51-8.64-102.38-17.46-158.29-24-92.56-10.88-170-13.59-230.3-8-80.74,7.43-130.73,29.21-152.82,66.58-15.6,26.39-16,59.05-1.05,97.09a254.32,254.32,0,0,0,14.83,31c15.55,27.86-6.27,61.84-38,59.14Q3169.31,2139.88,3098.42,2139.1Zm331.07,28.57a115.43,115.43,0,0,1-74.41-43c-51.59-65.87-69.12-116.39-50.73-147.5,29.57-50,153.62-64.91,349.3-41.93,63.65,7.47,126,17.91,177.34,27.62a97.88,97.88,0,0,1,79.43,91.48q2.35,47.5,2.72,95c0.46,58.56-53.46,102.3-110.34,89.22-90.84-20.89-210.68-45.93-337.72-65.55Q3447.1,2170.22,3429.49,2167.67Zm125.29-1235.6a2285.27,2285.27,0,0,1,196.93,387.34,92.55,92.55,0,0,1-50.48,119.29c-70.91,29.54-165.2,65.48-268.43,95.84-199.63,58.72-474.07,108-647.81,9.38-78.08-44.33-130.34-115.81-156.08-213.17a129,129,0,0,1,47.17-136.23c91.1-68.24,182.78-149.92,273.61-243.86,90.33-93.42,166.57-185.47,223.94-259.76,48-62.14,140.39-65.8,193-7.56C3432.11,755.77,3495.18,838.26,3554.78,932.07ZM2254.17,189.47c61.22,0.39,106.13,58,91.82,117.74-48.33,201.65-97.29,356.5-146,461.59C2149.78,877,2099,933.7,2053,932.66c-69-1.58-144.61-130.49-212.77-363-21.4-73-39.18-146.32-52.84-208.25s26.16-123.07,88.22-135.25C1996,202.55,2119,189.49,2242.51,189.44Q2248.32,189.43,2254.17,189.47ZM1653,282.41a74,74,0,0,1,94.18,55.53c14.48,68.21,34.75,154.9,60,241.19,32.07,109.44,65.87,197,100.47,260.34,21,38.5,42.78,68.61,64.6,89.5,25.8,24.69,52.69,37.53,79.93,38.15l2.13,0c30.16,0,60-15,88.83-44.5,29.47-30.21,59-77.07,87.88-139.29,49.88-107.58,99.82-265.57,149-471,16.06-67.15,81.4-110.16,149.14-98.07,183.32,32.73,381.5,102.3,572.4,234.69,76.46,53,92.7,159.6,35.41,233-55.49,71.12-127.46,157.21-212,244.6-188.18,194.63-478.49,435.45-792.87,477.39a415.78,415.78,0,0,1-54.83,3.74c-88.3,0-167.06-30.1-234.69-90-157.2-139.12-230.61-416.2-264.52-624.15C1558,570.31,1549.09,456,1545.13,377a76.82,76.82,0,0,1,52.2-76.64Q1625,291.07,1653,282.41ZM1417,369.61c44.09-19,93.63,11.6,96.84,59.65,5,74.71,14,169.12,30.37,269.47,22,135.38,55.11,254.23,91.66,355.76,47.52,132,120,222,160.19,265a58.18,58.18,0,0,1,7.73,69c-52.88,90.41-112.9,139.71-178.86,146.78-51.49,5.51-100-15.62-138.74-41.69-48.91-32.92-75.69-90.24-70.16-149.09,6.75-71.78,2.64-146.71-12.37-224.06-20-103.26-59.45-211-117.13-320.33-48.86-92.58-102-169.84-143.59-224.66A51.38,51.38,0,0,1,1158,500,2445.66,2445.66,0,0,1,1417,369.61ZM565.79,1008.43c100.11-138.16,248.46-279.36,429-404.75A104.28,104.28,0,0,1,1139,628.23c36.52,50.61,78.74,115,117.61,188.8,87.64,166.3,175.77,415.57,97.93,658.73-50.56,157.94-165.27,296.92-340.95,413.07C834.23,2007.41,588.92,2103.79,283,2176.06c-51.52,12.17-101.55-25.56-103.9-78.62C163.66,1749.63,292.78,1385.21,565.79,1008.43ZM525.7,2145.86a100.66,100.66,0,0,1,67.49,2.6c50.32,20.27,76.83,43.58,77.22,68.34,0.38,24.1-22.67,54.48-66.66,87.86-38.47,29.19-92.55,60.51-160.76,93.07-36.21,17.29-72.6,33.1-105.64,46.7-45,18.54-96.11-6.21-109.71-53.12q-10.06-34.7-18.09-69.65a91,91,0,0,1,67.86-108.93Q408.8,2182.19,525.7,2145.86ZM313.24,2611.51c-26.3-53.67-2.36-118.55,52.62-141.62,29.22-12.25,60.48-26,91.63-40.9,70.36-33.59,126.51-66.14,166.87-96.75,54.67-41.46,81-79.4,80.39-116-0.38-24.37-12.83-46.48-37-65.73q-4.13-3.29-8.7-6.47c-17.12-11.9-13.83-38.15,5.7-45.4l0.54-.2C807,2045.86,930.56,1985,1032.54,1917.56a1167.34,1167.34,0,0,0,107.48-80,174.36,174.36,0,0,1,88.68-39.25c68.57-9.34,181.57-10.73,261.64,59.33,63.91,55.93,96.43,147.26,97.27,272.49a294.55,294.55,0,0,1-98.56,221.49q-75.22,67.15-149.43,167.38l-0.47.64a54.78,54.78,0,0,1-88.94-.9c-76.32-108.21-165.76-165-266.78-169.09-71.56-2.93-148.7,20.95-229.28,70.91-63.35,39.28-129.12,94.79-195.49,165-36.6,38.72-69.41,77.78-97.05,112.91-28.41,36.1-84.15,31.87-106.78-8.13Q338,2660.6,322.56,2630.2,317.82,2620.86,313.24,2611.51ZM468.49,2864a98.93,98.93,0,0,1,.51-118.92c30.66-40.4,69.88-88.59,115-136.25C684.12,2503,834.46,2378,982.08,2384.09c82.72,3.37,157.56,47.72,223.49,132.16a170.19,170.19,0,0,1,13.29,189.36q-50.39,87.78-99.25,189.92c-50.15,104.87-91.74,206.11-123.26,288.77-26.72,70-113.86,93.35-171.87,46.06C690,3120.72,568.82,2998.44,468.49,2864ZM1447,3615.18c-67.19-31.35-93.93-113.1-58.62-178.48,12.44-23,26-46.94,40.26-70.63,40.73-67.45,79.72-119.82,115.89-155.65,42.27-41.88,79.57-60.27,110.84-54.68,19,3.4,37.09,16.11,53.69,37.78,19.67,25.67,37.44,64,52.82,113.8,22.39,72.56,39.92,170.29,52.44,291.92,8.16,79.28-70,139.07-144.19,110.62C1595.69,3681.31,1521.05,3649.73,1447,3615.18Zm1118.23,291.38c-154.13,5.46-302.18-23.89-496.9-71.56-119.61-29.28-208.13-130.63-221.38-253.48-12.67-117.49-30.14-212.68-52.27-284.4-16.59-53.76-36.24-95.69-58.4-124.61-22-28.68-47.18-45.74-74.89-50.69-42.88-7.66-90.31,13.89-141,64.08-38.18,37.82-78.94,92.43-121.14,162.31-16.55,27.4-32,55.08-46.11,81.45a122,122,0,0,1-169.25,48.09q-44.55-26-88.23-53.42a179.1,179.1,0,0,1-72.21-214.78c31.76-84.11,74.7-189.58,127.08-299.11,157.14-328.63,327.15-543.92,491.65-622.6,89.22-42.68,178.86-46.31,266.43-10.81,123.74,50.17,240,169,345.64,353.23,85.42,149,163.79,340.46,233,569.07,83.06,274.54,121.14,478.77,144.83,611.84C2643.64,3876.16,2583.56,3905.91,2565.25,3906.56Zm96.81-122.46c-18.25-99.63-45.65-234.52-83.3-383a385.84,385.84,0,0,1,33-276.06c46.48-87.31,117-178.65,210.23-184.25,70.69-4.24,147.54,41.65,228.28,136.4,79.63,93.45,162.93,234.55,248.41,420.59a141.67,141.67,0,0,1-41.49,170.82c-137.31,107.06-288.29,180.61-445.4,215.38C2742.77,3899.26,2674.84,3853.9,2662.06,3784.1Zm795.33-306.81c-39.78,46-113.53,35.61-139.38-19.5-82.75-176.47-163.74-311.62-241.65-403-88.11-103.39-174.39-153.29-256.45-148.37-48.47,2.92-95,24.93-138.38,65.43-33.61,31.39-65.41,74-94.54,126.67-4.83,8.74-9.43,17.45-13.78,26.06-17.22,34-66.62,31-79.59-4.89-52.15-144.25-148.15-399.4-209.47-506.4-51.8-90.37-106.86-166.45-163.68-226.13q-14-14.72-28.27-28.2c4.17-117.36,19.87-209.18,46.7-273,23-54.78,54.53-89.16,93.56-102.18,89.32-29.79,209.45,52.52,294.49,126.81,80.45,70.28,145.34,147,163.59,169.2a117,117,0,0,0-1.7,20.36c0.1,66.88,52.55,155,160.35,269.24,83.13,88.12,198.83,190.91,343.9,305.5,121,95.6,242.81,183.76,335.73,248.94,68.34,47.94,85.53,142.29,38.2,211.18A1618.18,1618.18,0,0,1,3457.39,3477.28Zm268-425.93c-29.72,66.51-112.45,89.37-172,47.66-93.11-65.21-216.57-154.44-339.22-251.33-143.71-113.53-258.14-215.16-340.09-302-48.22-51.13-85.45-97.5-110.66-137.83-26.65-42.64-40.19-78.88-40.23-107.69,0-26.17,11.27-46.35,34.57-61.71,112.38-74.06,355.06-84.92,701.8-31.39,120.77,18.64,235,42.22,323.65,62.39,75.09,17.08,125.39,88.12,116.73,164.9C3871.1,2690,3785.06,2917.83,3725.39,3051.35Z" transform="translate(-71.22 -81.45)"/>
</svg>
