<?xml version="1.0" encoding="utf-8"?>
<!-- Generator: Adobe Illustrator 18.0.0, SVG Export Plug-In . SVG Version: 6.00 Build 0)  -->
<!DOCTYPE svg PUBLIC "-//W3C//DTD SVG 1.1//EN" "http://www.w3.org/Graphics/SVG/1.1/DTD/svg11.dtd">
<svg version="1.1" xmlns="http://www.w3.org/2000/svg" xmlns:xlink="http://www.w3.org/1999/xlink" x="0px" y="0px"
	 viewBox="0 0 4096 4096" enable-background="new 0 0 4096 4096" xml:space="preserve">
<g id="Floors_Complete">
	<g>
		<path fill="#2BB673" d="M1980,2488.9c43.5-39.8,87.8-120.1,100.8-222.1c0-0.2,0.6-2.5,1.5-6.7c73.7-96.2,95.7-272.2-18.1-358.6
			c-0.8-13-1.3-21.2-1.2-22.6c-11.3-90-67.8-196.9-123.2-230.1c-0.9-0.6-16.1-103.1-140.8-155.8c-102-43.1-234.9-37-234.9-37
			c-346.6-22.6-650.4,222.7-672.3,432.2c-100.8,95.5-55.2,379.5,0,408.2c0,0,189.2,456.6,672.3,396.2c0.1,0,4.5,0,12.2-0.4
			c148.7-2.5,320.7-63.2,380.8-180.4C1969.9,2498.6,1977.9,2489.9,1980,2488.9z"/>
		<path fill="#2BB673" d="M3167,3683c-16.2,44.1-44.7,74.6-72,118c-57.8,91.9-134.7,125.5-216,162
			c-57.5,134.4-220.9,160.1-323.3,36.7c-286.2-71.2-531.2-345.2-391.3-682.9c0.2-0.5,6.7-17.1-2-35.8
			c34-120.7,47.5-121.9,108.2-186.7c57.5-61.3,169-112,169.8-112c4.4-1.5,8.1,15.9,24.7,8.7c44-45.3,144.9-67.3,164.2-75.9
			C2907,2845.2,3173.1,3067,3215,3361C3282.6,3425.8,3339.9,3612.6,3167,3683z"/>
		<path fill="#2BB673" d="M3871.4,1889.8c-170.7-354.4-718-630.7-1034.8-1.6c-0.1,0.2-0.2,0.4-0.3,0.6
			c-69.8,203.7,13.7,355.7,64.7,416.2c201,482.5,826.3,423.9,987.5-22.7C4031,2145.8,3945,1925,3871.4,1889.8z"/>
		<path fill="#2BB673" d="M3128,414.7c-42-216-150.7-246.9-305.5-228.4c-451-77.6-829.2,297.4-680.7,657.8
			c0.2,0.2,8.9,8.6,11.4,25.8c16.3,114.1,74,293.1,264.7,279.1c49.4-12,87.5,11,109.5,32.2C2810.2,1452.8,3437.9,914,3128,414.7z"/>
	</g>
</g>
<g id="Walls_Complete">
	<g>
		<path fill="#FFFFFF" d="M2574,3952c-287.7-55-476.1-338.9-369-624c18.6-49.4,0.7-75.5-66-152.5c-74.5-86-464.6-448-495.9-488.4
			c-51.1-66.1-72.8-35.6-113-33.1c-365.5,22.6-501.1-224-597.1-388.1c-12.8-21.8-83-12.9-83,21c0,25.8,40.7,178.4,208.6,316.6
			c17.9,14.8,30.3,41.1-15.8,36.9c-203.5-18.7-760.3-73.2-818.9-93.6c-71.8-25.1-94.7,17.3-39,50.3c24.5,14.5,50.4,60.3,284.7,65.9
			c126,3,257.9,68.6,405,85.5c188.9,21.6,300.6,59,436.3,40.6c36.8,0.1,147.7-13.7,188-12c42.2,1.8,89.6-7.7,116.2,25.1
			c49.1,60.5,27.6,100.2,117.8,190.9c65.6,66,239.5,184.2,292.4,226c55.3,43.8,84,113.2,75.3,183.2
			c-11.9,95.7-39.2,178.6-18.7,243.7c37.3,118.8,147,342,478,390.9C2589.4,4041.2,2601.6,3957.3,2574,3952z"/>
		<path fill="#FFFFFF" d="M3122,3657.4c-27,73.6-190,243-263,257.6c-25,5-2,92.8,15,92c21.4-1,248-89,320-308
			C3204.6,3666.7,3133.2,3626.8,3122,3657.4z"/>
		<path fill="#FFFFFF" d="M3828.5,2264.1c-36.5,126.5-203.2,303.6-405,327c-285,33-374.6-88.9-478.5-309.1c-17-36-55-56-83-54
			c-18.3,1.3-188.6,5.4-272.5-1.7c-139.7-11.8-388.9-0.4-503.5-2.2c-39.5-0.6-39-3.9-48.5,24.9c-19,57.6-104.1,201.5-133.2,223.3
			c-17.3,12.9-33.5,20.9-32.7,34.7c1,16.2,69.9,56.8,130.3,126.3c37,42.5,89.4,92.6,148.6,148c100.1,93.8,204.6,217.9,254.4,252.1
			c24,16.5,99.1,13.5,123.1-6c199.2-161.9,367-37.6,486,75c84.9,80.4,133.3,221.8,134.5,240c3,47.5,102.2,57.9,100.2,27.8
			c-2-30.1-27.6-143.3-70.5-218.3c-36.2-63.2-118.5-139.9-165.6-184.5c-78.2-74.1-264-141-366-117c-22.4,5.3-49.4,22.3-76.8,42.6
			c-58.8,43.6-108.4,3-160.8-48.2c-104-101.5-292.2-221.4-318-250.7c-15.3-17.4-29.2-32.3-41.1-44.8c-23-24.2-24.6-61.5-4.2-87.9
			c9.5-12.3,18.5-26.6,27.9-44c12.2-22.6,24.8-44.8,34.4-61.4c10-17.3,28.3-28.1,48.3-28.3c114.2-1.3,294.1,28.4,356.5,28.9
			c70.2,0.6,201.5-26.7,281.3-30c41.5-1.7,79.7,22.5,96,60.7c29.4,69.3,69.2,157.6,100,190c85,89.4,302.9,131.1,406.5,115.6
			c336.2-50.2,472.5-225.1,517.5-397.6C3922.4,2263.2,3836.2,2237.5,3828.5,2264.1z"/>
		<path fill="#FFFFFF" d="M3923,1902.6c-13.8-34.4-49-120.8-79-161.4c-43.3-58.6-230.1-212.4-320.1-230.4
			c-59.1-11.8-265.4-69.1-501,75.2c-67.4,41.3-122.3,109.6-146,169c-18.4,46.1-50.3,87.3-99.9,87.6
			c-132.9,0.7-359.2-25.2-431.8-31.2c-123.6-10.2-199.3,18.6-222.3-2.4c-23.8-21.7-42.8-48.6-66.2-84.7
			c-27.3-42.3-16.2-98.6,25.1-127.4c54-37.7,120.1-84,147.1-110.9c119.5-119,181.6-278.1,214.2-289.4s135.1,121.6,185.4,132.5
			c193.5,42,413.3-141,456.3-177.1c47.7-40.1,215.1-252,160.8-516c-15.3-74.6-87.6-223.9-99.7-243.8c-19-31.2-88.3,13.8-75.6,41.1
			c123.7,266.9,141.9,432.8-62,657.3c-56.8,62.5-200.8,139.4-295.8,144c-98.6,4.7-147.9-64.6-180-96c-27-26.4-106.5-39-132-13.5
			c-69.9,69.9-518.5,517.4-523.5,523.5c-27,33,123.3,77.6,160.5,282c1.2,6.7,28.9,14.8,73.6,12.8c165.8-7.4,608.7-11.4,729.8-3.4
			c24.2,1.6,75.3-16.5,81.5-28.9c200.2-397.5,436.4-336.7,579-301.5c220.5,54.5,312.2,277.3,332.3,305.7S3932,1925.1,3923,1902.6z"
			/>
		<path fill="#FFFFFF" d="M1203.7,1411.8c20.6,14.7,17.8,46.2-5.1,57c-38,18.1-74.6,38.9-107.5,61.8
			C965.7,1617.7,888.6,1742.1,849,1867c-8.4,26.6,62.1,35.6,78.6,29.6c16.5-6,67.5-189,225-291c133.7-86.6,240.7-112.1,396-102
			c10.9,0.7,37.6,13.5,58.5,1.5c15.9-9.2,164.5-162.1,223.3-212.9c140.4-121.3,255.9-240.7,309.2-319.4
			c35.1-51.9,60.8-95.2,52.5-123.2c-35.5-120-51.1-422.7,217.8-565.3c123.4-65.5,338.7-58.1,380-43.6c33.7,11.9,57.5-76.9,30.2-82.4
			c-233.5-46.7-350.4-3.2-510.5,90.4c-222.1,129.8-235.9,368.6-221.9,508.3c7.4,73.8-20.9,146.8-75.9,196.6
			c-58,52.6-134.9,121.9-208.7,187.3c-43.2,38.3-146,149.4-201.2,209.8c-23.3,25.4-55.3,41.1-89.7,43.8c-1.8,0.1-3.5,0.3-5.3,0.4
			c-79.1,6.4-156.9-20.4-216.5-72.7c-7-6.2-14.7-12-23.2-17.4c-74.6-47.1-157.9-42.9-214-80c-56.1-37.1-133.4-132.3-197-182
			c-92.6-72.3-215.5-121.7-381-218c-131.6-76.6-252.6-153.4-291.6-175.3c-7.6-4.3-20.5-9.1-25.6-10.9c-0.7-0.2-1.2,0.5-0.8,1.1
			l102.6,138.9C426.4,860.8,1009.8,1273.5,1203.7,1411.8z"/>
	</g>
</g>
</svg>
