<?xml version="1.0" encoding="utf-8"?>
<!-- Generator: Adobe Illustrator 18.0.0, SVG Export Plug-In . SVG Version: 6.00 Build 0)  -->
<!DOCTYPE svg PUBLIC "-//W3C//DTD SVG 1.1//EN" "http://www.w3.org/Graphics/SVG/1.1/DTD/svg11.dtd">
<svg version="1.1" xmlns="http://www.w3.org/2000/svg" xmlns:xlink="http://www.w3.org/1999/xlink" x="0px" y="0px"
	 viewBox="0 0 4096 4096" enable-background="new 0 0 4096 4096" xml:space="preserve">
<g id="Floors_Complete">
	<path fill="#C0E2CE" d="M2508-82.2c7.7-0.3,26.7,1.3,47.5-6.4c114.6-47.2,255.6-101.6,280.8-105.8c28.5-4.8,136.3-46.7,333.3-16.9
		c181.3,36,294.7,116.2,322.6,132.2l0.4-0.5c26.1-43.5,173.1-311.9-21.1-541.2c-15.4-18.1-15.5-44.6,0.7-62.1
		c64.2-69.6,210.1-234.4-7.8-537.2c-11.7-16.3-13-38-3.1-55.5c81.8-145.1,445.5-738.9-171.8-1052.2c-14.1-7.2-29.7-29.1-5.8-40.4
		c248.9-117.2,459.4-783.2-293.4-808.6c-457.2-15.4-720.7,465.5-307.9,805c11.6,9.5,17.3,32.6,3.9,39.1
		c-148.2,72.5-603.9,292.6-133.1,1046.8c7.4,11.9-3.4,37.8-15.4,45.1c-85.8,52-306.6,276-32.5,593.6c11.5,13.4,6,46.8-5.3,60.3
		c-55,65.5-133.3,254.8-29.2,500.7c-1.2-0.1-2.5-0.3-3.7-0.4l0,0C2467.2-86.4,2500.3-81.9,2508-82.2z"/>
	<path fill="#C0E2CE" d="M1778.2,2693.7c99.4-6.7,169.5,39.5,169.5,39.5s26,26.2,125.7,77.8c137.9,98.3,172.3,192.4,205.4,327.9
		c7.1,11.5,15.5,16.8,22,19.2c-2.3-40.6,6.6-84.4,23.9-129.6c0,0,4.2-8.1,8.9-21.7c109.5-249.8,460.1-534.8,602.4-574.9
		c232.6-51.8,155,260.1,647.3,536.6c562.2-426.6,121.4-1049.9,121.4-1049.9c-119.1-36.2-111.1-163.3-106.3-224.8
		c4.7-61.5,85.2-94.6,89.9-198.7c4.7-104.1-94.6-302.8-184.5-340.7c-89.9-37.9-137-141.1-60.8-292.6
		c77.8-154.8,429-685.1,71.6-923.2c-5.6-3.7-11.2-7.3-16.7-10.9c-14.1-4.4-130.9-95.7-328-134.8c-197-29.9-304.8,12.1-333.3,16.9
		c-25.3,4.2-166.2,58.6-280.8,105.8c-20.9,7.7-39.8,6.1-47.5,6.4c-7.7,0.3-40.8-4.1-40.8-4.1l0,0c-121.7-13.2-304.3-42.3-463.3-17.2
		C1824-71.1,1573.2,89.7,1469.1,321.6c-104.1,231.8,115.5,380.6,35.1,442.1c-80.4,61.5-304.8,21.6-394.7,404.8
		c-89.9,383.2,391.8,546,382.4,654.8c-9.5,108.8-278,108.8-311.1,404.5c-33.1,295.7,316.4,257.9,306.9,461.3c-0.1,1.3-0.2,2.6-0.3,4
		c0,0,0,0.1,0.1,0.4c-4,61-31.8,111.2-69.1,160.7c6.5-2.2,13.6-4.7,14.6-5.5C1435.1,2847.2,1586.6,2707.2,1778.2,2693.7z
		 M1933.1,2659.2c0-0.3,0-0.6,0.1-0.9c0,0,0-0.1,0-0.3c4-34.6,26.2-74.2,65.9-107.9c331.2-317-28.1-587.5,0-657.7
		c28.1-70.2,577.2-260.2,321.7-804.3c43.9-66.4,133.8-126.2,133.8-126.2s83.4,78.7,103.9,73.9c24.7-5.8,65.2-129.4,71.4-129.4
		c186.6,32.6,235.6,88.1,262.9,108.6c65.4,75.5,0.6,190.7-21.3,225.9c-21.9,35.2-244.8,180.9-18.9,412.5
		c27.1,27.8,66.5,64.8,101.3,104.3c-3.5,18.1-62.6,70.4-60.9,83.1c-36.8-20.4-141.4-42.5-159.7-18.6c-16.8,21.9,0,135.6,37,168.6
		c-188.9,278.9-545.2,635.6-693.5,729.7c-0.1,0-0.1,0-0.1,0c-23.9,15.2-42.4,23.5-53.9,23.5c-61.3,0-90.9-33.1-90.2-76.2
		C1933,2663.5,1933.1,2660.5,1933.1,2659.2z"/>
	<path fill="#C0E2CE" d="M1800.2,4039.3c141.9,42.6,500.9,351.3,482,824.4c-18.9,473.1-504.8,416.1-306.7,1050.3
		c84.3,269.8,554.8,652.9,1206.5,397.4c651.7-255.5,695.5-667.1,449.5-1178.1c-165.6-338.3-265-477.9-856.4-610.3
		c-250.8-52-624.5-676.6-520.5-917.9c37.9-61.5,151.4-127.7,56.8-392.7c-6.2-17.3-9.7-35.5-10.8-54.3c-6.5-2.4-14.9-7.7-22-19.2
		c-33.1-135.5-67.4-229.6-205.4-327.9c-99.7-51.5-125.7-77.8-125.7-77.8s-70.1-46.2-169.5-39.5c-191.6,13.5-343.1,153.5-345,154.9
		c-1,0.8-8.1,3.3-14.6,5.5c-85.1,113-220.1,222.2-236.4,447.6C1158.5,3628.2,1218.2,3921,1800.2,4039.3z"/>
</g>
<g id="Walls_Complete">
	<path fill="#FFFFFF" d="M3647.3,5104.7c-123.2-251.7-209.7-393.8-455.4-501.9c-3.2-1.4-11.1,10.2-14.4,8.8
		c-3.4-1.5-2-15.9-5.5-17.3c-100-41.8-225.4-78.6-388.1-115.1c-115.6-24-293.9-185.7-411.6-404.8c-1.1-2.1,9.4-8.4,7.2-12.4
		s-13.6,0.3-14.4-1.2c-0.4-0.8-0.2-0.4-0.6-1.1c-94.9-182.5-119.1-360.9-83.7-451.9c1-2-4.1-14-3-16c1.9-2.8,13.1-0.5,15.4-3.6
		c3.6-4.7,5.6-7.1,10-12.5c6.3-7.8,15.3-19.2,22-28.3c2.3-3.1,13.7,4.6,16,1.3c2.2-3.1-7.1-14.1-4.9-17.4
		c40.1-62.1,71.4-158.5,5-344.4c-20.3-56.7-8.2-129.1,35.8-215.1c0.3-0.6,36.9-4.5-15.1-28.9c-59.8-28-34.6,1.4-34.7,1.6
		c-52,101.1-65.3,189.1-39.4,261.4c54.6,152.8,36.4,232.9,5.7,285.9c-2.1,3.7-16.1-2.8-18.4,0.7c-1.9,2.9,7.9,15.9,6,18.7
		c-7.3,10.4-14.9,19.8-22.1,28.7c-4,4.9-5.4,6.6-9.1,11.4c-4.1,5.3-24.6-2.7-28.4,2.6c-3.8,5.4,11.7,20.3,10.1,23.9
		c-1.5,3.7-4,9.9-5.8,15c-53.4,154,52.3,385.8,101.5,480.5c1.5,3,1.5,3,3.1,5.9c1,1.8-9.9,9.7-7.9,14c1.8,3.8,14.7-1.3,15.8,0.8
		c108.1,199.9,280.5,408.9,433.6,440.6c153.7,34.4,273.3,69.2,369,107.6c8.9,3.6-1.8,52,6.7,55.6c7.7,3.3,34.6-38.2,42-34.8
		c232.6,105.7,308.9,241,419.3,466.6c137.2,284.9,169.6,512.8,99.1,696.6c-0.5,1.3-1,2.6-1.5,3.9c-2.5,6.5-24.8,5.8-27.6,12.2
		c-3.6,8.1,12.2,23.2,8.3,31.2c-81.3,162.7-249.6,292.4-512.6,395.5c-52.3,20.5-104.5,37.4-156.3,50.7c-4.5,1.2-13.2-13.6-17.7-12.5
		c-4.7,1.2-5.2,18.2-9.9,19.3c-183.5,42.8-361,40.1-519.7-8.1c-5.7-1.7-6.2-21.8-11.9-23.7c-6.9-2.3-19.1,13.7-25.9,11.2
		c-33.5-11.9-66-25.9-97.5-42c-106-54.2-194-129.4-254.2-214.5c-2.3-3.3,19.2-28.2,16.9-31.5c-4.5-6.6-32.6,8.2-36.8,1.5
		c-25.4-41.3-44.3-84.6-55.6-128.5c-85.9-333.7-5.4-467.6,91.7-593.3c2.4-3.2,22,4.7,24.5,1.6c2.3-2.9-12.5-16.9-10.2-19.8
		c2.8-3.6,5.6-7.1,8.4-10.7c11.3-14.3,22.6-28.7,33.8-43.5c4.8-6.3,26.1,2.5,30.8-3.9c4.4-6-7.9-27.1-3.6-33.2
		c58.7-83.9,107.8-183.5,114.1-339.3c19.3-483.2-370.4-817.6-502.8-837.4c-64.8-10.4-122.7-23.7-174.4-39.4
		c-6.1-1.8-6-16.8-11.9-18.7c-5.1-1.6-16.1,9.8-21.1,8.1c-49-16.7-92-35.8-129.7-56.9c-4.4-2.5,0.1-22.6-4.2-25.1
		c-4.4-2.6-17.6,12.4-21.9,9.7c-127.7-79.8-187.9-183.5-214.3-296.4c-0.6-2.6,9.8-7.2,9.4-10.2c-0.3-3-12.5-3.5-12.9-5.7
		c-20.2-97.7-16.3-200.7-9.3-298c4.3-59.2,17.3-109.6,35.5-153.6c3-7.3,19.3-7,22.6-14c3.4-7.1-6.3-21.5-2.7-28.3
		c33.5-62.8,77-112.3,117.7-158.4c62.3-70.8,121.2-137.8,129.1-233.3c0,0,27.3-14.3-20.3-14.3c-47.6,0-15,14.3-15,14.3
		c-8.3,76-67.7,139.2-125.1,204.5c-44.3,50.4-88.1,108.2-121,181.4c-1.9,4.2,5.3,12.1,3.5,16.4c-1.9,4.5-12.8,5.5-14.6,10.2
		c-21.5,54.9-36.9,118.1-42.3,192.4c-7.4,101.7-11.5,199.4,3.3,289.5c0.5,2.9-9.5,4.7-9.7,9.3c-0.2,4.7,12,4,12.5,6.3
		c24.2,127.2,88.7,238.5,238.5,323.4c5.6,3.2,10.9-1.8,16.8,1.3c3,1.6,6.5,11.3,9.5,12.9c41.1,21.1,87.9,40.4,141.4,57.7
		c3.1,1,9.3-4,12.4-3c3.7,1.2,4.3,8.3,8,9.5c53.5,16.3,113.3,30.8,180.1,43.3c139.4,27.4,496.2,364.6,478.2,814.4
		c-5.6,140.3-56.7,225.2-115.3,300.9c-4.4,5.7-2,16-6.5,21.6c-4.4,5.6-15.7,6.4-20.1,11.9c-12.2,15.1-24.4,30-36.4,45.3
		c-3,3.8-6,7.6-9.1,11.4c-2.4,3-16.6-7.6-22.6-4s9.8,19.9,7,23.3c-103.9,128-211.2,254.4-119.1,612.5
		c13.4,52.3,50.3,121.1,84.7,171.1c5.7,8.3,11.1-1,17.3,7.2c5.4,7.1-1.7,11.4,4,18.4c71.7,87.3,171.3,168.5,277.2,222.7
		c34.2,17.5,68.8,33.5,104.1,47.5c4.5,1.8,12.5-2.3,17-0.6c4.9,1.9,6.3,9.6,11.3,11.4c89.2,32.5,182.8,52,284.6,52
		c86.3,0,174.8-10.4,264.5-31.3c5-1.2,13.9,14.8,18.9,13.6c4.8-1.2,5.8-19.6,10.6-20.8c53.8-13.8,108-31.4,162.5-52.8
		c282.7-110.8,462.5-253.2,548.2-434.4c2.7-5.7-5-14.5-2.5-20.4c1.3-2.9,12.8-2.8,14.1-5.8c1.4-3.5,2.9-7,4.2-10.5
		C3838,5650.9,3792.8,5406.7,3647.3,5104.7z"/>
	<path fill="#FFFFFF" d="M3509.8-62.1c0,0-54.8-9.2-48.2-18.8c5.5-8.8,50.6-58.2,63.8-90.1c2.8-6.8-9.9-14.2-7.2-21.8
		c1.4-3.9,18.3-7.8,19.7-12c19.8-60,34-141.5,12.8-229.8c-0.9-3.6-17.3-2.4-18.3-6.1c-1.3-4.8,12.8-14.4,11.3-19.2
		c-14.9-47.5-40.7-96.6-81.6-144.9c-22.4-26.4-21.8-65.3,1.3-90.3c54.6-59.2,175.5-190.3,40.5-432.4c-1.1-1.9-8.8,0.5-9.8-1.4
		c-1.2-2.1,4.3-8.4,3-10.5c-6-10.3-12.5-20.9-19.5-31.6c-1.3-2.1-13,1.8-14.4-0.3c-1.7-2.6,6.9-11.1,5.1-13.7
		c-4.2-6.2-8.5-12.4-13.1-18.7c-17.4-24.3-18.9-56.5-4.2-82.5l7.1-12.6c42.5-74.6,132.9-233.5,161-410.8
		c0.9-5.5-16.2-14.4-15.5-19.9c0.7-5,19.2-6.4,19.7-11.4c8.3-73.2,5.2-148.9-16.9-222.6c-29-96.6-88.4-181-177.1-252.2
		c-3.1-2.5-14.2,3.8-17.4,1.3c-3.9-3,0.1-14.8-3.8-17.8c-36.1-26.8-76.6-51.6-121.4-74.3c-14.6-7.4-30.2-24.3-29.9-44
		c0.2-14.7,9.2-27.4,24.6-34.6c14.1-6.6,28.1-15.3,41.9-25.7c3.4-2.6-3.5-17.6-0.1-20.4c3.4-2.8,17,6.6,20.4,3.6
		c16-14.4,31.5-31.1,46.1-49.6c3.1-4-11.9-20.9-8.9-25.1c3-4.1,24.1,4.7,27,0.5c66.8-97.3,108.7-233.3,83.7-354.5
		c-26.1-126.9-119.5-223.8-269.2-274c-1.3-0.4-5.1,3.9-6.4,3.4c-1.4-0.5-0.3-5.6-1.6-6.1c-5.2-1.7-10.5-3.3-15.8-4.8
		c-2.6-0.8-9.2,10.5-11.8,9.8c-3.5-1-3.2-14-6.8-14.9c-54.7-14.2-115.8-22.8-183-25c-2.1-0.1-4.1-0.1-6.1-0.2
		c-5.1-0.1-11,16.4-16,16.4c-5.4,0-9.8-16.4-15.2-16.2c-199,7.6-369.6,128.6-431,291.1c-8.2,21.6-14.2,43.5-18,65.6
		c-0.8,4.5,13.5,12.2,12.9,16.7c-0.5,3.6-15.9,4.1-16.3,7.7c-9.8,94.1,18.2,190.3,80.5,278.5c1.8,2.5,11.1-2.8,13-0.3
		c1.3,1.8-4.9,11.4-3.5,13.2c28.7,38.3,64,74.9,105.5,109.1c9.1,7.5,15,18.4,15.6,30.2c0.9,17.3-8.4,32.7-23.4,40.1
		c-33.5,16.4-86.9,42.5-141,84c-3.6,2.8,2.4,16.3-1.2,19.2c-2.9,2.4-15.5-5.9-18.4-3.4c-61.3,51.5-120.4,123.6-149.4,224.7
		c-27.4,95.7-24,205.2,9.9,327.6c1.6,5.9,7.9,27,9.4,31.7c14.4,46.1,33.1,93.9,55.8,143.4c2.1,4.6,15.2,1.2,17.3,5.8
		c1.8,3.8-7.2,15.7-5.4,19.5c17.3,35.8,36.7,72.5,58.2,110.1c2.5,4.3,23.6-3.3,26.1,1.1c2.5,4.4-13.4,20.7-10.8,25.1
		c8.4,14.1,17.1,28.4,26,42.8c7,11.1,8.8,24.4,5.2,37.1c-3.3,11.6-11.2,21.2-21.5,27.5c-29.4,18-72.1,54-106.2,104.8
		c-3.4,5,8.1,18.9,4.9,24.2c-3.4,5.6-21.4,2.7-24.5,8.6c-15.2,28.9-27.1,61.4-32.7,97.3c-12.9,81.8,8.7,166.6,64.2,252.9
		c2.1,3.3,17.4-2.8,20.5,2c3,4.8-6.2,20.4-4,23.1c11.9,14.3,27.3,35.2,40.3,50.4c18.6,21.6,19,52.9,0.9,74.4
		c-11.4,13.5-29.2,37.2-44.8,71.5c-1.4,3,6.5,9.2,5.2,12.4c-1.2,2.9-11,0.7-12.2,3.8c-23.2,59.9-37.8,148.5-8.6,264.2
		c1.5,5.9,25,2.7,26.7,8.8c1.6,5.5-18.6,20.3-16.9,25.9c9.4,30.1,33.9,93.9,49.5,127.6c3,7.7-50.3,13.3-55.3,1.1
		c-12.1-28.2-35.8-93.7-43.7-119.4c-2.4-7.6,10.2-9.4,8.2-16.9c-2.3-8.4-14.3-4.5-16.2-12.6c-30.2-131.4-8.2-229.7,22.4-297.2
		c1.3-2.9-6.9-10.4-5.5-13.2c1.3-2.7,12.2-0.8,13.6-3.5c20-39.2,42-66.2,54.9-81.6c4.5-5.4,4.2-13.6-0.6-19.2
		c-13.1-15.2-33-41.9-44.6-57.1c-1.9-2.6,0.9-11.1-2.6-15.6c-3.2-4.2-12.8-4.3-15-7.5c-64.4-94.5-95-187.6-78.5-280.9
		c7.2-40.8,21.5-77.2,39.5-109.2c3.5-6.1,16.3-9.2,20-15c3.9-6.1-1.3-14.9,2.8-20.7c39.6-55.3,88.2-93.6,120.6-114.2
		c11.5-7.3,6.1-14.7,5.5-15.5c-9.3-15-18.8-31.5-27.5-46.2c-1.7-2.9,2.1-11.7,0.4-14.6c-3.4-5.8-10.6-2.4-14-8.2
		c-20.9-36.2-40.5-72.7-58.4-108.6c-2.3-4.6-0.4-11.6-2.6-16.2c-2.1-4.4-8.4-6.4-10.5-10.8c-24.6-51.7-45.4-101.9-61.2-148.4
		c-1.9-5.5-7.2-22.3-8.9-28c-40.1-132.2-46.4-250.8-16.3-356.1c30.3-105.9,96.5-183.1,164.7-238.7c3.1-2.5,12-1.6,15-4
		c4.2-3.3,2.6-9.9,6.8-13c51.5-38.6,102.2-65.3,137.4-83.1c12.1-6.1,14.1-22.5,3.9-31.5c-37.4-32.9-70.7-67.8-99.1-104.2
		c-1.6-2.1-11.8,1.5-13.4-0.6c-1.6-2.1,5.4-9.8,3.8-11.9c-71.5-96.1-109-201.6-99-304.4c0.2-2.1,8.3-4.4,8.5-6.5
		c0.5-4.1-6.8-7.9-6.2-12.1c4.1-26.6,11.5-52.9,22.3-78.8c74.8-178.5,252.2-295.5,470.8-298.9c4.7-0.1,9.3,5.9,14.1,5.9
		c4.2,0,8.5-5.9,12.7-5.8c1.5,0,3.1,0.1,4.6,0.1c73.8,2.5,137.9,10.9,193.4,23.6c3.2,0.7,4.5,7.3,7.7,8.1c2.3,0.6,6.6-4.7,8.9-4.1
		c6.6,1.7,13.1,3.4,19.4,5.2c1.4,0.4,4.8-3.2,6.2-2.8c1.2,0.3,1.6,5.1,2.7,5.4c217.8,64,285.4,199.6,304,290.2
		c27.1,131.6-23.5,280.1-98.3,386.6c-2.5,3.5-10.7,0.3-13.2,3.7c-2.3,3.1,3.5,9.4,1.2,12.4c-19.8,25.7-41.1,48.8-63.1,68.2
		c-2,1.8-6.3-0.8-8.3,0.9c-2.3,2-2.3,8.2-4.6,10.1c-12.2,9.9-24.5,18.6-36.9,26.2c-9.3,5.6-8.9,19.2,0.6,24.3
		c38.7,20.7,77.5,46.9,112.7,73.4c3.5,2.6,0.9,9.2,4.3,11.9c3.1,2.4,9.1-2,12.1,0.4c110,88.1,197.2,201.1,229.7,309
		c20.2,67.3,23.7,133.6,16.5,197.1c-0.5,4.5,16.7,12.6,16.1,17.1c-0.6,4.4-19.9,10.2-20.6,14.6c-30.9,191.2-153.4,348.8-200.5,431.6
		l-7.1,12.5c-6.8,11.9-5.7,26.7,2.5,37.7c5.2,7,12.9,17.3,17.8,24.2c1.4,1.9-1.2,8.2,0.1,10.1c1.5,2.2,8,2.1,9.5,4.2
		c7.2,10.6,14,20.9,20.3,31.1c1.4,2.3,8.6-1,10.1,1.2c1.4,2.1-4,8.7-3,10.3c170.2,283.6,5.2,419.1-51.3,480.3
		c-8.7,9.4-8.7,23.7-0.1,33.9c44.8,52.9,72.9,109.7,89.1,163.7c1.2,3.9-2.5,9.9-1.4,13.8c1.1,4,6.9,4.2,7.8,8.2
		c22.5,94.1,11,184-7.8,253.4c-1.2,4.3-10.5,9.2-11.7,13.3c-2.4,8,3.4,14.9,0.9,22.3c-16.4,48.9-34.4,82.8-40.5,93.7
		C3514.6-61.2,3509.8-62.1,3509.8-62.1z"/>
	<g>
		<path fill="#FFFFFF" d="M3696.7,1884.6c-5.4-2.7-10.6-5.8-15.6-9.1c-1.9-1.3-8,4.6-9.8,3.2c-2.8-2.1-1.2-11.4-3.8-13.6
			c-23.2-20.2-40.3-49.2-48.3-88.9c-0.5-2.3,9-7.4,8.6-9.7c-0.5-3-10.8-3.3-11.2-6.5c-2.7-20.3-3.2-43.1-1.2-68.6
			c1.4-18.1,28.5-42.6,44.6-64c25.2-33.4,37.4-77.1,40.5-145.3c3.9-84.9-43.7-207.7-110.7-283.5c-1.5-1.7-10.7-1.5-12.3-3.2
			c-3.1-3.4,1.4-8.6-1.8-11.8c-19.7-19.5-40.7-34.8-62.4-44c-25.9-10.9-61.2-43.9-74.8-84.6c-14.7-43.9-18.5-110,18.9-174.5
			c2.8-4.9,5.8-10.1,8.9-15.6c2-3.7-6.8-15.2-4.6-19.1c2.1-3.8,15,0.1,17.1-4c10.8-20.4,23.7-43.8,37.8-69.4
			c1.9-3.4-7.2-15-5.3-18.4c2.2-4.1,15.5-0.1,17.8-4.3c79.1-144.8,185-352.4,171.9-536.6c-0.2-2.7,7.1-5.7,6.9-8.3
			c-0.3-3-7.8-3.6-8.1-6.5c-10.7-95.8-52.3-174.2-144.4-253c-51-43.7-222.7-124-327.3-169.8c-11.4-5-18.6-12.1-23.1-19.2
			c6.5-8.2,10-19.2,7.8-32.7c-2.8-16.8-21.6-30.7-39-30.7c-17.4,0-40.6,7.8-37.3,24.3c2.7,14,30,11,29.2,20
			c-0.8,9-33.3,9.4-24.2,24.7c4.8,8,14.5,11.9,25.3,12c2.2,8.8,8.4,18.8,22.7,28c84.5,54.2,184.7,70,329,170.9
			c88.1,61.6,128.3,141.3,138.2,228.7c0.3,2.9-8.8,5.4-8.5,8.4c0.3,2.8,9.9,6.2,10.1,9c11.9,176.4-91.7,378.9-166.1,516.1
			c-2,3.7-23.6-4-25.6-0.4c-2.2,4.1,15.2,19.4,13.1,23.4c-11.9,21.9-22.8,41.8-31.9,59.2c-3.1,5.9-32.1-1.5-35,3.8
			c-2.9,5.3,20.3,23.2,17.6,27.8c-1.1,1.8-2.1,3.6-3.1,5.4c-54.6,96.9-50,165.7-36.3,206.7c16.1,48.1,51.2,88.4,105,107.4
			c18.9,6.7,37.2,19.4,54.2,36.2c3.3,3.3-5.7,19.7-2.5,23.3c3,3.3,18.2-6.3,21.1-2.8c57.9,70.7,97.6,185.6,94.3,256.5
			c-2.3,50.6-25.7,81.6-48.3,111.6c-19.1,25.4-38.9,51.6-41.6,86.3c-2.5,32.9-2.5,62.8,0,89.8c0.3,2.8-10.5,7.1-10.2,9.9
			c0.3,2.6,11.7,3.6,12,6.1c8.4,59.5,30.7,103.3,68.1,132.2c2.5,1.9-3,16.7-0.4,18.4c2,1.4,14.3-8.5,16.4-7.2
			c3.7,2.3,7.5,4.4,11.4,6.4c15.9,8.2,35.3-0.3,40.5-17.4C3715,1904.7,3708.9,1890.7,3696.7,1884.6z"/>
		<path fill="#FFFFFF" d="M2134-90.4c5.3,0.1,10.2,17.1,15.5,17.3c4.7,0.2,10-16.4,14.7-16.1c21.2,1.1,42.7,2.8,64,4.9
			c4.1,0.4,5.8,13.8,9.9,14.3c4.1,0.4,10.5-12.1,14.6-11.7c56.4,6.3,111.9,15,162.5,23c13.8,2.2,67.1,11.2,99.9,7
			c79.8-10.3,208.3-68,229.4-102.1c3.6-5.8,5.1-12.1,5.4-18.5c17.9,1.1,33.7-3.6,32.9-15.7c-2.3-33.3-30.9-0.6-32.8-25.1
			c-0.6-8.1,17.7-16,16.9-24.5c-0.7-8-20.2-26-57-9.5c-32.5,14.6-21.3,42.9-1.6,59.5c-1.3,6.4-5,14-13.2,22.5
			c-31.5,32.7-116.2,58.1-197.8,65.3c-15.3,1.3-63.2-8.3-74.3-10.1c-54.1-8.5-111.8-15.3-172.3-18.9c-2.8-0.2-5.1-10.7-7.9-10.8
			c-3.1-0.2-8.5,9.9-11.6,9.7c-22.3-1.1-44.8-1.7-67.1-1.8c-4.6,0-10.9,10.8-15.5,10.8c-6.2,0-10.7-10.7-16.9-10.5
			c-44.6,1-88.3,4.3-129.3,10.8c-42.5,6.7-88,19.5-134.4,38.2c-5.5,2.2-8.5,13.4-14,15.8c-6.7,2.9-15.9-3-22.7,0.1
			c-146.8,68.4-295.3,194.2-373.7,368.8c-65.1,145-12.8,246.4,19.5,327.1c23.1,57.6,34.2,106.6,18.9,118.3
			c-15.6,11.9-51.8,26.8-81,35.5c-7.8,2.3-15.9,4.8-24.2,7.4c-2.7,0.9-4.3,9.6-7.1,10.5c-5.6,1.9-12.5-4.1-18.2-2
			c-92.8,33.9-201.7,104.9-262.2,362.6c-42.8,182.4,9.9,291.9,88.9,379.1c2.8,3.1-4.6,15-1.7,18.1c2.4,2.6,15.1-3.7,17.5-1.2
			c34.7,35.7,73.3,68.1,110.5,100.9c24.9,21.9,64,58.5,96.2,92.2c3.6,3.8,12.5-0.6,15.9,3.1c2.5,2.7-1.8,11.3,2.1,16.3
			c20.5,26.1,37.9,45.4,37.1,54.1c-1.7,20-29.4,48-64.9,72.6c-4,2.8-3.8,12.1-8,14.8c-5.5,3.5-15.5,0.4-21.1,3.7
			c-45.1,26-95.4,47.5-132.6,95.1c-4.3,5.5-0.4,12.1-2.8,15.1c-2.2,2.8-9.5,0.2-13.4,5.3c-30.2,40.2-50.8,94.5-60,176.7
			c-20.2,180.4,82.2,257.6,171.5,316.4c78.1,51.4,134.3,89.2,131,160.7c0,0,0,0.1,0,0.1c-0.1,1.8,1.4,3.3,3.2,3.3
			c10.9-0.1,21.4-0.4,32.2-0.4c0-0.3,0-0.5,0.1-0.7c0-0.2,0-0.3,0-0.6c5-107.4-72.7-158.5-147.9-208c-88.1-58-171.4-112.8-155-258.6
			c7.3-65.2,26.6-113.8,52.2-151.6c3.3-4.8,26.6,4.4,30-0.1c4.6-6-10.6-25.5-5.7-30.9c37.4-41.3,82.4-67.2,122.5-90.3
			c3.8-2.2,14,7.1,17.8,5c3.2-1.9-0.1-15.2,3.1-17.1c45-26.7,83.5-55,87.7-103.6c2.5-29.2-15-56.2-42.5-87.9
			c-6.2-7.1,2.7-24.4-2.5-29.4c-7.2-6.9-21.6,5.1-29.7-2.4c-14.3-13.3-30.2-27.3-47.2-42.2c-48.2-42.4-103.1-90.8-149.8-147.2
			c-2.3-2.8,5.7-15.5,3.4-18.4c-2.3-2.9-15,3.9-17.3,1c-70.1-90.6-116.9-201.6-84.1-341.3c54.3-231.4,153.9-294.2,239.7-324.8
			c4.7-1.7,15.3,16.4,20,14.9c4.2-1.4,2.4-22.4,6.6-23.6c6.2-1.9,12.4-3.8,18.4-5.5c33.2-9.9,64.5-19.2,88.3-37.5
			c51.1-39.1,27.2-98.8,1.9-162c-32.1-80.3-72.1-180.2-16.9-303.2c69.1-153.8,208.8-278.2,346.7-347.9c8.1-4.1,24.9,12.8,33,9.1
			c6.2-2.9,3.9-26.5,10.1-29.1c42.8-18.1,84.7-30.7,123.4-36.8C2049.6-89.6,2091.2-91.4,2134-90.4z"/>
		<path fill="#FFFFFF" d="M1505.3,2686.6C1505.2,2688.1,1505.4,2685.3,1505.3,2686.6L1505.3,2686.6z"/>
		<path fill="#FFFFFF" d="M3585.6,2924.3c-41.4-13.5-79.1-31.8-113.8-53.4c-3.1-2,2.7-19-0.4-21c-3.4-2.2-15.8,10.5-19.1,8.3
			c-19.9-13.6-38.7-28.2-56.7-43.7c-2.4-2.1,4.4-20.5,2-22.7c-4.8-4.3-18.8,7.7-23.5,3.4c-31.2-29.1-59.5-60.5-85.8-92.5
			c-3-3.7-11.1-13.8-18.1-22.7c-1.5-1.8,4.2-9.8,2.9-11.5c-1.7-2.1-10.3,2.1-11.5,0.5c-1.2-1.5-2.1-2.7-2.8-3.6
			c-22.5-29.3-43.5-58.5-63.4-86.3c-35.4-49.2-68.7-95.6-103-131c-3.4-3.5,6.2-25.8,2.8-29c-6.6-6.4-26.3,6.7-33.1,1.2
			c-39.2-31.4-80.7-46.1-128.7-32.6c-146.3,41.3-476.1,305.4-604.9,553.9c15.2,11.2,33,18.3,50.6,25.7
			c117.9-228.4,438.8-488.1,569.7-525c27.7-7.8,56.3,0.6,87,22.8c6.1,4.4,15.3,0.4,21.6,5.9c3.3,2.9,3.6,14.9,7,18
			c30,28.3,62,67.9,97.1,116.7c7.1,9.9,30.7,44.4,66.7,89.2c1.6,2-6,11.8-4.4,13.8c1.4,1.7,12-4.4,13.4-2.7
			c30.6,37.4,69,80.7,113,122.6c4.4,4.1,13.2-1.3,17.6,2.8c2.2,2.1,0.1,13.7,2.3,15.7c17,15.4,34.7,30.4,53.1,44.7
			c3.9,3,11.1,1,15.1,3.9c3.7,2.8,4,10.5,7.8,13.2c38.3,27.6,78.9,51.6,121.1,68.9c15.3,6.2,32-3.7,36.3-19.6l0-0.1
			C3607.7,2944,3599.8,2928.9,3585.6,2924.3z"/>
		<path fill="#FFFFFF" d="M2776.2,894.3c-6.9-2.8-21.4,15.7-28.9,13c-41-14.8-90.3-28-147.4-35.4c-5.4-0.7-10,4.1-9,9.5
			c2.5,13.7,4,33.8,6.4,45.2c0.7,3.3,3.3,5.7,6.6,6.2c45.6,7,93.3,17.4,136,30c6.3,1.9,16.7-9.2,22.7-7.2c4.7,1.5,5.1,16,9.6,17.6
			c50.9,17.7,90.4,38.5,103.3,60c26,43.2,13.2,158.1-12.2,190.4c-18.7,23.7-68.5,62-102.6,142.5c-1.3,3.1-11.9,2.9-13.2,6.1
			c-1.1,2.9,7,9.4,5.9,12.4c-5.5,15.1-10.4,31.6-14.5,49.6c-9.4,41.4-1,80.3,16.6,115.8c1.2,2.5,9.3,4.8,10.7,7.3
			c2.7,5-1.3,10,1.7,14.9c27.9,45.1,68.7,84.2,102.2,115.5c1.8,1.7,6.7,0.3,8.4,1.9c2.1,1.9,1,6.9,3,8.8c25.7,24,45,42.7,47.2,55.2
			c1.1,8.1-47,68.4-61.2,83.7c-3.2,3.4-2.8,8.8,0.8,11.7c7.7,6.2,12.8,13.5,23,21.7c3.8,3,9.4,1.9,11.9-2.2
			c39.2-64.2,69.6-93.5,54.5-122.9c-0.8-1.5-1.7-3-2.8-4.4c-16.9-22-33.7-41.5-49.7-59.3c-3.4-3.8,2.5-12.9-0.9-16.5
			c-1.7-1.8-12.7,1.8-14.3,0c-39.3-42.1-73.3-74.2-94.7-105.9c-1.9-2.8,10.5-17.4,8.8-20.2c-3.3-5.5-20.4,0.9-22.8-4.7
			c-10.6-23.8-13.3-48.8-5.2-79c5.8-21.4,11.4-40,16.9-56.2c1.2-3.4,13.2-3.2,14.3-6.4c1.4-3.8-8.1-11-6.7-14.5
			c25.2-65.3,50-87.9,83.6-125.3c44.4-49.3,80.4-204,7.4-268.2c-4.2-4.1-39.9-33-104-61.4C2781.7,920.9,2782.7,896.9,2776.2,894.3z"
			/>
		<path fill="#FFFFFF" d="M2458.4,2421.3c2.9-3.1,14.1,2,17-1.1c2.7-3-2.9-14.1-0.3-17.1c162.9-179,281.9-357.8,318-399.7
			c3.1-3.6,2.6-9.1-1.2-12.1c-10.5-8.4-12.4-16-22.9-24.4c-3.6-2.9-9.5-3.1-11.7,1c-46.2,87.5-169.2,243.6-317.4,394.9
			c-3.2,3.3-17.9-5-21.2-1.7c-3.1,3.2,5.2,17.9,2,21c-128.4,128.8-273.6,251.9-403.4,323.5c-21.3,9.8-51,4.4-59.8-19.7
			c-9.3-25.4-1.8-82.7,48.4-125.4c0.4-0.4,0.8-0.7,1.2-1.1c2.3-2.2,0.8-8.9,3-11.1c2.6-2.6,9-0.7,11.5-3.2
			c221.4-222.7,138.1-397.1,66.1-517c-1-1.7,6.1-11.3,3.8-15.5c-1.8-3.4-12.9,0.5-14.8-2.6c-2.8-4.6-5.6-9.1-8.3-13.5
			c-13.9-22.7-50.1-82.3-54.6-97.1c-0.9-3-0.1-6.1,2.2-8.4c10.6-10.7,58.6-51.2,87.9-66.8c94.7-50.2,224.6-155.6,277.2-322.4
			c1-3.2,14-3,15-6.3c1-3.5-10.7-7.9-9.8-11.5c6.6-24.5,12.3-52.9,15.2-79.9c0.7-6.4-7.5-15.5-7-22.1c0.5-7.6,9.7-12.7,9.9-20.4
			c1.6-57.2-5.5-119.6-24.1-187.3c-1.4-5.1-11.3-6.8-13.3-14.3c-1.6-6,4.8-15.1,2.8-21.2c-4.4-13.7-9.3-27.7-14.7-41.8
			c-1.2-3.3-0.4-6.9,2.2-9.3c5.5-4.9,11-9.9,16.4-15.1c3.8-3.5,3.8-15.2,7.6-18.8c4.5-4.3,12.7-0.6,17.1-5
			c35-34.6,65.8-68.3,77-80.8c2.7-3,2.9-7.3,0.5-10.6l-20.4-28.4c-3.2-4.4-9.5-4.8-13.1-0.8c-12.8,14.1-42,45.3-75.5,76.1
			c-4.3,4-21.5-10.1-26-6.2c-3.9,3.5,4.8,25,0.8,28.4c-10,8.4-20,16.4-29.9,23.6c-12.8,9.3-17.8,29-11.2,43.4
			c10.4,22.6,19.4,40.5,27,61.8c2.2,6.2-22.4,24.9-20.4,31c2,6.2,32.8,5.5,34.6,11.5c17.3,58.6,25.2,121.8,24,170.3
			c-0.2,6.9-24.2,8.9-24.7,15.6c-0.5,6.7,21.3,13.1,20.5,19.6c-3.1,25.3-8.5,49.2-15.7,71.9c-0.9,3-16.9,0.4-17.9,3.3
			c-1.1,3.3,12.7,12,11.5,15.2c-55.5,148.6-190.7,239.1-279.7,300.9c-46.9,32.6-75.2,52.2-84.2,74.8c-12.8,32.1,9.2,68,42.6,122.4
			c7.9,12.9,16.3,26.5,24.6,40.8c1.7,2.9-7.7,14.2-6,17.2c1.7,2.9,14.4-2.5,16.1,0.4c65.9,118,119.8,276.6-59.9,456.5
			c-3.3,3.3-20.8-6.2-24.2-2.9c-5.1,4.4,4.2,21.6-0.4,26.2c-51.8,51.1-73.3,113.7-55,163.6c15.5,42.2,61.4,89.3,112.3,66.4
			C2183,2689.5,2332.9,2556.7,2458.4,2421.3z"/>
	</g>
</g>
</svg>
